<svg xmlns="http://www.w3.org/2000/svg" viewBox="0 0 512 512"><circle cx="256" cy="256" r="256" fill="#ffc61b"/><path d="M294.996 509.049c105.746-16.162 190.195-97.028 211.687-200.923l-110.485-112.63-11.102 12.448-99.711-98.695-86.776 137.052-47.94-47.937-31.799 16.649 81.846 82.198-64.445 53.646 158.725 158.192z" fill="#eaa22f"/><path d="M368.635 256c0-3.798-.19-7.551-.56-11.252-.498-4.994 1.431-9.923 5.277-13.148l19.778-16.586a15.021 15.021 0 0 0 3.356-19.018l-18.279-31.658a15.022 15.022 0 0 0-18.148-6.603l-24.254 8.835c-4.722 1.72-9.961.922-14.039-2.015a112.6 112.6 0 0 0-19.49-11.271c-4.57-2.064-7.866-6.197-8.737-11.136l-4.47-25.398a15.02 15.02 0 0 0-14.793-12.416h-36.555a15.022 15.022 0 0 0-14.793 12.416l-4.47 25.398c-.869 4.939-4.165 9.073-8.737 11.136a112.525 112.525 0 0 0-19.49 11.271c-4.077 2.938-9.316 3.736-14.039 2.015l-24.254-8.835a15.017 15.017 0 0 0-18.148 6.603l-18.279 31.658a15.017 15.017 0 0 0 3.356 19.018l19.778 16.586c3.846 3.225 5.775 8.152 5.277 13.148a113.38 113.38 0 0 0 .007 22.583c.503 5.008-1.434 9.947-5.298 13.174l-19.732 16.484a15.023 15.023 0 0 0-3.379 19.037l18.254 31.616a15.017 15.017 0 0 0 18.175 6.592l24.142-8.847c4.732-1.734 9.987-.938 14.074 2.012a112.431 112.431 0 0 0 19.625 11.35c4.584 2.065 7.887 6.215 8.749 11.167l4.405 25.305a15.018 15.018 0 0 0 14.796 12.443h36.507a15.018 15.018 0 0 0 14.796-12.443l4.405-25.305c.862-4.953 4.165-9.102 8.749-11.167a112.448 112.448 0 0 0 19.625-11.35c4.086-2.95 9.342-3.746 14.074-2.012l24.142 8.847a15.02 15.02 0 0 0 18.175-6.592l18.254-31.616a15.018 15.018 0 0 0-3.379-19.037l-19.732-16.484c-3.862-3.227-5.799-8.166-5.298-13.174.384-3.725.577-7.506.577-11.331z" fill="#06776a"/><path d="M237.096 407.666h37.81c8.447 0 15.294-6.847 15.294-15.294v-75.186a2.182 2.182 0 0 0-2.181-2.181h-64.038a2.182 2.182 0 0 0-2.181 2.181v75.186c.001 8.446 6.849 15.294 15.296 15.294z" fill="#ccd1d0"/><path d="M290.637 183.637v68.532l-34.944 13.712-34.942-13.712v-68.218c-24.51 12.75-41.262 38.362-41.262 67.901 0 42.256 34.256 76.51 76.51 76.51 42.256 0 76.51-34.256 76.51-76.51.001-29.784-17.029-55.575-41.872-68.215z" fill="#f5f5f5"/></svg>