<svg height="157.216" overflow="visible" width="157.216" xmlns="http://www.w3.org/2000/svg"><circle cx="78.607" cy="78.608" fill="#6EBF3A" r="78.608"/><path d="M114.66 43.313c-8.814-8.817-20.531-13.674-33.01-13.678-25.716 0-46.646 20.922-46.659 46.639a46.611 46.611 0 0 0 6.225 23.313L34.6 123.76l24.732-6.49a46.572 46.572 0 0 0 22.304 5.681h.014c25.71 0 46.646-20.922 46.659-46.642.001-12.465-4.842-24.182-13.649-32.996zm-33.01 71.765h-.014A38.78 38.78 0 0 1 61.9 109.67l-1.424-.845-14.669 3.853 3.915-14.307-.928-1.465a38.646 38.646 0 0 1-5.925-20.633c.007-21.375 17.405-38.767 38.794-38.767 10.356.007 20.099 4.044 27.42 11.372 7.32 7.328 11.354 17.066 11.347 27.426-.006 21.384-17.404 38.774-38.78 38.774zm21.272-29.038c-1.166-.579-6.896-3.398-7.963-3.789s-1.85-.587-2.624.579c-.774 1.165-3.008 3.789-3.691 4.571-.685.781-1.361.879-2.526.293-1.166-.587-4.927-1.814-9.38-5.785-3.461-3.092-5.806-6.909-6.476-8.075-.684-1.169-.077-1.797.502-2.38.531-.52 1.172-1.361 1.752-2.041.579-.681.774-1.166 1.166-1.944.391-.778.195-1.458-.098-2.041-.293-.586-2.624-6.323-3.594-8.654-.942-2.275-1.905-1.968-2.624-2.003a50.853 50.853 0 0 0-2.233-.038c-.774 0-2.044.29-3.105 1.458-1.075 1.166-4.083 3.985-4.083 9.721s4.18 11.277 4.76 12.056c.579.778 8.221 12.544 19.91 17.597a67.319 67.319 0 0 0 6.651 2.456c2.791.887 5.338.761 7.349.461 2.232-.335 6.895-2.819 7.864-5.541.971-2.722.971-5.053.677-5.541-.295-.488-1.062-.781-2.234-1.36z" fill="#FFF"/></svg>