<svg height="155.475" overflow="visible" width="155.475" xmlns="http://www.w3.org/2000/svg"><circle cx="77.737" cy="77.737" fill="#5175A8" r="77.737"/><path d="M74.908 121.575c-11.374 0-21.878-3.879-29.58-10.904-8.213-7.481-12.547-17.751-12.547-29.673 0-13.261 4.886-25.614 13.748-34.779 9.275-9.59 22.333-14.869 36.777-14.869 11.739 0 21.843 3.696 29.228 10.69 7.185 6.805 11.139 16.387 11.139 26.978 0 20.425-12.608 31.114-25.065 31.114-3.603 0-6.226-.903-8.02-2.753-1.098-1.132-1.856-2.65-2.264-4.5l-.29-1.353-.884 1.076c-4.899 5.977-11.028 8.876-18.709 8.876-8.247 0-16.584-6.156-16.584-17.924 0-8.412 3.589-16.732 9.849-22.822 6.577-6.401 15.542-9.928 25.238-9.928 4.604 0 9.311.697 13.251 1.96 1.933.618 3.078 2.591 2.678 4.596l-4.39 21.74c-.953 4.497-1.857 9.907-.4 11.763.289.359.835.85 2.318.891l.249.007c6.404 0 13.243-8.785 13.243-21.86 0-18.844-12.133-30.553-31.67-30.553-22.899 0-39.525 17.198-39.525 40.894 0 19.786 13.548 33.079 33.7 33.079 5.936 0 12.471-1.298 17.937-3.541.11-.041.242-.069.353-.069.814 0 1.49 1.471 2.208 3.017l.11.255c.11.228.221.449.324.677.553 1.139 1.07 2.208.794 2.933-.159.407-.58.746-1.298 1.035-6.425 2.691-13.388 3.947-21.918 3.947zm9.883-60.535c-11.07 0-20.429 9.89-20.429 21.598 0 1.987.566 8.488 7.84 8.488 6.95 0 14.009-8.737 15.438-16.26l2.299-11.418c.096-.486 0-.98-.29-1.391a1.773 1.773 0 0 0-1.201-.752 23.983 23.983 0 0 0-3.657-.265z" fill="#FFF"/></svg>