<svg height="155.95" overflow="visible" width="155.95" xmlns="http://www.w3.org/2000/svg"><path d="M77.975 155.95c43.068 0 77.976-34.914 77.976-77.979C155.95 34.911 121.043 0 77.975 0S0 34.911 0 77.972c0 43.064 34.907 77.978 77.975 77.978" fill="#3BAEDA"/><path d="M117.326 86.967c.608-2.755.92-5.614.92-8.549 0-21.994-17.823-39.825-39.821-39.825-2.325 0-4.596.201-6.811.582a22.976 22.976 0 0 0-12.293-3.544c-12.75 0-23.091 10.341-23.091 23.098 0 4.264 1.163 8.251 3.17 11.681a40.2 40.2 0 0 0-.803 8.009c0 21.998 17.831 39.828 39.829 39.828 2.492 0 4.929-.229 7.289-.671a22.98 22.98 0 0 0 10.916 2.741c12.764 0 23.104-10.342 23.104-23.092a22.997 22.997 0 0 0-2.409-10.258zM98.845 97.446c-1.835 2.616-4.555 4.679-8.085 6.146-3.496 1.454-7.684 2.188-12.445 2.188-5.725 0-10.521-1.011-14.259-2.99-2.679-1.439-4.887-3.405-6.562-5.821-1.689-2.437-2.547-4.853-2.547-7.192 0-1.46.561-2.727 1.661-3.765 1.094-1.025 2.492-1.544 4.153-1.544 1.371 0 2.554.408 3.516 1.211.914.789 1.696 1.938 2.333 3.42.706 1.619 1.474 2.983 2.284 4.056.782 1.039 1.903 1.911 3.343 2.589 1.439.679 3.392 1.024 5.787 1.024 3.288 0 5.987-.699 8.016-2.09 1.986-1.35 2.948-2.977 2.948-4.971 0-1.563-.498-2.803-1.536-3.779-1.08-1.01-2.513-1.799-4.25-2.339-1.813-.561-4.264-1.177-7.31-1.813-4.132-.883-7.642-1.932-10.438-3.119-2.852-1.215-5.15-2.904-6.839-5.008-1.703-2.143-2.575-4.825-2.575-7.984 0-3.004.907-5.721 2.7-8.057 1.786-2.322 4.388-4.132 7.738-5.365 3.302-1.222 7.227-1.841 11.685-1.841 3.558 0 6.68.412 9.289 1.222 2.63.813 4.838 1.92 6.575 3.277 1.752 1.371 3.06 2.831 3.877 4.354.83 1.533 1.246 3.063 1.246 4.541 0 1.426-.554 2.717-1.634 3.845-1.094 1.132-2.472 1.709-4.098 1.709-1.468 0-2.631-.363-3.42-1.066-.747-.665-1.522-1.692-2.381-3.17-.997-1.883-2.201-3.375-3.571-4.42-1.344-1.024-3.586-1.537-6.659-1.537-2.852 0-5.178.571-6.895 1.707-1.661 1.083-2.471 2.333-2.471 3.817 0 .907.256 1.665.796 2.315.567.695 1.371 1.298 2.374 1.803 1.045.53 2.125.945 3.205 1.243 1.107.308 2.963.765 5.51 1.353 3.226.692 6.188 1.468 8.805 2.305 2.658.852 4.942 1.893 6.811 3.111 1.911 1.243 3.42 2.834 4.493 4.742 1.072 1.91 1.619 4.271 1.619 7.019.007 3.268-.935 6.272-2.789 8.874z" fill="#FFF"/></svg>