<svg viewBox="0 0 512 512" xmlns="http://www.w3.org/2000/svg"><path d="M512 256c0 141.387-114.613 256-256 256S0 397.387 0 256 114.613 0 256 0s256 114.613 256 256zm0 0" fill="#00d6c1"/><path d="M172.61 364.277l-51.114 51.118 93.285 93.285A257.878 257.878 0 0 0 256 512c19.871 0 39.215-2.266 57.781-6.547zm0 0M507.453 304.172l-184.039-184.04-136.02 225.665L339.618 498.02C425.2 468.453 490.2 394.78 507.453 304.172zm0 0" fill="#02a894"/><path d="M156.57 369.406l-31.812 31.813 73.203 73.199c17.57 17.57 46.055 17.566 63.621 0zm0 0" fill="#636978"/><path d="M73.719 316.5c-11.172 11.176-11.172 29.29 0 40.46l51.242 51.243 40.46-40.46L114.18 316.5c-11.172-11.172-29.29-11.172-40.461 0zm0 0" fill="#414952"/><path d="M87.965 371.21l55.508-25.413 15.039 15.039-55.504 25.414zm0 0" fill="#555a66"/><path d="M79.727 362.973l43.816-37.11 15.039 15.04-43.816 37.109zm0 0" fill="#23272b"/><path d="M85.89 369.137L73.72 356.965a28.88 28.88 0 0 1-2.735-3.168l20.399-45.559c6.746-.601 13.66 1.18 19.383 5.348zm0 0" fill="#555a66"/><path d="M105.121 399.023l51.113-51.113 16.371 16.371-51.113 51.114zm0 0" fill="#23272b"/><path d="M355.43 369.406l31.812 31.813-73.203 73.199c-17.566 17.57-46.05 17.57-63.621 0zm0 0" fill="#555a66"/><path d="M438.281 316.5c11.172 11.176 11.172 29.29 0 40.465l-51.242 51.238-40.46-40.46L397.82 316.5c11.172-11.172 29.29-11.172 40.461 0zm0 0" fill="#23272b"/><path d="M424.035 371.21l-55.508-25.413-15.039 15.039 55.504 25.414zm0 0" fill="#414952"/><path d="M432.273 362.973l-43.816-37.11-15.039 15.04 43.816 37.109zm0 0" fill="#23272b"/><path d="M426.11 369.137l12.171-12.172a28.88 28.88 0 0 0 2.735-3.168l-20.399-45.559c-6.746-.601-13.66 1.18-19.383 5.348zm0 0" fill="#414952"/><path d="M390.5 415.398l-51.117-51.113 16.37-16.37 51.118 51.112zm0 0" fill="#23272b"/><path d="M256 512c68.656 0 130.996-27.031 176.969-71.023l-108.867-39.653a33.215 33.215 0 0 1-21.852-31.21v-30.805h-92.5v30.804c0 13.961-8.73 26.434-21.852 31.211L79.031 440.977C125.004 484.969 187.344 512 256 512zm0 0" fill="#414952"/><path d="M432.969 440.977l-108.867-39.653a33.215 33.215 0 0 1-21.852-31.21v-30.805h-46.645v172.687c.133 0 .262.004.395.004 68.656 0 130.996-27.031 176.969-71.023zm0 0" fill="#23272b"/><path d="M300.031 363.715l-22.082 11.344a48.03 48.03 0 0 1-43.898 0l-22.082-11.344c-32.727-16.813-53.301-50.512-53.301-87.305v-86.074C158.668 136.578 202.242 93 256 93s97.332 43.578 97.332 97.332v86.078c0 36.793-20.574 70.492-53.3 87.305zm0 0" fill="#555a66"/><path d="M256 93c-.133 0-.262.004-.395.004v287.351a47.998 47.998 0 0 0 22.344-5.296l22.082-11.344c32.727-16.813 53.301-50.512 53.301-87.305v-86.074C353.332 136.578 309.758 93 256 93zm0 0" fill="#414952"/><path d="M305.586 270.934h-96.5c-18.918 0-34.25-15.336-34.25-34.25 0-18.918 15.332-34.25 34.25-34.25h96.5c18.914 0 34.25 15.332 34.25 34.25-.004 18.914-15.336 34.25-34.25 34.25zm0 0" fill="#ffcdbe"/><path d="M305.582 202.434h-49.977v68.5h49.977c18.918 0 34.25-15.336 34.25-34.25s-15.332-34.25-34.25-34.25zm0 0" fill="#ffbeaa"/></svg>