<svg xmlns="http://www.w3.org/2000/svg" viewBox="0 0 512 512"><circle cx="256" cy="256" r="256" fill="#fee187"/><path d="M511.598 270.245L376.961 135.608l-145.594-2.222-117.515 117.515 9.409 67.734 6.761 52.496 140.452 140.452c129.934-7.242 233.996-111.373 241.124-241.338z" fill="#ffc61b"/><path d="M256 85.333c-94.256 0-170.667 76.41-170.667 170.667S161.744 426.667 256 426.667 426.667 350.256 426.667 256 350.256 85.333 256 85.333zm0 256c-47.128 0-85.333-38.205-85.333-85.333s38.205-85.333 85.333-85.333 85.333 38.205 85.333 85.333-38.205 85.333-85.333 85.333z" fill="#273b7a"/><path d="M256 85.333c-.191 0-.383.007-.574.007v85.34c.191 0 .381-.014.574-.014 47.128 0 85.333 38.205 85.333 85.333S303.128 341.333 256 341.333c-.193 0-.381-.014-.574-.014v85.34c.191 0 .383.007.574.007 94.256 0 170.667-76.41 170.667-170.667S350.256 85.333 256 85.333z" fill="#121149"/><path d="M170.667 256c0-34.14 20.056-63.585 49.021-77.228l-36.18-77.31C125.502 128.721 85.333 187.664 85.333 256c0 46.763 18.815 89.128 49.278 119.953l60.349-60.349c-15.022-15.381-24.293-36.405-24.293-59.604z" fill="#ff5419"/><path d="M194.96 315.604l-60.349 60.349c30.815 31.18 73.55 50.55 120.815 50.707v-85.34c-23.7-.159-45.096-9.977-60.466-25.716z" fill="#b54324"/></svg>