<svg xmlns="http://www.w3.org/2000/svg" viewBox="0 0 512 512"><circle cx="256" cy="256" r="256" fill="#273b7a"/><path d="M302.054 507.861c108.084-19.637 192.502-107.134 207.538-216.75L373.619 155.138l-14.193 9.806-67.16-66.224-36.585 15.346 2.089 15.758-37.178-13.429 35.088 34.7v113.783l33.439 33.439-134.809 61.802 147.744 147.742z" fill="#121149"/><path fill="#e09112" d="M180.814 180.032l-18.97 13.058-26.115-37.94 18.969-13.058z"/><path fill="#ff5419" d="M354.647 142.094l18.969 13.057-26.116 37.94-18.969-13.058z"/><path fill="#e09112" d="M232.607 107.089h46.77v65.905h-46.77z"/><g fill="#ff5419"><path d="M256 107.089h23.386v65.905H256z"/><path d="M282.352 120.077h-52.703c-7.17 0-12.983-5.813-12.983-12.983 0-7.17 5.813-12.983 12.983-12.983h52.703c7.17 0 12.983 5.813 12.983 12.983-.001 7.17-5.814 12.983-12.983 12.983z"/></g><path d="M282.352 94.111H256v25.965h26.352c7.17 0 12.983-5.813 12.983-12.983-.001-7.169-5.814-12.982-12.983-12.982z" fill="#c92f00"/><g fill="#ffedb5"><circle cx="256" cy="269.636" r="127.569"/><path d="M383.569 269.633c0-70.454-57.115-127.569-127.569-127.569v255.138c70.454 0 127.569-57.115 127.569-127.569z"/></g><path d="M256 405.819c-75.095 0-136.189-61.093-136.189-136.189S180.905 133.442 256 133.442s136.189 61.093 136.189 136.189S331.093 405.819 256 405.819zm0-255.138c-65.589 0-118.949 53.36-118.949 118.949S190.411 388.58 256 388.58s118.949-53.36 118.949-118.949-53.36-118.95-118.949-118.95z" fill="#ff5419"/><path d="M392.189 269.631c0-75.093-61.093-136.189-136.189-136.189v17.239c65.589 0 118.949 53.36 118.949 118.949S321.589 388.58 256 388.58v17.239c75.095 0 136.189-61.093 136.189-136.188z" fill="#c92f00"/><circle cx="256" cy="269.636" r="97.401" fill="#ffc61b"/><path d="M353.401 269.633c0-53.793-43.608-97.401-97.401-97.401v194.801c53.793 0 97.401-43.608 97.401-97.4z" fill="#eaa22f"/><path d="M256 182.46l9.481 89.298c.557 5.237-3.238 9.931-8.475 10.488s-9.931-3.237-10.488-8.475a10.04 10.04 0 0 1 0-2.014L256 182.46z" fill="#ff5419"/><path d="M265.481 271.758L256 182.465v99.833a9.535 9.535 0 0 0 9.481-10.54z" fill="#c92f00"/><circle cx="256" cy="269.636" r="17.01" fill="#e09112"/><path d="M273.01 269.633c0-9.394-7.614-17.01-17.008-17.01v34.018c9.392 0 17.008-7.615 17.008-17.008z" fill="#ff5419"/></svg>