<?xml version="1.0" encoding="iso-8859-1"?>
<!-- Generator: Adobe Illustrator 19.0.0, SVG Export Plug-In . SVG Version: 6.00 Build 0)  -->
<svg version="1.1" id="Capa_1" xmlns="http://www.w3.org/2000/svg" xmlns:xlink="http://www.w3.org/1999/xlink" x="0px" y="0px"
	 viewBox="0 0 512 512" style="enable-background:new 0 0 512 512;" xml:space="preserve">
<circle style="fill:#FFEC97;" cx="256" cy="256" r="256"/>
<path style="fill:#FFD400;" d="M512,256c0-6.126-0.229-12.198-0.653-18.216l-115.16-115.161C360.938,85.587,311.166,62.5,256,62.5
	C149.133,62.5,62.5,149.133,62.5,256c0,55.166,23.087,104.938,60.123,140.187c0,0,81.444,81.516,115.115,115.158
	C243.771,511.77,249.859,512,256,512C397.385,512,512,397.385,512,256z"/>
<circle style="fill:#6D76E7;" cx="256" cy="256" r="193.5"/>
<path style="fill:#1C2EDE;" d="M449.5,256c0,106.863-86.637,193.5-193.5,193.5v-387C362.863,62.5,449.5,149.137,449.5,256z"/>
<circle style="fill:#FFFFFF;" cx="256" cy="256" r="137.49"/>
<path style="fill:#FFF5CB;" d="M393.487,256c0,75.934-61.553,137.487-137.487,137.487V118.513
	C331.934,118.513,393.487,180.067,393.487,256z"/>
<rect x="240.21" y="148.73" style="fill:#57555C;" width="31.571" height="80.8"/>
<rect x="256" y="148.73" style="fill:#2A2A2C;" width="15.785" height="80.79"/>
<rect x="192.392" y="247.781" transform="matrix(0.531 0.8474 -0.8474 0.531 339.8915 -31.9587)" style="fill:#00D9E0;" width="12.847" height="86.572"/>
<rect x="281.569" y="264.41" transform="matrix(-0.7071 0.7071 -0.7071 -0.7071 717.2622 295.8692)" style="fill:#2A2A2C;" width="31.571" height="64.149"/>
<circle style="fill:#FF127F;" cx="256" cy="256" r="33.608"/>
<path style="fill:#B10853;" d="M289.608,256c0,18.566-15.042,33.608-33.608,33.608v-67.216c5.713,0,11.08,1.416,15.785,3.931
	C282.387,231.975,289.608,243.137,289.608,256z"/>
<g>
</g>
<g>
</g>
<g>
</g>
<g>
</g>
<g>
</g>
<g>
</g>
<g>
</g>
<g>
</g>
<g>
</g>
<g>
</g>
<g>
</g>
<g>
</g>
<g>
</g>
<g>
</g>
<g>
</g>
</svg>
