<?xml version="1.0" encoding="iso-8859-1"?>
<!-- Generator: Adobe Illustrator 19.0.0, SVG Export Plug-In . SVG Version: 6.00 Build 0)  -->
<svg version="1.1" id="Capa_1" xmlns="http://www.w3.org/2000/svg" xmlns:xlink="http://www.w3.org/1999/xlink" x="0px" y="0px"
	 viewBox="0 0 512 512" style="enable-background:new 0 0 512 512;" xml:space="preserve">
<circle style="fill:#FF127F;" cx="256" cy="256" r="256"/>
<path style="fill:#B10853;" d="M512,256c0-24.658-3.496-48.497-10.002-71.06l-78.8-78.804c-2.907-2.866-6.893-4.636-11.299-4.636
	H100.102c-8.909,0-16.131,7.222-16.131,16.131v221.023c0,4.252,1.657,8.108,4.346,10.99H58.811v36.689L169.468,496.99
	C196.498,506.698,225.628,512,256,512C397.385,512,512,397.385,512,256z"/>
<path style="fill:#FFFFFF;" d="M411.898,354.786H100.102c-8.909,0-16.132-7.222-16.132-16.132V117.632
	c0-8.909,7.222-16.132,16.132-16.132h311.796c8.909,0,16.132,7.222,16.132,16.132v221.023
	C428.03,347.564,420.807,354.786,411.898,354.786z"/>
<path style="fill:#FFF5CB;" d="M428.03,117.63v221.02c0,4.24-1.64,8.11-4.32,10.99c-2.95,3.17-7.15,5.15-11.81,5.15H256V101.5h155.9
	C420.81,101.5,428.03,108.72,428.03,117.63z"/>
<rect x="102.81" y="122.42" style="fill:#54FBFF;" width="306.37" height="196.36"/>
<rect x="256" y="122.42" style="fill:#00D9E0;" width="153.18" height="196.35"/>
<rect x="58.811" y="349.64" style="fill:#FFEC97;" width="394.38" height="36.689"/>
<rect x="256" y="349.64" style="fill:#FFE670;" width="197.19" height="36.69"/>
<rect x="181.25" y="349.64" style="fill:#FFD400;" width="149.5" height="18.344"/>
<rect x="256" y="349.64" style="fill:#FDC000;" width="74.75" height="18.35"/>
<g>
</g>
<g>
</g>
<g>
</g>
<g>
</g>
<g>
</g>
<g>
</g>
<g>
</g>
<g>
</g>
<g>
</g>
<g>
</g>
<g>
</g>
<g>
</g>
<g>
</g>
<g>
</g>
<g>
</g>
</svg>
