<svg xmlns="http://www.w3.org/2000/svg" viewBox="0 0 512 512"><circle cx="256" cy="256" r="256" fill="#ff127f"/><path d="M512 256c0-24.658-3.496-48.497-10.002-71.06l-78.8-78.804a16.038 16.038 0 0 0-11.299-4.636H100.102c-8.909 0-16.131 7.222-16.131 16.131v221.023c0 4.252 1.657 8.108 4.346 10.99H58.811v36.689L169.468 496.99C196.498 506.698 225.628 512 256 512c141.385 0 256-114.615 256-256z" fill="#b10853"/><path d="M411.898 354.786H100.102c-8.909 0-16.132-7.222-16.132-16.132V117.632c0-8.909 7.222-16.132 16.132-16.132h311.796c8.909 0 16.132 7.222 16.132 16.132v221.023c0 8.909-7.223 16.131-16.132 16.131z" fill="#fff"/><path d="M428.03 117.63v221.02c0 4.24-1.64 8.11-4.32 10.99a16.085 16.085 0 0 1-11.81 5.15H256V101.5h155.9c8.91 0 16.13 7.22 16.13 16.13z" fill="#fff5cb"/><path fill="#54fbff" d="M102.81 122.42h306.37v196.36H102.81z"/><path fill="#00d9e0" d="M256 122.42h153.18v196.35H256z"/><path fill="#ffec97" d="M58.811 349.64h394.38v36.689H58.811z"/><path fill="#ffe670" d="M256 349.64h197.19v36.69H256z"/><path fill="#ffd400" d="M181.25 349.64h149.5v18.344h-149.5z"/><path fill="#fdc000" d="M256 349.64h74.75v18.35H256z"/></svg>