<svg xmlns="http://www.w3.org/2000/svg" viewBox="0 0 512 512"><circle cx="256" cy="256" r="256" fill="#ffec97"/><path d="M512 256c0-6.126-.229-12.198-.653-18.216l-115.16-115.161C360.938 85.587 311.166 62.5 256 62.5 149.133 62.5 62.5 149.133 62.5 256c0 55.166 23.087 104.938 60.123 140.187 0 0 81.444 81.516 115.115 115.158 6.033.425 12.121.655 18.262.655 141.385 0 256-114.615 256-256z" fill="#ffd400"/><circle cx="256" cy="256" r="193.5" fill="#6d76e7"/><path d="M449.5 256c0 106.863-86.637 193.5-193.5 193.5v-387c106.863 0 193.5 86.637 193.5 193.5z" fill="#1c2ede"/><circle cx="256" cy="256" r="137.49" fill="#fff"/><path d="M393.487 256c0 75.934-61.553 137.487-137.487 137.487V118.513c75.934 0 137.487 61.554 137.487 137.487z" fill="#fff5cb"/><path fill="#57555c" d="M240.21 148.73h31.571v80.8H240.21z"/><path fill="#2a2a2c" d="M256 148.73h15.785v80.79H256z"/><path fill="#00d9e0" d="M232.082 262.646l6.822 10.887-73.361 45.97-6.822-10.887z"/><path fill="#2a2a2c" d="M331.2 308.002l-22.323 22.324-45.36-45.36 22.324-22.323z"/><circle cx="256" cy="256" r="33.608" fill="#ff127f"/><path d="M289.608 256c0 18.566-15.042 33.608-33.608 33.608v-67.216c5.713 0 11.08 1.416 15.785 3.931 10.602 5.652 17.823 16.814 17.823 29.677z" fill="#b10853"/></svg>