<?xml version="1.0" encoding="iso-8859-1"?>
<!-- Generator: Adobe Illustrator 19.0.0, SVG Export Plug-In . SVG Version: 6.00 Build 0)  -->
<svg version="1.1" id="Capa_1" xmlns="http://www.w3.org/2000/svg" xmlns:xlink="http://www.w3.org/1999/xlink" x="0px" y="0px"
	 viewBox="0 0 512 512" style="enable-background:new 0 0 512 512;" xml:space="preserve">
<circle style="fill:#6D76E7;" cx="256" cy="256" r="256"/>
<path style="fill:#1C2EDE;" d="M512,256c0-13.618-1.074-26.984-3.122-40.027L358.232,65.15c-2.178-2.193-4.595-4.203-7.24-5.995
	l-0.23-0.23l-1.717-1.046c-0.026-0.016-0.05-0.033-0.075-0.049l-0.53-0.32l0,0l-9.842-5.996l-62.685,102.893L173.402,51.514
	l-9.842,5.996l-0.527,0.321c0,0,0,0-0.001,0l-1.795,1.094l0.028,0.045c-21.707,14.515-28.302,43.698-14.588,66.21l73.52,120.68
	l-24.928,40.917c-28.774-17.457-66.262-8.329-83.78,20.426L94.374,335.3c-15.651,25.691-10.057,58.352,11.786,77.549
	c0,0,52.831,52.928,92.616,92.724C217.176,509.775,236.327,512,256,512C397.385,512,512,397.385,512,256z"/>
<path style="fill:#FFF5CB;" d="M308.937,296.138l-42.379,25.818L146.678,125.18c-14.082-23.114-6.759-53.268,16.355-67.349
	l0.527-0.321L308.937,296.138z"/>
<polygon style="fill:#FFDF47;" points="308.94,296.13 308.94,296.14 266.56,321.96 256,304.63 256,209.24 257.59,211.86 
	285.05,256.93 "/>
<rect x="232.893" y="34.809" transform="matrix(-0.854 0.5203 -0.5203 -0.854 535.7866 198.6824)" style="fill:#00D9E0;" width="14.244" height="279.424"/>
<polygon style="fill:#00989E;" points="318.78,290.14 308.94,296.13 306.61,297.55 256,214.47 256,187.09 "/>
<path style="fill:#ECB300;" d="M316.63,286.834l-52.124,31.755l48.872,80.22c17.538,28.787,55.092,37.907,83.879,20.369l0,0
	c28.787-17.538,37.907-55.092,20.369-83.879l-17.117-28.096C382.971,278.416,345.418,269.297,316.63,286.834z M394.337,350.435
	c9.561,15.693,4.589,36.165-11.104,45.726l0,0c-15.693,9.56-36.165,4.589-45.726-11.104l-17.958-29.478
	c-9.561-15.693-4.589-36.165,11.104-45.725l0,0c15.693-9.56,36.165-4.589,45.726,11.104L394.337,350.435z"/>
<path style="fill:#FFFFFF;" d="M203.063,296.138l42.379,25.818l119.88-196.776c14.082-23.114,6.759-53.268-16.355-67.349
	l-0.527-0.321L203.063,296.138z"/>
<path style="fill:#FFF5CB;" d="M365.32,125.18L256,304.63v-95.39l92.44-151.73l0.53,0.32c0.6,0.36,1.19,0.74,1.76,1.14
	C372.44,73.47,379.04,102.67,365.32,125.18z"/>
<rect x="264.875" y="34.811" transform="matrix(0.854 0.5203 -0.5203 0.854 130.518 -116.0358)" style="fill:#54FBFF;" width="14.244" height="279.424"/>
<polygon style="fill:#00D9E0;" points="350.76,58.92 350.73,58.97 264.34,200.78 257.59,211.86 256,214.47 256,187.09 338.6,51.51 
	348.44,57.51 348.97,57.83 "/>
<path style="fill:#FFEC97;" d="M111.491,307.203L94.374,335.3c-17.538,28.787-8.418,66.341,20.369,83.879l0,0
	c28.787,17.538,66.341,8.418,83.879-20.369l48.872-80.22l-52.124-31.755C166.582,269.297,129.028,278.416,111.491,307.203z
	 M135.621,320.957c9.561-15.693,30.033-20.664,45.726-11.104l0,0c15.693,9.561,20.664,30.032,11.104,45.725l-17.958,29.478
	c-9.561,15.693-30.033,20.665-45.726,11.104l0,0c-15.693-9.56-20.664-30.033-11.104-45.726L135.621,320.957z"/>
<circle style="fill:#FFAA20;" cx="256" cy="255.19" r="16"/>
<path style="fill:#E67500;" d="M272,255.2c0,8.83-7.16,16-16,16v-32C264.84,239.2,272,246.36,272,255.2z"/>
<g>
</g>
<g>
</g>
<g>
</g>
<g>
</g>
<g>
</g>
<g>
</g>
<g>
</g>
<g>
</g>
<g>
</g>
<g>
</g>
<g>
</g>
<g>
</g>
<g>
</g>
<g>
</g>
<g>
</g>
</svg>
