<svg xmlns="http://www.w3.org/2000/svg" viewBox="0 0 512 512"><circle cx="256" cy="256" r="256" fill="#6d76e7"/><path d="M512 256c0-13.618-1.074-26.984-3.122-40.027L358.232 65.15a48.656 48.656 0 0 0-7.24-5.995l-.23-.23-1.717-1.046-.075-.049-.53-.32-9.842-5.996-62.685 102.893L173.402 51.514l-9.842 5.996-.527.321h-.001l-1.795 1.094.028.045c-21.707 14.515-28.302 43.698-14.588 66.21l73.52 120.68-24.928 40.917c-28.774-17.457-66.262-8.329-83.78 20.426L94.374 335.3c-15.651 25.691-10.057 58.352 11.786 77.549 0 0 52.831 52.928 92.616 92.724C217.176 509.775 236.327 512 256 512c141.385 0 256-114.615 256-256z" fill="#1c2ede"/><path d="M308.937 296.138l-42.379 25.818-119.88-196.776c-14.082-23.114-6.759-53.268 16.355-67.349l.527-.321 145.377 238.628z" fill="#fff5cb"/><path fill="#ffdf47" d="M308.94 296.13v.01l-42.38 25.82L256 304.63v-95.39l1.59 2.62 27.46 45.07z"/><path fill="#00d9e0" d="M318.785 290.13l-12.165 7.41L161.236 58.914l12.165-7.411z"/><path fill="#00989e" d="M318.78 290.14l-9.84 5.99-2.33 1.42L256 214.47v-27.38z"/><path d="M316.63 286.834l-52.124 31.755 48.872 80.22c17.538 28.787 55.092 37.907 83.879 20.369 28.787-17.538 37.907-55.092 20.369-83.879l-17.117-28.096c-17.538-28.787-55.091-37.906-83.879-20.369zm77.707 63.601c9.561 15.693 4.589 36.165-11.104 45.726-15.693 9.56-36.165 4.589-45.726-11.104l-17.958-29.478c-9.561-15.693-4.589-36.165 11.104-45.725 15.693-9.56 36.165-4.589 45.726 11.104l17.958 29.477z" fill="#ecb300"/><path d="M203.063 296.138l42.379 25.818 119.88-196.776c14.082-23.114 6.759-53.268-16.355-67.349l-.527-.321-145.377 238.628z" fill="#fff"/><path d="M365.32 125.18L256 304.63v-95.39l92.44-151.73.53.32c.6.36 1.19.74 1.76 1.14 21.71 14.5 28.31 43.7 14.59 66.21z" fill="#fff5cb"/><path fill="#54fbff" d="M338.61 51.507l12.163 7.411L205.39 297.547l-12.164-7.412z"/><path fill="#00d9e0" d="M350.76 58.92l-.03.05-86.39 141.81-6.75 11.08-1.59 2.61v-27.38l82.6-135.58 9.84 6 .53.32z"/><path d="M111.491 307.203L94.374 335.3c-17.538 28.787-8.418 66.341 20.369 83.879 28.787 17.538 66.341 8.418 83.879-20.369l48.872-80.22-52.124-31.755c-28.788-17.538-66.342-8.419-83.879 20.368zm24.13 13.754c9.561-15.693 30.033-20.664 45.726-11.104 15.693 9.561 20.664 30.032 11.104 45.725l-17.958 29.478c-9.561 15.693-30.033 20.665-45.726 11.104-15.693-9.56-20.664-30.033-11.104-45.726l17.958-29.477z" fill="#ffec97"/><circle cx="256" cy="255.19" r="16" fill="#ffaa20"/><path d="M272 255.2c0 8.83-7.16 16-16 16v-32c8.84 0 16 7.16 16 16z" fill="#e67500"/></svg>