<svg xmlns="http://www.w3.org/2000/svg" height="512" width="512"><path d="M512 256c0 141.387-114.613 256-256 256S0 397.387 0 256 114.613 0 256 0s256 114.613 256 256zm0 0" fill="#fbd504" data-original="#C8C6CC" data-old_color="#FFD800"/><path d="M512 256c0-13.672-1.086-27.09-3.148-40.18L362.066 69.035 69.036 362.066 215.82 508.852A258.003 258.003 0 0 0 256 512c141.387 0 256-114.613 256-256zm0 0" fill="#e4c800" data-original="#AEADB3" class="active-path" data-old_color="#D8BE00"/><path d="M362.066 69.031l80.899 80.899-293.031 293.03-80.899-80.897zm0 0" fill="#fff" data-original="#FFF"/><path d="M109.48 402.516l293.032-293.032 40.445 40.446-293.031 293.03zm0 0" fill="#fff5cb" data-original="#FFF5CB"/><path d="M304.578 379.953L177.863 253.238l75.375-75.375 126.715 126.715-63.613 11.762zm0 0" fill="#e80c6a" data-original="#E80C6A"/><path d="M253.238 177.863l80.895 80.895-75.371 75.37-80.895-80.894zm0 0" fill="#ff73af" data-original="#FF73AF"/><path d="M218.309 293.688l75.375-75.375 40.445 40.449-75.371 75.37zm0 0" fill="#ff328e" data-original="#FF328E"/></svg>
