<svg xmlns="http://www.w3.org/2000/svg" height="512" width="512"><path d="M512 256c0 141.387-114.613 256-256 256S0 397.387 0 256 114.613 0 256 0s256 114.613 256 256zm0 0" fill="#fc502d" data-original="#E1E1E3" data-old_color="#FD4A25"/><path d="M512 256a257.47 257.47 0 0 0-4.04-45.523l-99.347-99.348C397.602 97.91 381.02 89.492 362.47 89.492H149.53c-33.156 0-60.035 26.88-60.035 60.035V362.47c0 18.547 8.418 35.129 21.637 46.14l99.351 99.356A257.75 257.75 0 0 0 256 512c141.387 0 256-114.613 256-256zm0 0" fill="#ce3415" data-original="#C8C6CC" data-old_color="#DA4426"/><path d="M256 89.492H149.531c-33.156 0-60.035 26.88-60.035 60.035v106.47H256zm0 0" fill="#00dfc1" data-original="#00DFC1"/><path d="M256 255.996h-47.621c0-21.738-15.953-39.36-35.633-39.36-19.676 0-35.629 17.622-35.629 39.36h-47.62V362.47c0 33.152 26.878 60.031 60.034 60.031H256zm0 0" fill="#ff52a1" data-original="#FF52A1"/><path d="M422.504 255.992v106.48c0 33.157-26.879 60.036-60.035 60.036H256v-47.621c-21.742 0-39.355-15.957-39.355-35.637s17.613-35.637 39.355-35.637v-47.62zm0 0" fill="#9331b2" data-original="#9331B2"/><path d="M422.504 255.992v106.48c0 33.157-26.879 60.036-60.035 60.036H256V255.992zm0 0" fill="#681f7b" data-original="#681F7B"/><path d="M256 89.492h106.473c33.156 0 60.03 26.88 60.03 60.035v106.47h-48.237c0 21.737-15.954 39.362-35.63 39.362-19.679 0-35.632-17.625-35.632-39.363H256zm0 0" fill="#fff700" data-original="#FF8900" class="active-path" data-old_color="#FF8900"/><path d="M256 137.113v71.262c21.738 0 39.363-15.95 39.363-35.629-.004-19.68-17.625-35.633-39.363-35.633zm0 0" fill="#00ad95" data-original="#00AD95"/></svg>