<svg xmlns="http://www.w3.org/2000/svg" height="512" width="512"><path d="M512 256c0 141.387-114.613 256-256 256S0 397.387 0 256 114.613 0 256 0s256 114.613 256 256zm0 0" fill="#00ff9e" data-original="#00EFD1" data-old_color="#00FFA5"/><path d="M512 256c0-30.234-5.258-59.242-14.883-86.168l-85.629-85.633h-112.59l-25.27 60.785-60.546-60.789h-112.57l64.777 155.813c-22.148 22.781-35.793 53.875-35.793 88.16 0 36.766 15.692 69.867 40.738 92.98 0 0 47.621 47.676 90.711 90.79C400.047 509.3 512 395.73 512 256zm0 0" fill="#04d284" data-original="#00CEB4" class="active-path" data-old_color="#0DB877"/><path d="M312.281 322.777H199.703L100.512 84.195h112.57l42.91 103.2zm0 0" fill="#b857cf" data-original="#B857CF"/><path d="M411.484 84.195l-99.203 238.582h-112.57l56.281-135.382 42.91-103.2zm0 0" fill="#9330b2" data-original="#9330B2"/><path d="M411.488 84.2L312.29 322.78h-56.293V187.398L298.898 84.2zm0 0" fill="#681f7b" data-original="#681F7B"/><path d="M382.496 328.168c0 69.863-56.637 126.5-126.5 126.5s-126.5-56.637-126.5-126.5 56.637-126.5 126.5-126.5 126.5 56.637 126.5 126.5zm0 0" fill="#ffaa20" data-original="#FFAA20"/><path d="M382.496 328.172c0 69.86-56.64 126.5-126.5 126.5v-253c69.863 0 126.5 56.629 126.5 126.5zm0 0" fill="#ff8900" data-original="#FF8900"/><path d="M347.016 328.168c0 50.266-40.75 91.016-91.02 91.016-50.266 0-91.016-40.75-91.016-91.016 0-50.27 40.75-91.02 91.016-91.02 50.27 0 91.02 40.75 91.02 91.02zm0 0" fill="#ffd400" data-original="#FFD400"/><path d="M347.016 328.172c0 50.258-40.75 91.008-91.02 91.008V237.148c50.27 0 91.02 40.75 91.02 91.024zm0 0" fill="#fec000" data-original="#FEC000"/><path d="M255.996 255.871l21.129 42.813 47.246 6.867-34.187 33.324 8.07 47.055-42.258-22.215-42.258 22.215 8.07-47.055-34.187-33.324 47.246-6.867zm0 0" fill="#ffaa20" data-original="#FFAA20"/><path d="M290.188 338.871l8.07 47.059-42.262-22.22V255.872l21.133 42.82 47.238 6.86zm0 0" fill="#ff8900" data-original="#FF8900"/></svg>