<svg xmlns="http://www.w3.org/2000/svg" height="512" width="512"><path d="M512 256c0 141.387-114.613 256-256 256S0 397.387 0 256 114.613 0 256 0s256 114.613 256 256zm0 0" fill="#4747f4" data-original="#E1E1E3" data-old_color="#4848F4"/><path d="M512 256c0-23.035-3.059-45.352-8.766-66.586L393.031 79.211l-59.617-4.145 5.574 12.036L77.254 208.387l13.082 28.234 24.445 24.574h-4.976v98.313H77.254v35.426l106.8 106.8C206.88 508.406 231.02 512 256 512c141.387 0 256-114.613 256-256zm0 0" fill="#2a2af0" data-original="#C8C6CC" class="active-path" data-old_color="#3535EF"/><path d="M109.805 261.195h79.203v106.88h-79.203zm0 0" fill="#ff52a1" data-original="#FF52A1"/><path d="M209.398 208.996h79.204v159.078h-79.204zm0 0" fill="#ffaa20" data-original="#FFAA20"/><path d="M249 209h39.602v159.078H249zm0 0" fill="#e67500" data-original="#E67500"/><path d="M308.992 152.094h79.203v215.98h-79.203zm0 0" fill="#e80c6a" data-original="#E80C6A"/><path d="M77.254 359.508h343.492v35.426H77.254zm0 0" fill="#9331b2" data-original="#9331B2"/><path d="M249 359.512h171.75v35.418H249zm0 0" fill="#681f7b" data-original="#681F7B"/><path d="M393.031 79.21l-59.617-4.144 5.574 12.036L77.254 208.387l13.082 28.234 261.738-121.285 5.574 12.035zm0 0" fill="#00ceb4" data-original="#00CEB4"/><path d="M393.031 79.21l-35.383 48.161-5.578-12.031L249 163.102V128.8l89.988-41.7-5.578-12.03zm0 0" fill="#00ad95" data-original="#00AD95"/></svg>