<?xml version="1.0" encoding="UTF-8" standalone="no"?>
<svg
   xmlns:dc="http://purl.org/dc/elements/1.1/"
   xmlns:cc="http://creativecommons.org/ns#"
   xmlns:rdf="http://www.w3.org/1999/02/22-rdf-syntax-ns#"
   xmlns:svg="http://www.w3.org/2000/svg"
   xmlns="http://www.w3.org/2000/svg"
   xmlns:sodipodi="http://sodipodi.sourceforge.net/DTD/sodipodi-0.dtd"
   xmlns:inkscape="http://www.inkscape.org/namespaces/inkscape"
   enable-background="new 0 0 91 91"
   height="70.635002"
   id="Layer_1"
   version="1.1"
   viewBox="0 0 88.128998 70.635002"
   width="88.128998"
   xml:space="preserve"
   sodipodi:docname="section-projects.svg"
   inkscape:version="0.92.3 (2405546, 2018-03-11)"><metadata
     id="metadata104"><rdf:RDF><cc:Work
         rdf:about=""><dc:format>image/svg+xml</dc:format><dc:type
           rdf:resource="http://purl.org/dc/dcmitype/StillImage" /><dc:title></dc:title></cc:Work></rdf:RDF></metadata><defs
     id="defs102" /><sodipodi:namedview
     pagecolor="#ffffff"
     bordercolor="#666666"
     borderopacity="1"
     objecttolerance="10"
     gridtolerance="10"
     guidetolerance="10"
     inkscape:pageopacity="0"
     inkscape:pageshadow="2"
     inkscape:window-width="640"
     inkscape:window-height="480"
     id="namedview100"
     showgrid="false"
     fit-margin-top="0"
     fit-margin-left="0"
     fit-margin-right="0"
     fit-margin-bottom="0"
     inkscape:zoom="3.4175824"
     inkscape:cx="43.627"
     inkscape:cy="34.333"
     inkscape:window-x="0"
     inkscape:window-y="0"
     inkscape:window-maximized="1"
     inkscape:current-layer="Layer_1" /><g
     id="g97"
     transform="translate(-1.873,-9.198)"><g
       id="g95"><path
         d="m 77.922,59.847 c -1.385,0 -2.506,-1.119 -2.506,-2.504 V 45.341 H 16.455 v 12.002 c 0,1.385 -1.121,2.504 -2.504,2.504 -1.385,0 -2.506,-1.119 -2.506,-2.504 V 42.835 c 0,-1.383 1.121,-2.504 2.506,-2.504 h 63.971 c 1.383,0 2.504,1.121 2.504,2.504 v 14.508 c 0,1.385 -1.121,2.504 -2.504,2.504 z"
         id="path81"
         inkscape:connector-curvature="0"
         style="fill:#647f94" /><path
         d="m 45.938,59.847 c -1.385,0 -2.506,-1.119 -2.506,-2.504 V 30.544 c 0,-1.385 1.121,-2.504 2.506,-2.504 1.383,0 2.504,1.119 2.504,2.504 v 26.799 c -10e-4,1.385 -1.122,2.504 -2.504,2.504 z"
         id="path83"
         inkscape:connector-curvature="0"
         style="fill:#647f94" /><g
         id="g91"><path
           d="m 13.947,55.673 c -6.658,0 -12.074,5.418 -12.074,12.08 0,6.662 5.416,12.08 12.074,12.08 6.664,0 12.086,-5.418 12.086,-12.08 0,-6.662 -5.422,-12.08 -12.086,-12.08 z"
           id="path85"
           inkscape:connector-curvature="0"
           style="fill:#45596b" /><path
           d="m 45.82,55.673 c -6.658,0 -12.078,5.418 -12.078,12.08 0,6.662 5.42,12.08 12.078,12.08 6.662,0 12.08,-5.418 12.08,-12.08 0,-6.662 -5.418,-12.08 -12.08,-12.08 z"
           id="path87"
           inkscape:connector-curvature="0"
           style="fill:#45596b" /><path
           d="m 77.92,55.673 c -6.66,0 -12.078,5.418 -12.078,12.08 0,6.662 5.418,12.08 12.078,12.08 6.662,0 12.082,-5.418 12.082,-12.08 0,-6.662 -5.42,-12.08 -12.082,-12.08 z"
           id="path89"
           inkscape:connector-curvature="0"
           style="fill:#45596b" /></g><path
         d="M 59.094,9.198 H 32.549 c -1.383,0 -2.504,1.121 -2.504,2.504 v 18.84 c 0,1.383 1.121,2.506 2.504,2.506 h 26.545 c 1.383,0 2.504,-1.123 2.504,-2.506 v -18.84 c 0,-1.383 -1.121,-2.504 -2.504,-2.504 z"
         id="path93"
         inkscape:connector-curvature="0"
         style="fill:#6ec4a7" /></g></g></svg>