<svg xmlns="http://www.w3.org/2000/svg" height="512pt" viewBox="0 0 512 512" width="512pt"><path d="M512 256c0 141.387-114.613 256-256 256S0 397.387 0 256 114.613 0 256 0s256 114.613 256 256zm0 0" fill="#ffe955"/><path d="M512 256c0 26.05-3.89 51.191-11.129 74.871C468.86 435.72 371.328 512 256 512c-104.559 0-194.488-62.7-234.23-152.55C7.77 327.82 0 292.82 0 256c0-46.219 12.25-89.57 33.68-127C77.8 206.07 160.84 258 256 258s178.21-51.93 222.32-129C499.75 166.43 512 209.781 512 256zm0 0" fill="#ffd112"/><path d="M30.742 377.703a256.084 256.084 0 0 0 24.719 37.426C102.359 474.149 174.76 512 256 512c81.238 0 153.64-37.852 200.54-96.871a256.084 256.084 0 0 0 24.718-37.426zm0 0" fill="#ff9f00"/><path d="M351.809 146.148v347.313C322.219 505.42 289.879 512 256.012 512H256a256.85 256.85 0 0 1-50.18-4.922 252.946 252.946 0 0 1-45.629-13.617V146.148zm0 0" fill="#fff"/><path d="M351.809 146.148v347.313C322.219 505.42 289.879 512 256.012 512H256a256.85 256.85 0 0 1-50.18-4.922v-360.93zm0 0" fill="#d0f6ff"/><path d="M351.809 146.148v347.313C322.219 505.42 289.879 512 256.012 512V146.148zm0 0" fill="#8fc9f7"/><path d="M351.809 146.148v.04c-.051 21.132-42.918 38.265-95.797 38.265-18.399 0-35.594-2.082-50.196-5.672-27.035-6.66-45.18-18.543-45.617-32.117-.012-.168-.012-.348-.012-.512 0-21.16 42.91-38.3 95.825-38.3 52.918 0 95.797 17.14 95.797 38.296zm0 0" fill="#8fc9f7"/><path d="M351.809 146.148v.04c-.051 21.132-42.918 38.265-95.797 38.265-18.399 0-35.594-2.082-50.196-5.672v-32.629H351.81zm0 0" fill="#0f9be8"/><path d="M351.809 146.148v.028c0 .207-.012.41-.024.601l-.039.465c-1.426 15.602-33.516 28.086-72.922 28.086-10.804 0-21.043-.937-30.27-2.617-24.929-4.543-42.355-14.54-42.726-26.176-.012-.113-.012-.258-.012-.387 0-16.113 32.692-29.175 73.008-29.175 40.317 0 72.985 13.062 72.985 29.175zm0 0" fill="#65b2ff"/><path d="M300.191 166.781c-19.011 0-35.617-4.105-44.578-10.222v17.261c7.293.977 15.094 1.508 23.211 1.508 39.406 0 71.496-12.484 72.922-28.09-1.41 10.883-23.941 19.543-51.555 19.543zm0 0" fill="#0066e8"/><path d="M351.813 311.2v66.78c0 21.149-42.891 38.297-95.805 38.297-18.403 0-35.594-2.074-50.192-5.668-27.375-6.746-45.625-18.84-45.625-32.629V311.2c0 13.788 18.25 25.886 45.625 32.632 14.598 3.594 31.79 5.668 50.192 5.668 52.914 0 95.805-17.152 95.805-38.3zm0 0" fill="#ff3445"/><path d="M351.813 311.2v66.78c0 21.149-42.891 38.297-95.805 38.297-18.403 0-35.594-2.074-50.192-5.668v-66.777c14.598 3.594 31.79 5.668 50.192 5.668 52.914 0 95.805-17.152 95.805-38.3zm0 0" fill="#dd1265"/><path d="M399.426 388.688l7.86 45.785-79.977-71.75 14.425-24.504 101.54 35.133zm0 0" fill="#dd1265"/><path d="M407.285 434.473l-79.976-71.75 7.214-12.254 64.903 38.219zm0 0" fill="#ba0d5c"/><path d="M410.938 311.176l43.37 16.637-102.535 32.097-13.695-24.922 82.07-69.34zm0 0" fill="#dd1265"/><path d="M454.309 327.813L351.773 359.91l-6.847-12.46 66.012-36.274zm0 0" fill="#ff3445"/><path d="M351.813 311.2v66.78c0 21.149-42.891 38.297-95.805 38.297V349.5c52.914 0 95.805-17.152 95.805-38.3zm0 0" fill="#ba0d5c"/></svg>