<?xml version="1.0" encoding="UTF-8" standalone="no"?>
<svg
   xmlns:dc="http://purl.org/dc/elements/1.1/"
   xmlns:cc="http://creativecommons.org/ns#"
   xmlns:rdf="http://www.w3.org/1999/02/22-rdf-syntax-ns#"
   xmlns:svg="http://www.w3.org/2000/svg"
   xmlns="http://www.w3.org/2000/svg"
   xmlns:sodipodi="http://sodipodi.sourceforge.net/DTD/sodipodi-0.dtd"
   xmlns:inkscape="http://www.inkscape.org/namespaces/inkscape"
   enable-background="new 0 0 91 91"
   height="85.997002"
   id="Layer_1"
   version="1.1"
   viewBox="0 0 89.57 85.997002"
   width="89.57"
   xml:space="preserve"
   sodipodi:docname="section-awards.svg"
   inkscape:version="0.92.3 (2405546, 2018-03-11)"><metadata
     id="metadata166"><rdf:RDF><cc:Work
         rdf:about=""><dc:format>image/svg+xml</dc:format><dc:type
           rdf:resource="http://purl.org/dc/dcmitype/StillImage" /><dc:title></dc:title></cc:Work></rdf:RDF></metadata><defs
     id="defs164" /><sodipodi:namedview
     pagecolor="#ffffff"
     bordercolor="#666666"
     borderopacity="1"
     objecttolerance="10"
     gridtolerance="10"
     guidetolerance="10"
     inkscape:pageopacity="0"
     inkscape:pageshadow="2"
     inkscape:window-width="640"
     inkscape:window-height="480"
     id="namedview162"
     showgrid="false"
     fit-margin-top="0"
     fit-margin-left="0"
     fit-margin-right="0"
     fit-margin-bottom="0"
     inkscape:zoom="3.4175824"
     inkscape:cx="44.75"
     inkscape:cy="42.995"
     inkscape:window-x="0"
     inkscape:window-y="0"
     inkscape:window-maximized="1"
     inkscape:current-layer="Layer_1" /><g
     id="g159"
     transform="translate(-0.75,-2.4979999)"><g
       id="g157"><path
         d="M 16.084,38.938 H 15.752 C 7.481,38.938 0.75,32.258 0.75,24.05 V 11.007 c 0,-1.846 1.494,-3.34 3.342,-3.34 h 14.494 c 1.844,0 3.34,1.494 3.34,3.34 v 23.664 c 0.018,0.266 0.027,0.424 0.029,0.586 0.025,1.588 -1.072,2.975 -2.625,3.314 -1.129,0.248 -2.191,0.367 -3.246,0.367 z M 7.432,14.347 v 9.703 c 0,4.359 3.461,7.935 7.814,8.193 V 14.347 Z"
         id="path141"
         inkscape:connector-curvature="0"
         style="fill:#45596b" /><path
         d="m 18.615,37.769 c -1.34,0 -2.438,-1.076 -2.459,-2.424 -0.02,-0.334 -0.029,-0.502 -0.029,-0.674 V 11.007 c 0,-1.359 1.1,-2.459 2.459,-2.459 1.357,0 2.459,1.1 2.459,2.459 l 0.01,23.832 c 0.01,0.145 0.018,0.287 0.02,0.432 0.021,1.359 -1.063,2.477 -2.42,2.498 -0.014,0 -0.026,0 -0.04,0 z"
         id="path143"
         inkscape:connector-curvature="0"
         style="fill:#647f94" /><path
         d="m 75.32,38.938 h -0.332 c -1.057,0 -2.121,-0.119 -3.25,-0.367 -1.572,-0.342 -2.678,-1.756 -2.629,-3.363 0.004,-0.152 0.016,-0.303 0.027,-0.453 l 0.01,-23.748 c 0,-1.846 1.494,-3.34 3.34,-3.34 H 86.98 c 1.844,0 3.34,1.494 3.34,3.34 V 24.05 c 0,8.209 -6.728,14.888 -15,14.888 z M 75.826,14.347 V 32.243 C 80.178,31.985 83.64,28.41 83.64,24.05 v -9.703 z"
         id="path145"
         inkscape:connector-curvature="0"
         style="fill:#45596b" /><path
         d="m 45.535,88.495 c -1.844,0 -3.342,-1.496 -3.342,-3.34 V 58.304 c 0,-1.842 1.498,-3.34 3.342,-3.34 1.846,0 3.34,1.498 3.34,3.34 v 26.852 c 0,1.843 -1.494,3.339 -3.34,3.339 z"
         id="path147"
         inkscape:connector-curvature="0"
         style="fill:#45596b" /><path
         d="M 60.531,88.495 H 30.537 c -1.844,0 -3.34,-1.496 -3.34,-3.34 0,-1.846 1.496,-3.34 3.34,-3.34 h 29.994 c 1.844,0 3.34,1.494 3.34,3.34 0,1.844 -1.496,3.34 -3.34,3.34 z"
         id="path149"
         inkscape:connector-curvature="0"
         style="fill:#45596b" /><g
         id="g155"><path
           d="M 72.486,2.498 H 46.66 v 29.195 c 0,1.357 -1.104,2.459 -2.459,2.459 H 30.537 c -1.357,0 -2.459,-1.102 -2.459,-2.459 V 2.498 h -9.492 c -1.359,0 -2.463,1.098 -2.463,2.459 l 0.033,30.412 c 0.365,14.955 12.287,25.398 29,25.398 h 0.756 c 16.711,0 28.635,-10.443 28.994,-25.453 L 74.945,4.957 c 0,-1.362 -1.101,-2.459 -2.459,-2.459 z"
           id="path151"
           inkscape:connector-curvature="0"
           style="fill:#647f94" /><rect
           height="26.733999"
           width="8.7440004"
           x="32.995998"
           y="2.4979999"
           id="rect153"
           style="fill:#6ec4a7" /></g></g></g></svg>