<svg xmlns="http://www.w3.org/2000/svg" height="512pt" viewBox="0 0 512 512" width="512pt"><path d="M512 256c0 141.387-114.613 256-256 256S0 397.387 0 256 114.613 0 256 0s256 114.613 256 256zm0 0" fill="#b5e237"/><path d="M512 256c0 26.05-3.89 51.191-11.129 74.871C468.86 435.72 371.328 512 256 512c-104.559 0-194.488-62.7-234.23-152.55C7.77 327.82 0 292.82 0 256c0-46.219 12.25-89.57 33.68-127C77.8 206.07 160.84 258 256 258s178.21-51.93 222.32-129C499.75 166.43 512 209.781 512 256zm0 0" fill="#95d600"/><path d="M30.742 377.703a256.084 256.084 0 0 0 24.719 37.426C102.359 474.149 174.76 512 256 512c81.238 0 153.64-37.852 200.54-96.871a256.084 256.084 0 0 0 24.718-37.426zm0 0" fill="#85af12"/><path d="M487 193.371V366.45c-4.45 9.313-9.45 18.301-14.96 26.942h-247.2V193.37zm0 0" fill="#747e9e"/><path d="M200.71 227.68v107.57c.74.14 1.462.281 2.188.43.641.129 1.274.27 1.903.41.699.148 1.398.308 2.097.48.07.008.133.032.204.051v.188c0 .441-.012.87-.032 1.3-.011.352-.03.7-.058 1.051-.012.149-.024.3-.043.442-.028.367-.07.738-.117 1.109-.051.418-.114.848-.192 1.27-.07.417-.148.828-.238 1.25-.082.41-.184.82-.281 1.23-.11.398-.22.809-.352 1.21-.117.4-.25.798-.39 1.188a28.406 28.406 0 0 1-1.438 3.442c-.14.277-.27.55-.422.82-.07.16-.16.309-.25.457-.078.152-.16.3-.25.453a31.035 31.035 0 0 1-2.328 3.48v20.509l2.039.73 17.012-18.719 5.078-5.601V227.68zm0 0v107.57c.74.14 1.462.281 2.188.43.641.129 1.274.27 1.903.41.699.148 1.398.308 2.097.48.07.008.133.032.204.051v.188c0 .441-.012.87-.032 1.3-.011.352-.03.7-.058 1.051-.012.149-.024.3-.043.442-.028.367-.07.738-.117 1.109-.051.418-.114.848-.192 1.27-.07.417-.148.828-.238 1.25-.082.41-.184.82-.281 1.23-.11.398-.22.809-.352 1.21-.117.4-.25.798-.39 1.188a28.406 28.406 0 0 1-1.438 3.442c-.14.277-.27.55-.422.82-.07.16-.16.309-.25.457-.078.152-.16.3-.25.453a31.035 31.035 0 0 1-2.328 3.48v20.509l2.039.73 17.012-18.719 5.078-5.601V227.68zM512 256c0-30.02-5.172-58.828-14.672-85.59H200.711v245.942h254.86a256.23 256.23 0 0 0 16.468-22.961h-247.2V193.37H487V366.45c16.031-33.437 25-70.898 25-110.449zm-311.29-28.32v107.57c.74.14 1.462.281 2.188.43.641.129 1.274.27 1.903.41.699.148 1.398.308 2.097.48.07.008.133.032.204.051v.188c0 .441-.012.87-.032 1.3-.011.352-.03.7-.058 1.051-.012.149-.024.3-.043.442-.028.367-.07.738-.117 1.109-.051.418-.114.848-.192 1.27-.07.417-.148.828-.238 1.25-.082.41-.184.82-.281 1.23-.11.398-.22.809-.352 1.21-.117.4-.25.798-.39 1.188a28.406 28.406 0 0 1-1.438 3.442c-.14.277-.27.55-.422.82-.07.16-.16.309-.25.457-.078.152-.16.3-.25.453a31.035 31.035 0 0 1-2.328 3.48v20.509l2.039.73 17.012-18.719 5.078-5.601V227.68zm0 0v107.57c.74.14 1.462.281 2.188.43.641.129 1.274.27 1.903.41.699.148 1.398.308 2.097.48.07.008.133.032.204.051v.188c0 .441-.012.87-.032 1.3-.011.352-.03.7-.058 1.051-.012.149-.024.3-.043.442-.028.367-.07.738-.117 1.109-.051.418-.114.848-.192 1.27-.07.417-.148.828-.238 1.25-.082.41-.184.82-.281 1.23-.11.398-.22.809-.352 1.21-.117.4-.25.798-.39 1.188a28.406 28.406 0 0 1-1.438 3.442c-.14.277-.27.55-.422.82-.07.16-.16.309-.25.457-.078.152-.16.3-.25.453a31.035 31.035 0 0 1-2.328 3.48v20.509l2.039.73 17.012-18.719 5.078-5.601V227.68zm0 0v107.57c.74.14 1.462.281 2.188.43.641.129 1.274.27 1.903.41.699.148 1.398.308 2.097.48.07.008.133.032.204.051v.188c0 .441-.012.87-.032 1.3-.011.352-.03.7-.058 1.051-.012.149-.024.3-.043.442-.028.367-.07.738-.117 1.109-.051.418-.114.848-.192 1.27-.07.417-.148.828-.238 1.25a33.36 33.36 0 0 1-.633 2.44c-.117.4-.25.798-.39 1.188a28.406 28.406 0 0 1-1.438 3.442c-.14.277-.27.55-.422.82-.07.16-.16.309-.25.457-.078.152-.16.3-.25.453a31.035 31.035 0 0 1-2.328 3.48v20.509l2.039.73 17.012-18.719 5.078-5.601V227.68zm0 0" fill="#323b5a"/><path d="M487 193.371V366.45c-4.45 9.313-9.45 18.301-14.96 26.942H356.78V193.37zm0 0" fill="#474f6f"/><path d="M296.3 312.602v-33.985h25.2v5.75h-18.336v7.535h17.063v5.727h-17.063v9.246h18.984v5.727zm0 0M339.672 293.688v-5.985h23.762v5.985zm0 10.289v-6.004h23.762v6.004zm0 0M381.54 287.984h6.003v3.36c2.148-2.614 4.707-3.918 7.676-3.918 1.574 0 2.941.324 4.101.972 1.16.653 2.11 1.633 2.852 2.946 1.082-1.313 2.25-2.293 3.5-2.946a8.606 8.606 0 0 1 4.012-.972c1.804 0 3.336.367 4.59 1.101 1.25.735 2.183 1.813 2.804 3.235.445 1.05.672 2.75.672 5.097v15.743h-6.516v-14.07c0-2.442-.222-4.02-.671-4.731-.602-.926-1.532-1.39-2.782-1.39-.914 0-1.77.276-2.574.835-.805.555-1.383 1.371-1.738 2.445-.356 1.075-.531 2.77-.531 5.086v11.825h-6.516v-13.493c0-2.394-.117-3.941-.348-4.636-.23-.696-.59-1.211-1.078-1.551-.488-.34-1.148-.512-1.98-.512-1.008 0-1.91.274-2.715.813-.805.539-1.38 1.32-1.727 2.34-.347 1.023-.52 2.714-.52 5.078v11.96h-6.515zm0 0M446.031 300.105l6.653 2.114c-1.02 3.707-2.715 6.46-5.09 8.261-2.371 1.801-5.38 2.704-9.028 2.704-4.511 0-8.222-1.543-11.128-4.625-2.907-3.086-4.356-7.301-4.356-12.649 0-5.656 1.457-10.047 4.379-13.176 2.922-3.132 6.762-4.695 11.523-4.695 4.157 0 7.532 1.227 10.13 3.684 1.542 1.453 2.702 3.539 3.476 6.261l-6.793 1.621c-.402-1.761-1.238-3.152-2.516-4.171-1.273-1.024-2.82-1.532-4.644-1.532-2.52 0-4.567.903-6.133 2.711-1.57 1.809-2.356 4.739-2.356 8.785 0 4.297.774 7.36 2.32 9.18 1.544 1.824 3.555 2.738 6.028 2.738 1.82 0 3.39-.582 4.703-1.738 1.317-1.16 2.262-2.984 2.832-5.473zm0 0M466.309 283.227v2.53h-9.555a6.595 6.595 0 0 1 .93-2.722c.52-.855 1.539-1.992 3.066-3.406 1.23-1.149 1.984-1.922 2.262-2.328.375-.567.562-1.121.562-1.672 0-.606-.164-1.074-.488-1.402-.328-.325-.781-.489-1.356-.489-.57 0-1.02.172-1.359.516-.336.34-.527.91-.582 1.707l-2.715-.274c.164-1.5.668-2.578 1.524-3.23.855-.652 1.922-.98 3.203-.98 1.402 0 2.504.378 3.304 1.136.805.754 1.204 1.696 1.204 2.82 0 .641-.114 1.25-.344 1.833-.23.578-.594 1.183-1.09 1.816-.328.422-.926 1.027-1.785 1.816-.86.79-1.406 1.313-1.633 1.57a4.52 4.52 0 0 0-.559.759zm0 0" fill="#fff"/><path d="M306.61 463.121v43.867C290.25 510.281 273.327 512 256 512c-.55 0-1.11 0-1.66-.012-26.77-.168-52.55-4.437-76.762-12.226-48.668-15.64-90.988-45.461-122.09-84.59 8.89-22.434 23.84-41.8 42.84-56.094a130.686 130.686 0 0 1 24.422-14.508 132.658 132.658 0 0 1 11.05-4.422h.009a126.753 126.753 0 0 1 12.101-3.539c4.16-1 8.39-1.808 12.692-2.398 5.847-.8 11.82-1.223 17.886-1.223h.012c.36 0 .719 0 1.078.012 6.031.05 11.98.512 17.793 1.36h.008c.8.12 1.59.242 2.383.37.789.13 1.578.258 2.36.41.198.032.398.07.589.11.738.14 1.46.281 2.187.43.641.129 1.274.27 1.903.41.699.148 1.398.308 2.097.48.07.008.133.032.204.051.058.008.117.027.168.04.62.148 1.242.308 1.851.46 3.008.777 5.98 1.66 8.89 2.64.31.11.618.208.919.317a86.02 86.02 0 0 1 3.011 1.082c.598.219 1.2.45 1.79.68.37.14.738.289 1.109.441.332.13.66.258.98.399 1.551.629 3.09 1.289 4.602 1.992.348.148.7.308 1.039.469.02.007.05.02.07.039.43.191.84.39 1.25.59.11.05.219.101.32.152.098.047.2.098.297.148.622.309 1.243.61 1.852.918.27.133.55.274.82.422.27.14.54.281.809.418.152.082.3.16.45.242.273.13.53.27.792.418.258.14.52.282.777.434h.012c.602.316 1.192.656 1.79 1h.01c.911.508 1.81 1.039 2.712 1.59.027.02.066.039.098.058.242.149.48.301.718.442 0 .008.012.008.012.008.59.351 1.172.718 1.75 1.082.27.168.531.34.79.507.081.051.151.09.222.141.25.16.488.309.718.469.57.37 1.13.75 1.7 1.133.011.007.02.02.039.027.562.383 1.11.762 1.66 1.152.562.39 1.121.79 1.68 1.188.18.133.37.27.55.41.301.23.61.45.922.68.598.453 1.207.91 1.809 1.37a130.616 130.616 0 0 1 30.281 33.212c4.52 7.109 8.367 14.68 11.457 22.648.043.102.082.211.121.313 5.59 14.507 8.66 30.277 8.66 46.77zm0 0" fill="#0f9be8"/><path d="M306.61 463.121v43.867C290.25 510.281 273.327 512 256 512c-.55 0-1.11 0-1.66-.012-26.77-.168-52.55-4.437-76.762-12.226V333c6.031.05 11.98.512 17.793 1.36h.008c.8.12 1.59.242 2.383.37.789.13 1.578.258 2.36.41.198.032.398.07.589.11.738.14 1.46.281 2.187.43.641.129 1.274.27 1.903.41.699.148 1.398.308 2.097.48.07.008.133.032.204.051.058.008.117.027.168.04.62.148 1.242.308 1.851.46 3.008.777 5.98 1.66 8.89 2.64.31.11.618.208.919.317a86.02 86.02 0 0 1 3.011 1.082c.598.219 1.2.45 1.79.68.37.14.738.289 1.109.441.332.13.66.258.98.399 1.551.629 3.09 1.289 4.602 1.992.348.148.687.308 1.039.476.02.012.039.024.07.032.43.191.84.39 1.25.59.09.039.18.09.27.14.008 0 .027.012.05.012.098.047.2.098.297.148.622.309 1.243.61 1.852.918.27.133.55.274.82.422.27.14.54.281.809.418.152.082.3.16.45.242.53.282 1.05.559 1.57.852h.011c.602.316 1.192.656 1.79 1h.01c.712.406 1.419.816 2.118 1.25.203.11.39.219.594.34.027.02.066.039.098.058.16.102.332.2.492.309.078.043.148.09.226.133 0 .008.012.008.012.008.59.351 1.172.718 1.75 1.082.27.168.531.34.79.507.081.051.151.09.222.141.25.16.488.309.718.469.57.37 1.13.75 1.7 1.133.011.007.02.02.039.027.562.383 1.11.762 1.66 1.152.562.39 1.121.79 1.68 1.188.18.133.37.27.55.41.301.23.61.45.922.68.598.453 1.207.91 1.809 1.37a130.616 130.616 0 0 1 30.281 33.212c4.52 7.109 8.367 14.68 11.457 22.648.043.102.082.211.121.313 5.59 14.507 8.66 30.277 8.66 46.77zm0 0" fill="#0066e8"/><path d="M306.61 463.121v43.867C290.25 510.281 273.327 512 256 512c-.55 0-1.11 0-1.66-.012-26.77-.168-52.55-4.437-76.762-12.226-48.668-15.64-90.988-45.461-122.09-84.59 8.89-22.434 23.84-41.8 42.84-56.094a130.686 130.686 0 0 1 24.422-14.508l10.21 11.149 18.86 20.61 25.758 28.151 23.133-25.468 2.039-2.262 17.012-18.719 5.078-5.601 6.62-7.282v-.007c.02.007.052.02.071.039.43.191.84.39 1.25.59.09.039.18.09.27.14.12.05.238.11.347.16.622.309 1.243.61 1.852.918.27.133.55.274.82.422.27.14.54.281.809.418.152.082.3.16.45.242.273.13.53.27.792.418.258.14.52.282.777.434h.012c.602.316 1.192.656 1.79 1h.01c.712.406 1.419.816 2.118 1.25.203.11.39.219.594.34.027.02.066.039.098.058.16.102.332.2.492.309.078.043.148.09.226.133 0 .008.012.008.012.008.68.421 1.36.84 2.031 1.27.168.1.34.21.508.32.082.05.152.09.223.14.25.16.488.309.718.469.57.37 1.13.75 1.7 1.133.011.007.02.02.039.027.562.383 1.11.762 1.66 1.152.43.309.883.617 1.3.93.31.219.622.437.93.668.301.23.61.45.922.68.598.453 1.207.91 1.809 1.37a130.616 130.616 0 0 1 30.281 33.212c4.52 7.109 8.367 14.68 11.457 22.648.043.102.082.211.121.313 5.59 14.507 8.66 30.277 8.66 46.77zm0 0" fill="#474f6f"/><path d="M306.61 463.121v43.867C290.25 510.281 273.327 512 256 512c-.55 0-1.11 0-1.66-.012-26.77-.168-52.55-4.437-76.762-12.226V404.48l23.133-25.468 2.039-2.262 17.012-18.719 5.078-5.601 6.62-7.282v-.007c.02.007.052.02.071.039.43.191.84.39 1.25.59.09.039.18.09.27.14.12.05.238.11.347.16.622.309 1.243.61 1.852.918.27.133.55.274.82.422.27.14.54.281.809.418.152.082.3.16.45.242.273.13.53.27.792.418.258.14.52.282.777.434h.012c.602.316 1.192.656 1.79 1h.01c.712.406 1.419.816 2.118 1.25.203.11.39.219.594.34.027.02.066.039.098.058.16.102.332.2.492.309.078.043.148.09.226.133 0 .008.012.008.012.008.68.421 1.36.84 2.031 1.27.168.1.34.21.508.32.082.05.152.09.223.14.25.16.488.309.718.469.57.37 1.13.75 1.7 1.133.011.007.02.02.039.027.562.383 1.11.762 1.66 1.152.43.309.883.617 1.3.93.31.219.622.437.93.668.301.23.61.45.922.68.598.453 1.207.91 1.809 1.37a130.616 130.616 0 0 1 30.281 33.212c4.52 7.109 8.367 14.68 11.457 22.648.043.102.082.211.121.313 5.59 14.507 8.66 30.277 8.66 46.77zm0 0" fill="#323b5a"/><path d="M194.43 322.61h-36.094c-15.223 0-27.168 13.054-25.816 28.214l2.796 31.426 41.383-14.844 41.38 14.844 2.206-31.938c1.035-14.98-10.836-27.703-25.855-27.703zm0 0" fill="#fff"/><path d="M264.16 188.965v70.16H88.844v-70.16c0-24.207 9.812-39.203 25.672-48.14 15.863-8.938 37.78-11.825 61.98-11.825h.371c48.246.063 87.293 11.676 87.293 59.965zm0 0" fill="#474f6f"/><path d="M264.16 188.965v70.16h-87.656l.363-64.86V129c48.246.063 87.293 11.676 87.293 59.965zm0 0" fill="#323b5a"/><path d="M267.176 220.516c11.152 0 20.191 9.043 20.191 20.195 0 20.312-16.465 36.777-36.777 36.777v-57.015zm0 0M85.832 220.516c-11.152 0-20.195 9.043-20.195 20.195 0 20.312 16.468 36.777 36.781 36.777v-57.015zm0 0" fill="#ffa87a"/><path d="M145.914 293.285v43.527c0 16.891 13.691 30.594 30.59 30.594 16.89 0 30.594-13.703 30.594-30.594v-43.527zm0 0" fill="#e3835a"/><path d="M145.914 293.285v43.527c0 16.891 13.691 30.594 30.59 30.594v-74.12zm0 0" fill="#ffa87a"/><path d="M97.574 224.309v29.754c0 43.574 35.324 78.921 78.914 78.93h.016c43.574 0 78.922-35.348 78.922-78.93v-29.754c0-4.485-.363-8.883-1.106-13.157-5.148-30.746-28.09-55.457-57.86-63.23a79.471 79.471 0 0 0-19.956-2.535h-.016c-6.898 0-13.59.883-19.96 2.55-29.774 7.758-52.692 32.47-57.844 63.215a77.661 77.661 0 0 0-1.11 13.157zm0 0" fill="#ffa87a"/><path d="M242.05 227.68h13.376v12.226H242.05zm0 0" fill="#323b5a"/><path d="M97.574 224.309v29.754c0 43.574 35.324 78.921 78.914 78.93V145.386c-6.898 0-13.59.879-19.96 2.55-29.774 7.758-52.692 32.47-57.844 63.215a77.661 77.661 0 0 0-1.11 13.157zm0 0" fill="#ffc0a4"/><path d="M255.426 213.8v26.106c-3.278 2.676-8.2.348-8.2-3.886v-18.653a8.157 8.157 0 0 0-5.288-7.637c-11.145-4.195-18.114-15.367-18.114-27.273v-.766c-13.812 7.993-29.851 12.575-46.957 12.575-17.418 0-33.719-4.75-47.691-13.02v2.281a28.006 28.006 0 0 1-18.196 26.23c-3.152 1.184-5.21 4.247-5.21 7.614v18.652c0 2.985-2.454 5.024-5.043 5.024a4.925 4.925 0 0 1-3.153-1.14V213.8c0-21.793 8.832-41.524 23.114-55.805 14.28-14.289 34.011-23.121 55.804-23.121.125 0 .25 0 .371.008 43.43.191 78.563 35.449 78.563 78.918zm0 0" fill="#474f6f"/><path d="M255.426 213.8v26.106c-3.278 2.676-8.2.348-8.2-3.886v-18.653a8.157 8.157 0 0 0-5.288-7.637c-11.145-4.195-18.114-15.367-18.114-27.273v-.766c-13.812 7.993-29.851 12.575-46.957 12.575v-59.383c43.426.191 78.559 35.449 78.559 78.918zm0 0M97.574 227.68h13.375v12.226H97.574zm0 0M210.98 244.172c0 5.363-4.351 9.715-9.718 9.715s-9.715-4.352-9.715-9.715c0-5.367 4.348-9.719 9.715-9.719s9.718 4.352 9.718 9.719zm0 0M161.46 244.172c0 5.363-4.35 9.715-9.718 9.715-5.363 0-9.715-4.352-9.715-9.715 0-5.367 4.352-9.719 9.715-9.719 5.367 0 9.719 4.352 9.719 9.719zm0 0M153.262 283.73c-6.867 0-10.528 8.243-5.801 13.23a40.077 40.077 0 0 0 10.246 7.81c5.602 3 12 4.695 18.797 4.695a39.687 39.687 0 0 0 18.797-4.695 40.01 40.01 0 0 0 10.246-7.81c4.726-4.987 1.066-13.23-5.8-13.23zm0 0" fill="#323b5a"/><path d="M176.504 271.555a6.622 6.622 0 0 1-6.621-6.621v-29.375a6.622 6.622 0 0 1 13.242 0v29.375a6.622 6.622 0 0 1-6.621 6.62zm0 0" fill="#e3835a"/><path d="M195.3 304.766c-5.6 3.004-11.995 4.699-18.796 4.699h-.016c-6.793 0-13.195-1.695-18.785-4.7 4.68-5.058 11.356-8.23 18.785-8.238h.016c7.43 0 14.125 3.18 18.797 8.239zm0 0" fill="#ff3445"/><path d="M195.3 304.766c-5.6 3.004-11.995 4.699-18.796 4.699h-.016v-12.938h.016c7.43 0 14.125 3.18 18.797 8.239zm0 0" fill="#dd1265"/><path d="M242.05 227.68h-51.019c-2.242 0-4.293.629-6.031 1.71-2.52 1.579-5.39 2.508-8.352 2.598h-.16c-.117.012-.226.012-.34.012-3.136 0-6.187-.95-8.847-2.61a11.292 11.292 0 0 0-6.031-1.71h-50.32a2.995 2.995 0 0 0-2.962 3v6.37c0 1.29.832 2.45 2.063 2.848.008.012.008.012.02.012a3.074 3.074 0 0 1 2.128 2.488c.672 4.16 2.2 13.704 2.2 13.704a16.04 16.04 0 0 0 .8 3.02 16.074 16.074 0 0 0 15.09 10.507h21.941a16.091 16.091 0 0 0 15.45-11.59s2.52-8.719 3.86-13.277c.6-2.082 2.491-3.551 4.66-3.5.05 0 .1 0 .171.008.027 0 .07 0 .117.011h.032c.03 0 .05 0 .082.008a4.8 4.8 0 0 1 4.16 3.473c1.297 4.457 3.86 13.277 3.86 13.277a16.094 16.094 0 0 0 15.457 11.59h21.94c.961 0 1.903-.078 2.82-.25a16.072 16.072 0 0 0 12.27-10.258c.36-.96.621-1.973.79-3.02 0 0 1.331-8.273 2.042-12.68a4.386 4.386 0 0 1 3.028-3.51c.011 0 .011 0 .02-.013a3.129 3.129 0 0 0 1.48-1.078c.36-.5.57-1.11.57-1.77v-6.37c0-1.66-1.34-3-2.988-3zm-86.48 36.968a13.382 13.382 0 0 1-5.39 1.133h-18.328c-4.91 0-9.274-2.633-11.622-6.66a13.405 13.405 0 0 1-1.671-4.66l-2.04-12.68a9.464 9.464 0 0 1 1.372-6.64 9.532 9.532 0 0 1 8.058-4.43h31.79c6.37 0 10.952 6.11 9.171 12.219l-2.219 7.64-1.601 5.508a13.918 13.918 0 0 1-1.309 3.043 13.49 13.49 0 0 1-6.21 5.527zm69.27-.109a.291.291 0 0 1-.078.04 13.308 13.308 0 0 1-5.211 1.05h-18.192c-.218 0-.437-.008-.648-.02a13.333 13.333 0 0 1-12.152-9.597l-3.79-13.043c-1.648-5.68 2.243-11.36 7.942-12.047.379-.043.758-.063 1.148-.063h31.52c5.84 0 10.293 5.22 9.36 10.98l-.97 6-1 6.302-.05.27c-.278 1.71-.867 3.3-1.719 4.71a13.292 13.292 0 0 1-6.16 5.418zm0 0" fill="#404a66"/><path d="M275.5 383.395c-12.336 12.34-13.984 31.773-3.898 46.011l11.73 16.555 3.797-3.793c11.98-11.98 11.98-31.406 0-43.387l5.2-5.203c6.312-6.312 7.28-15.941 2.91-23.277-1.259-2.106-4.145-2.496-5.884-.762zm0 0" fill="#ffa87a"/><path d="M286.574 397.031l-7.156-7.156 89.531-85.176 2.531 2.531zm0 0" fill="#323b5a"/><path d="M318.16 402.82l-3.34 13.532-6.558 26.59v63.706c-.551.122-1.102.23-1.653.34C290.25 510.281 273.33 512 256 512h-1.66v-.012l26.93-85.18 16.082-10.456.476-.313zm0 0" fill="#ffa87a"/><path d="M309.79 385.57l-17.337 17.34a6.691 6.691 0 0 1-9.457 0 6.691 6.691 0 0 1 0-9.457l17.34-17.34a6.686 6.686 0 0 1 9.453 9.457zm0 0" fill="#ffc0a4"/><path d="M315.29 398.984l-17.337 17.34a6.691 6.691 0 0 1-9.457 0 6.691 6.691 0 0 1 0-9.457l17.34-17.34a6.686 6.686 0 0 1 9.453 9.457zm0 0" fill="#ffc0a4"/><path d="M321.7 411.484l-17.337 17.34a6.691 6.691 0 0 1-9.457 0 6.691 6.691 0 0 1 0-9.457l17.336-17.336a6.684 6.684 0 0 1 9.457 0 6.68 6.68 0 0 1 0 9.453zm0 0" fill="#ffc0a4"/><path d="M331.156 420.941l-17.34 17.34a6.686 6.686 0 0 1-9.453-9.457l17.336-17.34a6.691 6.691 0 0 1 9.457 0 6.691 6.691 0 0 1 0 9.457zm0 0" fill="#ffc0a4"/></svg>