<svg xmlns="http://www.w3.org/2000/svg" height="512pt" viewBox="0 0 512 512" width="512pt"><path d="M512 256c0 141.387-114.613 256-256 256S0 397.387 0 256 114.613 0 256 0s256 114.613 256 256zm0 0" fill="#65b2ff"/><path d="M512 256c0 26.05-3.89 51.191-11.129 74.871C468.86 435.72 371.328 512 256 512c-104.559 0-194.488-62.7-234.23-152.55C7.77 327.82 0 292.82 0 256c0-46.219 12.25-89.57 33.68-127C77.8 206.07 160.84 258 256 258s178.21-51.93 222.32-129C499.75 166.43 512 209.781 512 256zm0 0" fill="#0f9be8"/><path d="M30.742 377.703a256.084 256.084 0 0 0 24.719 37.426C102.359 474.149 174.76 512 256 512c81.238 0 153.64-37.852 200.54-96.871a256.084 256.084 0 0 0 24.718-37.426zm0 0" fill="#0066e8"/><path d="M364.902 251.965c0 27.976-10.558 53.492-27.902 72.781-20.102 22.352-31.574 51.129-31.574 81.188v.91h-98.852v-.031c0-30.098-10.883-59.325-31.133-81.579-17.644-19.382-28.379-45.16-28.34-73.445.09-59.621 49.477-108.691 108.899-108.723.594 0 1.195.008 1.797.012 59.312.957 107.105 49.344 107.105 108.887zm0 0" fill="#ffd112"/><path d="M364.902 251.965c0 27.976-10.558 53.492-27.902 72.781-20.102 22.352-31.574 51.129-31.574 81.188v.91H256V143.066c.594 0 1.195.008 1.793.012 59.316.957 107.11 49.344 107.11 108.887zm0 0" fill="#ff9f00"/><path d="M326.07 254.875c0 38.7-31.37 70.074-70.07 70.074-38.7 0-70.07-31.375-70.07-70.074 0-38.7 31.37-70.07 70.07-70.07 38.7 0 70.07 31.37 70.07 70.07zm0 0" fill="#ffe955"/><path d="M326.07 254.875c0 38.707-31.37 70.074-70.07 70.074V184.805c38.7 0 70.07 31.375 70.07 70.07zm0 0" fill="#ffd112"/><path d="M290.418 483.781h-68.074l-.758-198.906-15.145-47.195h99.118l-15.141 47.18zm-53.133-15h38.133v-186.27l9.574-29.831h-57.984l9.57 29.816.004 1.16zm0 0" fill="#fff"/><path d="M305.426 406.836v55.734c0 .157 0 .313-.012.465-.242 26.906-21.988 48.68-48.883 48.95-.152.011-.308.011-.453.011H256c-27.137 0-49.172-21.883-49.414-48.957-.012-.156-.012-.312-.012-.465V406.84h98.852zm0 0" fill="#747e9e"/><path d="M305.422 406.84v55.734c0 27.113-21.844 49.14-48.89 49.414-.153.008-.305.008-.458.008-16.144-9.293-27.023-26.715-27.023-46.672v-58.48h76.37zm0 0" fill="#474f6f"/><path d="M305.426 406.844v55.73C305.426 489.867 283.293 512 256 512V406.844zm0 0" fill="#323b5a"/><path d="M198.668 392.281h114.664v29.121H198.668zm0 0" fill="#747e9e"/><path d="M305.426 433.914v28.66c0 .153 0 .309-.012.465h-98.828c-.012-.156-.012-.312-.012-.465v-28.66zm0 0" fill="#fff"/><path d="M229.05 392.281h84.282v29.121h-84.281zm0 0" fill="#474f6f"/><path d="M256 392.281h57.332v29.121H256zm0 0" fill="#323b5a"/><path d="M66.96 229.973h-1.522c-6.754 0-12.227-5.473-12.227-12.227v-1.523h-8.719v1.523c0 6.754-5.472 12.227-12.226 12.227h-1.524v8.718h1.524c6.754 0 12.226 5.473 12.226 12.227v1.523h8.719v-1.523c0-6.754 5.473-12.227 12.227-12.227h1.523zm0 0M485.96 229.973h-1.522c-6.754 0-12.227-5.473-12.227-12.227v-1.523h-8.719v1.523c0 6.754-5.472 12.227-12.226 12.227h-1.524v8.718h1.524c6.754 0 12.226 5.473 12.226 12.227v1.523h8.719v-1.523c0-6.754 5.473-12.227 12.226-12.227h1.524zm0 0M274.117 50.531h-1.523c-6.75 0-12.227-5.472-12.227-12.226V36.78h-8.715v1.524c0 6.754-5.472 12.226-12.226 12.226h-1.528v8.715h1.528c6.754 0 12.226 5.477 12.226 12.23V73h8.715v-1.523c0-6.754 5.477-12.23 12.227-12.23h1.523zm0 0M143.117 100.531h-1.523c-6.75 0-12.227-5.472-12.227-12.226V86.78h-8.715v1.524c0 6.754-5.472 12.226-12.226 12.226h-1.528v8.715h1.528c6.754 0 12.226 5.477 12.226 12.23V123h8.715v-1.523c0-6.754 5.477-12.23 12.227-12.23h1.523zm0 0M397.469 100.531h-1.524c-6.754 0-12.226-5.472-12.226-12.226V86.78H375v1.524c0 6.754-5.473 12.226-12.227 12.226h-1.523v8.715h1.523c6.754 0 12.227 5.477 12.227 12.23V123h8.719v-1.523c0-6.754 5.472-12.23 12.226-12.23h1.524zm0 0" fill="#fff"/></svg>