<?xml version="1.0" encoding="UTF-8" standalone="no"?>
<svg
   xmlns:dc="http://purl.org/dc/elements/1.1/"
   xmlns:cc="http://creativecommons.org/ns#"
   xmlns:rdf="http://www.w3.org/1999/02/22-rdf-syntax-ns#"
   xmlns:svg="http://www.w3.org/2000/svg"
   xmlns="http://www.w3.org/2000/svg"
   xmlns:sodipodi="http://sodipodi.sourceforge.net/DTD/sodipodi-0.dtd"
   xmlns:inkscape="http://www.inkscape.org/namespaces/inkscape"
   enable-background="new 0 0 91 91"
   height="89.202003"
   id="Layer_1"
   version="1.1"
   viewBox="0 0 89.513 89.202003"
   width="89.513"
   xml:space="preserve"
   sodipodi:docname="section-education.svg"
   inkscape:version="0.92.3 (2405546, 2018-03-11)"><metadata
     id="metadata71"><rdf:RDF><cc:Work
         rdf:about=""><dc:format>image/svg+xml</dc:format><dc:type
           rdf:resource="http://purl.org/dc/dcmitype/StillImage" /><dc:title></dc:title></cc:Work></rdf:RDF></metadata><defs
     id="defs69" /><sodipodi:namedview
     pagecolor="#ffffff"
     bordercolor="#666666"
     borderopacity="1"
     objecttolerance="10"
     gridtolerance="10"
     guidetolerance="10"
     inkscape:pageopacity="0"
     inkscape:pageshadow="2"
     inkscape:window-width="640"
     inkscape:window-height="480"
     id="namedview67"
     showgrid="false"
     fit-margin-top="0"
     fit-margin-left="0"
     fit-margin-right="0"
     fit-margin-bottom="0"
     inkscape:zoom="2.5934066"
     inkscape:cx="44.7"
     inkscape:cy="44.553"
     inkscape:window-x="0"
     inkscape:window-y="0"
     inkscape:window-maximized="0"
     inkscape:current-layer="Layer_1" /><g
     id="g64"
     transform="translate(-0.8,-0.851)"><g
       id="g62"><polygon
         points="27.767,83.105 12.858,68.197 8.015,63.352 0.8,90.053 "
         id="polygon54"
         style="fill:#6ec4a7" /><path
         d="M 10.585,57.832 21.958,69.205 33.335,80.578 79.69,34.22 56.944,11.478 Z"
         id="path56"
         inkscape:connector-curvature="0"
         style="fill:#647f94" /><path
         d="m 61.302,29.813 c 1.117,1.117 1.117,2.93 0,4.047 L 35.239,59.924 c -0.559,0.559 -1.291,0.838 -2.023,0.838 -0.732,0 -1.465,-0.279 -2.021,-0.838 -1.119,-1.119 -1.119,-2.93 0,-4.047 L 57.254,29.813 c 1.118,-1.117 2.931,-1.117 4.048,0 z"
         id="path58"
         inkscape:connector-curvature="0"
         style="fill:#95aec2" /><path
         d="M 87.704,13.612 77.558,3.459 C 75.878,1.776 73.64,0.851 71.259,0.851 c -2.377,0 -4.615,0.925 -6.295,2.607 l -3.973,3.973 22.744,22.742 3.969,-3.968 c 1.684,-1.682 2.609,-3.917 2.609,-6.295 0,-2.38 -0.925,-4.615 -2.609,-6.298 z"
         id="path60"
         inkscape:connector-curvature="0"
         style="fill:#95aec2" /></g></g></svg>