<?xml version="1.0" encoding="UTF-8" standalone="no"?>
<svg
   xmlns:dc="http://purl.org/dc/elements/1.1/"
   xmlns:cc="http://creativecommons.org/ns#"
   xmlns:rdf="http://www.w3.org/1999/02/22-rdf-syntax-ns#"
   xmlns:svg="http://www.w3.org/2000/svg"
   xmlns="http://www.w3.org/2000/svg"
   xmlns:sodipodi="http://sodipodi.sourceforge.net/DTD/sodipodi-0.dtd"
   xmlns:inkscape="http://www.inkscape.org/namespaces/inkscape"
   enable-background="new 0 0 91 91"
   height="89.835999"
   id="Layer_1"
   version="1.1"
   viewBox="0 0 62.894001 89.835999"
   width="62.894001"
   xml:space="preserve"
   sodipodi:docname="section-experience.svg"
   inkscape:version="0.92.3 (2405546, 2018-03-11)"><metadata
     id="metadata46"><rdf:RDF><cc:Work
         rdf:about=""><dc:format>image/svg+xml</dc:format><dc:type
           rdf:resource="http://purl.org/dc/dcmitype/StillImage" /><dc:title></dc:title></cc:Work></rdf:RDF></metadata><defs
     id="defs44" /><sodipodi:namedview
     pagecolor="#ffffff"
     bordercolor="#666666"
     borderopacity="1"
     objecttolerance="10"
     gridtolerance="10"
     guidetolerance="10"
     inkscape:pageopacity="0"
     inkscape:pageshadow="2"
     inkscape:window-width="640"
     inkscape:window-height="480"
     id="namedview42"
     showgrid="false"
     fit-margin-top="0"
     fit-margin-left="0"
     fit-margin-right="0"
     fit-margin-bottom="0"
     inkscape:zoom="5.8901099"
     inkscape:cx="31.708"
     inkscape:cy="45.069"
     inkscape:window-x="0"
     inkscape:window-y="0"
     inkscape:window-maximized="1"
     inkscape:current-layer="Layer_1" /><g
     id="g39"
     transform="translate(-13.792,-0.733)"><g
       id="g37"><path
         d="M 38.391,56.001 C 32.698,54.735 27.6,51.88 23.577,47.915 17.028,51.128 13.792,55.87 13.792,62.409 v 22.193 c 3.148,1.465 11.26,4.762 22.541,5.967 L 33.696,88.46 c -0.832,-0.664 -1.225,-1.74 -1.008,-2.783 z"
         id="path29"
         inkscape:connector-curvature="0"
         style="fill:#647f94" /><path
         d="m 45.01,51.079 c 13.783,0 25,-11.295 25,-25.174 0,-13.879 -11.217,-25.172 -25,-25.172 -13.775,0 -24.982,11.293 -24.982,25.172 0,13.879 11.206,25.174 24.982,25.174 z"
         id="path31"
         inkscape:connector-curvature="0"
         style="fill:#647f94" /><polygon
         points="45.242,90.437 51.881,85.122 46.414,56.978 43.977,56.978 38.59,85.118 "
         id="polygon33"
         style="fill:#6ec4a7" /><path
         d="m 66.475,47.896 c -3.943,3.895 -8.932,6.709 -14.492,8.016 l 5.803,29.758 c 0.219,1.047 -0.172,2.123 -1.002,2.791 l -2.496,1.996 c 6.957,-0.83 14.496,-2.648 22.398,-5.959 V 62.409 c 0,-6.547 -3.377,-11.295 -10.211,-14.513 z"
         id="path35"
         inkscape:connector-curvature="0"
         style="fill:#647f94" /></g></g></svg>