<svg xmlns="http://www.w3.org/2000/svg" height="512pt" viewBox="0 0 512 512" width="512pt"><path d="M512 256c0 141.387-114.613 256-256 256S0 397.387 0 256 114.613 0 256 0s256 114.613 256 256zm0 0" fill="#9e69e2"/><path d="M512 256c0 26.05-3.89 51.191-11.129 74.871C468.86 435.72 371.328 512 256 512c-104.559 0-194.488-62.7-234.23-152.55C7.77 327.82 0 292.82 0 256c0-46.219 12.25-89.57 33.68-127C77.8 206.07 160.84 258 256 258s178.21-51.93 222.32-129C499.75 166.43 512 209.781 512 256zm0 0" fill="#8e4fd2"/><path d="M30.742 377.703a256.084 256.084 0 0 0 24.719 37.426C102.359 474.149 174.76 512 256 512c81.238 0 153.64-37.852 200.54-96.871a256.084 256.084 0 0 0 24.718-37.426zm0 0" fill="#7038ba"/><path d="M497.77 171.648L270.39 287.352s0-.012-.011 0c0 0 0-.012-.008 0l-.101.058-14 7.121-1.149.59h-.012l-.148.078-15-7.629-.352-.18h-.007L13.93 172.532a252.593 252.593 0 0 1 13.148-31.242A256.275 256.275 0 0 1 43.2 113.65l211.762 107.78 1.309-.667L468.29 112.89a253.912 253.912 0 0 1 16.21 27.578 252.011 252.011 0 0 1 13.27 31.18zm0 0" fill="#dd1265"/><path d="M497.77 171.648L270.39 287.352s0-.012-.011 0c0 0 0-.012-.008 0l-.101.058-14 7.121v-73.77l212.02-107.87a253.912 253.912 0 0 1 16.21 27.578 252.011 252.011 0 0 1 13.27 31.18zm0 0" fill="#ba0d5c"/><path d="M484.5 140.469L257.762 255.852l-1.492.757-1.149.582-.16.079-2.711-1.38-225.172-114.6A256.275 256.275 0 0 1 43.2 113.647L254.961 221.43l1.309-.668L468.29 112.89a253.912 253.912 0 0 1 16.21 27.578zm0 0" fill="#ff3445"/><path d="M484.5 140.469L257.762 255.852l-1.492.757v-35.847L468.29 112.89a253.912 253.912 0 0 1 16.21 27.578zm0 0" fill="#dd1265"/><path d="M270.27 270.773v21.856c0 4.183-1.7 7.976-4.442 10.719a15.097 15.097 0 0 1-10.71 4.437h-.009c-8.363 0-15.152-6.789-15.152-15.156v-21.856c0-8.37 6.785-15.156 15.152-15.156h.008c8.367.008 15.153 6.785 15.153 15.156zm0 0" fill="#ff9f00"/><path d="M270.27 270.773v21.856c0 4.183-1.7 7.976-4.442 10.719a15.097 15.097 0 0 1-10.71 4.437v-52.164c8.366.004 15.152 6.781 15.152 15.152zm0 0" fill="#ed771b"/><path d="M346.516 377.477v28.582c0 50.48-40.926 91.402-91.403 91.402-50.484 0-91.402-40.922-91.402-91.402v-28.582zm0 0" fill="#ff9f00"/><path d="M346.516 377.477v28.582c0 50.48-40.926 91.402-91.403 91.402V377.477zm0 0" fill="#ed771b"/><path d="M346.516 377.477c0 50.484-40.926 91.402-91.403 91.402-.324 0-.652 0-.976-.008-50.032-.52-90.426-41.234-90.426-91.394 0-50.48 40.922-91.403 91.402-91.403.192 0 .38 0 .57.004 50.215.305 90.833 41.11 90.833 91.399zm0 0" fill="#ffd112"/><path d="M346.516 377.477c0 50.484-40.926 91.402-91.403 91.402V286.074c50.477 0 91.403 40.922 91.403 91.403zm0 0" fill="#ff9f00"/><path d="M313.5 377.477c0 32.246-26.14 58.386-58.39 58.386-32.247 0-58.387-26.14-58.387-58.386 0-32.247 26.14-58.387 58.386-58.387 32.25 0 58.391 26.14 58.391 58.387zm0 0" fill="#ffe955"/><path d="M313.5 377.477c0 32.246-26.145 58.386-58.39 58.386V319.09c32.245 0 58.39 26.14 58.39 58.387zm0 0" fill="#ffd112"/><path d="M285.156 374.7l-6.863 6.687a7.398 7.398 0 0 0-2.133 6.554l1.621 9.442c1.035 6.05-5.312 10.664-10.746 7.808l-8.476-4.457a7.376 7.376 0 0 0-6.895 0l-8.48 4.457c-5.43 2.852-11.782-1.757-10.746-7.808l1.62-9.442a7.387 7.387 0 0 0-2.132-6.554l-6.856-6.688c-4.398-4.285-1.972-11.75 4.102-12.633l9.48-1.378a7.4 7.4 0 0 0 5.575-4.047l4.242-8.598c1.355-2.75 4-4.121 6.64-4.121 2.641 0 5.286 1.371 6.645 4.121l4.234 8.598a7.398 7.398 0 0 0 5.578 4.046l9.48 1.38c6.079.882 8.5 8.347 4.11 12.632zm0 0" fill="#ff9f00"/><path d="M285.156 374.7l-6.863 6.687a7.398 7.398 0 0 0-2.133 6.554l1.621 9.442c1.035 6.05-5.312 10.664-10.746 7.808l-8.476-4.457a7.376 7.376 0 0 0-3.446-.855v-55.957c2.637 0 5.282 1.371 6.64 4.121l4.235 8.598a7.398 7.398 0 0 0 5.578 4.046l9.485 1.38c6.074.882 8.496 8.347 4.105 12.632zm0 0" fill="#ed771b"/><path d="M155.523 290.844H154c-6.754 0-12.227-5.477-12.227-12.23v-1.524h-8.714v1.523c0 6.754-5.477 12.23-12.23 12.23h-1.524v8.716h1.523c6.754 0 12.23 5.472 12.23 12.226v1.524h8.715v-1.524c0-6.754 5.473-12.226 12.227-12.226h1.523zm0 0M146.3 425.945h-1.523c-6.754 0-12.226-5.472-12.226-12.226v-1.524h-8.715v1.524c0 6.754-5.477 12.226-12.23 12.226h-1.524v8.715h1.523c6.754 0 12.23 5.477 12.23 12.227v1.527h8.716v-1.527c0-6.75 5.472-12.227 12.226-12.227h1.524zm0 0M469.73 316.14h-1.527c-6.75 0-12.226-5.472-12.226-12.226v-1.523h-8.715v1.523c0 6.754-5.473 12.227-12.227 12.227h-1.523v8.718h1.523c6.754 0 12.227 5.473 12.227 12.227v1.523h8.715v-1.523c0-6.754 5.476-12.227 12.226-12.227h1.527zm0 0M408.684 407.836h-1.528c-6.75 0-12.226-5.473-12.226-12.227v-1.523h-8.715v1.523c0 6.754-5.473 12.227-12.227 12.227h-1.523v8.715h1.523c6.754 0 12.227 5.476 12.227 12.226v1.528h8.715v-1.528c0-6.75 5.476-12.226 12.226-12.226h1.528zm0 0M390.574 282.652h-1.523c-6.754 0-12.23-5.476-12.23-12.226v-1.528h-8.716v1.528c0 6.75-5.472 12.226-12.226 12.226h-1.524v8.715h1.524c6.754 0 12.226 5.473 12.226 12.227v1.523h8.715v-1.523c0-6.754 5.477-12.227 12.23-12.227h1.524zm0 0M79.574 324.105h-1.523c-6.754 0-12.227-5.472-12.227-12.226v-1.524h-8.719v1.524c0 6.754-5.472 12.226-12.226 12.226h-1.524v8.715h1.524c6.754 0 12.226 5.477 12.226 12.23v1.524h8.72v-1.523c0-6.754 5.472-12.23 12.226-12.23h1.523zm0 0" fill="#fff"/></svg>