<svg height="640" viewBox="0 0 480 480" width="640" xmlns="http://www.w3.org/2000/svg"><path d="M480 264v-48h-25.36a215.12 215.12 0 0 0-7.175-36.09l31.574-12.863-17.07-41.91-31.555 12.855a216.326 216.326 0 0 0-22.543-33.863L432 80l-32-32-24.129 24.129a216.466 216.466 0 0 0-31.656-21.336l13.226-31.41-41.714-17.559-13.223 31.399a215.362 215.362 0 0 0-38.512-7.864V0h-48v25.36a215.12 215.12 0 0 0-36.09 7.175L167.047.961l-41.91 17.07 12.855 31.555a216.326 216.326 0 0 0-33.863 22.543L80 48 48 80l24.129 24.129a216.466 216.466 0 0 0-21.336 31.656l-31.41-13.226-17.559 41.714 31.399 13.223a215.362 215.362 0 0 0-7.864 38.512H0v48h25.36a215.12 215.12 0 0 0 7.175 36.09L.961 312.953l17.07 41.91 31.555-12.855a216.326 216.326 0 0 0 22.543 33.863L48 400l32 32 24.129-24.129c9.871 8 20.457 15.152 31.656 21.336l-13.226 31.41 41.714 17.559 13.223-31.399a215.362 215.362 0 0 0 38.512 7.864V480h48v-25.36a215.12 215.12 0 0 0 36.09-7.175l12.863 31.574 41.91-17.07-12.855-31.555a216.326 216.326 0 0 0 33.863-22.543L400 432l32-32-24.129-24.129c8-9.871 15.152-20.457 21.336-31.656l31.41 13.226 17.559-41.714-31.399-13.223a215.362 215.362 0 0 0 7.864-38.512H480zm0 0" fill="#70b48f"/><path d="M424 240c0 101.621-82.379 184-184 184S56 341.621 56 240 138.379 56 240 56s184 82.379 184 184zm0 0" fill="#d9d7d8"/><g fill="#efedee"><path d="M184 64.703v43.984l-37.656 37.657 11.312 11.312 40-40A7.978 7.978 0 0 0 200 112V60.406a187.459 187.459 0 0 0-16 4.297zm0 0"/><path d="M216 57.61v99.078l-69.656 69.656 11.312 11.312 72-72A7.978 7.978 0 0 0 232 160V56.2c-5.398.234-10.727.722-16 1.41zm0 0M282.344 362.344A7.964 7.964 0 0 0 280 368v51.594a181.845 181.845 0 0 0 16-4.297v-43.985l37.656-37.656-11.312-11.312zm0 0"/><path d="M250.344 314.344A7.964 7.964 0 0 0 248 320v103.8a186.082 186.082 0 0 0 16-1.41v-99.077l69.656-69.657-11.312-11.312zm0 0M192 184h16v160h-16zm0 0"/><path d="M272 136h16v160h-16zm0 0"/></g><path d="M360 320c0 13.254-10.746 24-24 24s-24-10.746-24-24 10.746-24 24-24 24 10.746 24 24zm0 0" fill="#dcb29c"/><path d="M224 360c0 13.254-10.746 24-24 24s-24-10.746-24-24 10.746-24 24-24 24 10.746 24 24zm0 0" fill="#699ce6"/><path d="M360 240c0 13.254-10.746 24-24 24s-24-10.746-24-24 10.746-24 24-24 24 10.746 24 24zm0 0" fill="#f8cf6a"/><path d="M304 120c0 13.254-10.746 24-24 24s-24-10.746-24-24 10.746-24 24-24 24 10.746 24 24zm0 0" fill="#dc6068"/><path d="M168 240c0 13.254-10.746 24-24 24s-24-10.746-24-24 10.746-24 24-24 24 10.746 24 24zm0 0" fill="#eea273"/><path d="M168 160c0 13.254-10.746 24-24 24s-24-10.746-24-24 10.746-24 24-24 24 10.746 24 24zm0 0" fill="#599072"/></svg>