<svg height="511pt" viewBox="0 0 511 511.99955" width="511pt" xmlns="http://www.w3.org/2000/svg"><path d="m504.890625 255.957031c0 137.214844-111.230469 248.445313-248.445313 248.445313-137.214843 0-248.445312-111.230469-248.445312-248.445313 0-137.210937 111.230469-248.445312 248.445312-248.445312 137.214844 0 248.445313 111.234375 248.445313 248.445312zm0 0" fill="#4b98d4"/><path d="m35.640625 255.957031c0-132.574219 103.84375-240.886719 234.625-248.058593-143.085937-7.8476568-262.269531 105.957031-262.269531 248.058593 0 142.097657 119.171875 255.90625 262.269531 248.058594-130.78125-7.171875-234.625-115.484375-234.625-248.058594zm0 0" fill="#2472b2"/><path d="m512.390625 255.957031c0-57.242187-18.714844-112.652343-54.820313-158.328125-101.914062-129.613281-299.457031-130.730468-402.25 0-35.207031 44.539063-54.820312 99.628906-54.820312 158.328125 0 157.992188 141.246094 277.59375 296.378906 252.773438 121.765625-19.214844 215.511719-124.625 215.511719-252.773438zm-461.921875-124.878906c16.054688 6.773437 35.367188 12.621094 57.085938 17.386719-9.160157 31.046875-14.277344 64.929687-14.914063 99.996094h-77.015625c1.25-40.957032 12.898438-81.339844 34.84375-117.382813zm446.796875 117.382813h-77.015625c-.636719-35.070313-5.753906-68.949219-14.914062-99.996094 21.722656-4.769532 41.042968-10.613282 57.097656-17.394532 20.957031 34.441407 33.511718 74.523438 34.832031 117.390626zm-34.835937 132.378906c-16.058594-6.777344-35.375-12.621094-57.09375-17.390625 9.160156-31.046875 14.277343-64.925781 14.914062-99.992188h77.015625c-1.265625 41.132813-12.902344 81.308594-34.835937 117.382813zm-133.320313 104.855468c16.25-12.511718 31.199219-29.3125 44.261719-50.066406 10.960937-17.414062 20.132812-36.898437 27.382812-57.871094 20.199219 4.371094 38.234375 9.691407 53.335938 15.84375-30.410156 43.5625-74.4375 76.085938-124.980469 92.09375zm-236.46875-222.238281c.636719 35.066407 5.753906 68.945313 14.914063 99.992188-21.71875 4.765625-41.03125 10.613281-57.085938 17.390625-21.617188-35.53125-33.570312-75.75-34.84375-117.382813zm91.152344-237.246093c-34.066407 26.222656-57.667969 67.480468-71.65625 107.949218-20.199219-4.375-38.234375-9.695312-53.335938-15.847656 30.027344-42.984375 73.714844-75.851562 124.992188-92.101562zm-124.992188 367.390624c15.101563-6.152343 33.136719-11.472656 53.335938-15.84375 13.988281 40.464844 37.585937 81.71875 71.644531 107.9375-49.125-15.558593-93.851562-47.453124-124.980469-92.09375zm190.144531 102.996094c-60.003906-4.851562-101.769531-64.613281-121.980468-121.816406 36.089844-6.660156 77.976562-10.484375 121.980468-10.878906zm14.996094-132.695312c44.007813.394531 85.890625 4.21875 121.980469 10.878906-6.765625 19.148438-15.21875 36.929688-25.246094 52.859375-26.308593 41.800781-60.417969 66.023437-96.734375 68.957031zm0-14.996094v-85.449219h141.308594c-.644531 34.109375-5.667969 66.988281-14.652344 96.980469-37.519531-7.074219-81.042968-11.128906-126.65625-11.53125zm0-100.445312v-85.453126c45.609375-.402343 89.136719-4.457031 126.65625-11.53125 8.984375 29.996094 14.007813 62.871094 14.652344 96.984376zm0-100.449219v-132.695313c60.007813 4.851563 101.769532 64.613282 121.980469 121.816406-36.089844 6.664063-77.972656 10.488282-121.980469 10.878907zm-14.996094-132.695313v132.695313c-44.003906-.390625-85.890624-4.214844-121.980468-10.878907 20.203125-57.171874 62.003906-116.96875 121.980468-121.816406zm0 147.691406v85.449219h-141.304687c.644531-34.109375 5.667969-66.988281 14.648437-96.980469 37.523438 7.074219 81.046876 11.128907 126.65625 11.53125zm0 100.449219v85.449219c-45.609374.402344-89.132812 4.457031-126.65625 11.53125-8.980468-29.992188-14.007812-62.871094-14.648437-96.980469zm151.808594-129.296875c-13.996094-40.480468-37.597656-81.734375-71.65625-107.949218 51.117188 16.203124 94.902344 49.027343 124.992188 92.101562-15.101563 6.152344-33.136719 11.472656-53.335938 15.847656zm0 0" fill="#72bdf6"/><path d="m364.175781 408.570312-33.242187-33.246093c-2.929688-2.929688-2.929688-7.675781 0-10.605469 2.925781-2.929688 7.675781-2.929688 10.601562 0l33.246094 33.246094c2.929688 2.929687 2.929688 7.675781 0 10.605468-2.929688 2.925782-7.675781 2.925782-10.605469 0zm0 0" fill="#e4e3e1"/><path d="m371.75 390.929688-14.605469 14.605468c-6.933593 6.933594-6.933593 18.171875 0 25.101563l68.628907 68.628906c6.929687 6.929687 18.167968 6.929687 25.097656 0l14.605468-14.609375c6.933594-6.929688 6.933594-18.167969.003907-25.097656l-68.628907-68.628906c-6.933593-6.929688-18.171874-6.929688-25.101562 0zm0 0" fill="#ed5454"/><path d="m445.769531 499.265625-68.628906-68.628906c-6.933594-6.929688-6.933594-18.167969 0-25.101563l14.605469-14.605468c.796875-.796876 1.65625-1.488282 2.550781-2.101563-6.910156-4.726563-16.414063-4.03125-22.546875 2.101563l-14.609375 14.605468c-6.929687 6.933594-6.929687 18.171875 0 25.101563l68.628906 68.628906c6.136719 6.132813 15.640625 6.828125 22.550781 2.101563-.898437-.613282-1.757812-1.304688-2.550781-2.101563zm0 0" fill="#ea3f3f"/><path d="m341.472656 205.589844c-46.855468-46.855469-122.820312-46.855469-169.675781 0-46.855469 46.851562-46.855469 122.820312 0 169.675781 46.855469 46.851563 122.820313 46.851563 169.675781 0 46.855469-46.855469 46.855469-122.824219 0-169.675781zm0 0" fill="#525468"/><path d="m322.617188 224.238281c-36.554688-36.554687-95.820313-36.554687-132.375 0-36.554688 36.554688-36.554688 95.820313 0 132.375 36.554687 36.554688 95.820312 36.554688 132.375 0 36.558593-36.554687 36.558593-95.820312 0-132.375zm0 0" fill="#ffc964"/><path d="m301.667969 266.0625c-5.195313-5.007812-13.5625-4.621094-18.664063.480469l-30.136718 30.136719c-1.5 1.5-3.933594 1.5-5.4375 0l-15.367188-15.367188c-5.171875-5.175781-13.601562-5.117188-18.703125.175781-5.007813 5.195313-4.625 13.5625.480469 18.664063l27.042968 27.042968c5.117188 5.121094 13.414063 5.117188 18.53125 0l42.429688-42.425781c5.175781-5.175781 5.117188-13.601562-.175781-18.707031zm0 0" fill="#e4e3e1"/><path d="m191.796875 375.265625c-72.355469-72.355469-26.265625-195.992187 74.839844-204.394531-33.945313-2.824219-68.863281 8.742187-94.835938 34.71875-46.855469 46.851562-46.855469 122.820312 0 169.675781 25.972657 25.972656 60.890625 37.539063 94.835938 34.71875-27.292969-2.269531-53.957031-13.835937-74.839844-34.71875zm0 0" fill="#3e4151"/><path d="m210.242188 356.617188c-55.714844-55.714844-21.519532-150.945313 56.191406-159.246094-27.167969-2.902344-55.363282 6.039062-76.1875 26.863281-36.558594 36.558594-36.558594 95.824219 0 132.382813 20.824218 20.824218 49.019531 29.765624 76.1875 26.863281-20.523438-2.191407-40.460938-11.132813-56.191406-26.863281zm0 0" fill="#f3a334"/><path d="m233.835938 300.152344c-4.914063-4.914063-5.4375-12.84375-1-18.066406l-.773438-.773438c-5.175781-5.175781-13.601562-5.117188-18.703125.175781-5.007813 5.195313-4.625 13.5625.476563 18.664063l27.046874 27.042968c5.117188 5.121094 13.414063 5.117188 18.53125 0l.734376-.730468zm0 0" fill="#d1d0cf"/><path d="m371.847656 445.339844 53.921875 53.925781c6.933594 6.929687 18.167969 6.929687 25.101563 0l14.605468-14.609375c6.929688-6.929688 6.929688-18.167969 0-25.097656l-53.921874-53.921875zm0 0" fill="#ea3f3f"/><path d="m381.847656 435.34375-10 10c40.425782 40.425781 50.765625 50.765625 53.925782 53.921875.011718.015625.027343.027344.042968.039063 6.042969 6.007812 15.535156 6.824218 22.503906 2.0625-.898437-.613282-1.753906-1.304688-2.550781-2.101563zm0 0" fill="#d4352f"/></svg>