<svg xmlns="http://www.w3.org/2000/svg" viewBox="0 0 50 50" width="48" height="48"><path d="M0 33h2v-7.381l2.778 6.31c.343.787.811 1.065 1.731 1.065s1.37-.278 1.713-1.065L11 25.781V33h2v-7.561c0-.726-.289-1.078-.884-1.259-1.424-.448-2.38-.061-2.813.908l-2.849 6.417-2.759-6.417c-.415-.969-1.388-1.356-2.813-.908-.595.181-.884.533-.884 1.259V33zM14 27h2v4.224c-.016.208.067.761 1.031.776.492.008 2.939 0 2.969 0v-5h2c.008 0 0 6.217 0 6.243.01 1.533-1.904 1.731-2.785 1.757H14v-1h5.001c1.133-.12.999-.744.999-.933V33h-3.137c-1.74-.016-2.849-.782-2.862-1.656C14 31.263 14.039 27.038 14 27zM23 33h5.008c.656 0 1.294-.137 1.8-.375.844-.387 1.192-.912 1.192-1.6V29.6c0-1.538-1.906-1.6-3-1.6h-2c-.787 0-.906-.475-1-1v-1c.094-.4.269-.938.962-1H31v-1h-4.756c-.787 0-3.244.094-3.244 2v1.237c0 .875.769 1.588 2.438 1.763.188.012.375.025.562.025 0 0 1.944-.038 2-.025 1.125 0 1 .875 1 1v1c0 .138-.031 1-1.011 1H23v1zM42 30.958c0 1.207.682 1.884 2.492 2.02.169.011.339.022.508.022h5v-1h-4.62c-1.032 0-1.38-.433-1.38-1.053V24h-2v6.958zM31.983 31v-5c0-1.063.521-1.796 1.996-2h4.838c1.475.204 2.167.937 2.167 2v4.981c0 .862-.224 1.324-.954 1.624l1.549 1.394h-2.25l-1.115-1h-1.309l-2.225.013c-.322 0-.661-.045-1.034-.147-1.12-.305-1.663-.893-1.663-1.865zm2 0c.102.486.493 1 1.188 1h1.942L36 31h2.266l.541.502s.194-.158.194-.502-.017-5-.017-5c-.102-.452-.56-1-1.238-1h-2.574c-.78 0-1.188.571-1.188 1.102V31z"/><path d="M48.124 22.946c-1.074-.029-1.894.071-2.595.366-.199.084-.517.086-.55.336.109.115.126.286.214.427.167.271.45.634.702.824.276.208.56.431.855.611.525.32 1.112.503 1.618.824.298.19.594.428.885.641.144.106.24.27.427.336v-.03c-.098-.125-.124-.297-.214-.428l-.397-.397a6.506 6.506 0 0 0-1.404-1.343c-.418-.3-1.352-.705-1.527-1.19l-.031-.032c.296-.033.643-.14.916-.214.459-.123.869-.09 1.343-.214.214-.06.427-.122.641-.183v-.122c-.24-.246-.411-.57-.672-.794-.684-.582-1.43-1.164-2.198-1.649-.426-.269-.953-.444-1.404-.672-.152-.077-.419-.117-.519-.244-.237-.302-.366-.686-.549-1.038a39.215 39.215 0 0 1-1.099-2.32c-.232-.529-.383-1.052-.672-1.527-1.386-2.279-2.879-3.655-5.19-5.007-.492-.288-1.084-.4-1.71-.55l-1.008-.06c-.205-.087-.418-.337-.611-.459-.766-.484-2.73-1.536-3.297-.153-.358.873.535 1.725.855 2.168.224.31.511.658.672 1.008.105.23.124.46.214.702.222.598.573 1.28.86 1.832.145.28.305.574.489.824.112.153.305.221.336.458-.189.264-.199.673-.305 1.008-.477 1.505-.297 3.375.397 4.488.213.342.715 1.075 1.404.794.603-.246.469-1.007.641-1.679.039-.152.015-.264.092-.366v.031l.55 1.1c.407.654 1.129 1.34 1.74 1.801.317.24.567.654.977.794v-.03h-.031c-.079-.125-.204-.176-.305-.276a6.862 6.862 0 0 1-.702-.794 18.577 18.577 0 0 1-1.496-2.443c-.214-.41-.4-.864-.58-1.282-.07-.16-.069-.405-.214-.489-.198.306-.488.554-.641.916-.244.578-.276 1.284-.366 2.015-.054.02-.03.006-.061.03-.425-.103-.575-.54-.733-.916-.4-.95-.474-2.479-.122-3.572.091-.283.502-1.174.336-1.435-.079-.26-.342-.412-.488-.61a4.805 4.805 0 0 1-.489-.856c-.327-.74-.638-1.602-.982-2.35-.165-.359-.443-.72-.672-1.039-.253-.352-.537-.612-.733-1.038-.07-.15-.165-.394-.061-.55.033-.105.079-.149.183-.183.177-.137.67.045.855.122.49.203.898.397 1.313.672.199.132.4.387.641.458h.275c.43.1.911.031 1.313.153.71.216 1.346.551 1.923.916a11.903 11.903 0 0 1 4.183 4.58c.158.304.227.594.366.916.281.65.636 1.32.916 1.954.279.634.552 1.274.947 1.802.208.277 1.01.426 1.374.58.255.108.674.22.916.366.462.28.91.611 1.343.916.217.154.883.49.916.765z"/><path d="M34.476 11.314a2.174 2.174 0 0 0-.55.06v.032h.031c.107.219.295.36.427.55l.305.64.03-.03c.189-.132.276-.345.275-.671-.076-.08-.087-.18-.153-.275-.086-.128-.255-.2-.365-.306z"/></svg>