<svg height="512pt" viewBox="-2 0 511 512" width="512pt" xmlns="http://www.w3.org/2000/svg"><path d="M328.777 477.242H50.645a49.7 49.7 0 0 1-19.633-4.031v22.418c0 9.004 7.367 16.371 16.37 16.371H332.04c9.004 0 16.371-7.367 16.371-16.371V473.21a49.7 49.7 0 0 1-19.633 4.031zm0 0" fill="#d1d0cf"/><path d="M51.422 495.629v-18.387h-.777a49.7 49.7 0 0 1-19.633-4.031v22.418c0 9.004 7.367 16.371 16.37 16.371h20.411c-9.004 0-16.371-7.367-16.371-16.371zm0 0" fill="#c1c1c1"/><path d="M440.871 126.207H375.86v36.113h65.012c16.934 0 30.711 13.778 30.711 30.711v97.531c0 46.254-38.977 89.231-95.723 89.231v36.11c77.125 0 131.832-59.598 131.832-125.34V193.03c0-36.847-29.976-66.824-66.82-66.824zm0 0" fill="#d1d0cf"/><path d="M375.86 126.207h20.41v36.113h-20.41zm0 0M461.281 162.32h-20.41c16.934 0 30.711 13.778 30.711 30.711v97.531c0 46.254-38.977 89.231-95.723 89.231v36.11c6.996 0 13.805-.497 20.41-1.438V390.91c0-5.965 4.489-11.043 10.426-11.613 51.043-4.89 85.297-45.371 85.297-88.735v-97.53c0-16.962-13.75-30.712-30.71-30.712zm0 0" fill="#c1c1c1"/><path d="M369.91 66.625H9.512A9.012 9.012 0 0 0 .5 75.637V430.16c0 27.578 22.562 50.14 50.14 50.14h278.137c27.578 0 50.145-22.562 50.145-50.14V75.637a9.012 9.012 0 0 0-9.012-9.012zm0 0" fill="#e4e3e1"/><path d="M20.914 430.16V75.637c0-4.977 4.031-9.012 9.008-9.012H9.512A9.012 9.012 0 0 0 .5 75.637V430.16c0 27.578 22.563 50.14 50.14 50.14h20.415c-27.578 0-50.14-22.562-50.14-50.14zm0 0" fill="#d1d0cf"/><g fill="#e4e3e1"><path d="M66.21 40.656a7.652 7.652 0 0 1-7.651-7.652V7.652a7.655 7.655 0 0 1 15.309 0v25.352a7.653 7.653 0 0 1-7.657 7.652zm0 0M127.96 40.656a7.652 7.652 0 0 1-7.651-7.652V7.652A7.652 7.652 0 0 1 127.96 0a7.652 7.652 0 0 1 7.652 7.652v25.352a7.652 7.652 0 0 1-7.652 7.652zm0 0M189.71 40.656a7.655 7.655 0 0 1-7.655-7.652V7.652a7.655 7.655 0 0 1 15.308 0v25.352a7.652 7.652 0 0 1-7.652 7.652zm0 0M251.46 40.656a7.653 7.653 0 0 1-7.655-7.652V7.652a7.655 7.655 0 0 1 15.308 0v25.352a7.652 7.652 0 0 1-7.652 7.652zm0 0M313.207 40.656a7.652 7.652 0 0 1-7.652-7.652V7.652A7.652 7.652 0 0 1 313.207 0a7.653 7.653 0 0 1 7.656 7.652v25.352a7.653 7.653 0 0 1-7.656 7.652zm0 0"/></g><path d="M89.543 284.79a5.213 5.213 0 0 1 0-7.372l43.3-43.3c5.06-5.06 5.005-13.302-.171-18.29-5.078-4.898-13.262-4.52-18.25.469l-55.746 55.746c-5.004 5.004-5.004 13.117 0 18.121l55.746 55.746c4.988 4.988 13.172 5.363 18.25.469 5.176-4.988 5.234-13.23.172-18.29zm0 0M322.336 272.043l-55.922-55.922c-5.062-5.062-13.3-5.004-18.289.168-4.898 5.082-4.52 13.262.469 18.25l42.55 42.55a5.675 5.675 0 0 1 0 8.024l-42.55 42.551c-4.989 4.988-5.364 13.172-.469 18.25 4.988 5.172 13.23 5.23 18.29.172l55.92-55.926c5.005-5 5.005-13.113 0-18.117zm0 0M154.805 363.895c-6.489-2.829-9.453-10.38-6.63-16.868l61.915-142.086c2.828-6.488 10.379-9.453 16.863-6.629 6.488 2.829 9.457 10.38 6.629 16.868l-61.914 142.086c-2.828 6.488-10.379 9.453-16.863 6.629zm0 0" fill="#ed5454"/><path d="M79.086 290.164c-5.004-5.004-5.004-13.117 0-18.121l54.82-54.82a12.516 12.516 0 0 0-1.234-1.395c-5.078-4.898-13.262-4.52-18.25.469l-55.746 55.746c-5.004 5.004-5.004 13.117 0 18.121l55.746 55.746c4.988 4.988 13.172 5.363 18.25.469.457-.441.86-.914 1.234-1.399zm0 0M269.004 327.664l42.55-42.55a5.67 5.67 0 0 0 0-8.02l-42.55-42.551c-4.656-4.66-5.29-12.098-1.367-17.2l-1.223-1.222c-5.062-5.059-13.3-5.004-18.289.172-4.898 5.078-4.523 13.262.469 18.25l42.55 42.55a5.67 5.67 0 0 1 0 8.02l-42.55 42.551c-4.989 4.988-5.367 13.172-.469 18.25 4.988 5.176 13.227 5.23 18.29.172l1.222-1.223c-3.922-5.101-3.29-12.543 1.367-17.199zm0 0M168.59 347.027l61.91-142.086c.418-.953.945-1.82 1.547-2.613a12.752 12.752 0 0 0-5.094-4.015c-6.484-2.825-14.035.14-16.863 6.628l-61.914 142.086c-2.824 6.489.14 14.04 6.629 16.864 5.53 2.414 11.828.597 15.32-4.012-2.7-3.57-3.453-8.453-1.535-12.852zm0 0" fill="#ea3f3f"/></svg>