<svg height="512pt" viewBox="0 -3 512 511" width="512pt" xmlns="http://www.w3.org/2000/svg"><path d="m447.496094 116.035156h-382.992188c-18.605468 0-33.742187 15.136719-33.742187 33.742188v270.085937c0 18.605469 15.136719 33.742188 33.742187 33.742188h382.992188c18.605468 0 33.742187-15.136719 33.742187-33.742188 0-7.207031 0-262.753906 0-270.085937.003907-18.605469-15.136719-33.742188-33.742187-33.742188zm0 0" fill="#525468"/><path d="m51.363281 419.863281c0-7.332031 0-262.878906 0-270.085937 0-18.605469 15.136719-33.742188 33.742188-33.742188h-20.601563c-18.605468 0-33.742187 15.136719-33.742187 33.742188v270.085937c0 18.605469 15.136719 33.742188 33.742187 33.742188h20.605469c-18.605469 0-33.746094-15.136719-33.746094-33.742188zm0 0" fill="#3e4151"/><path d="m447.496094 147.175781h-382.992188c-1.386718 0-2.601562 1.214844-2.601562 2.601563v270.085937c0 1.382813 1.214844 2.597657 2.601562 2.597657h382.992188c1.386718 0 2.601562-1.214844 2.601562-2.597657 0-7.769531 0-266.414062 0-270.085937 0-1.382813-1.214844-2.601563-2.601562-2.601563zm0 0" fill="#b4e1f9"/><path d="m82.507812 419.863281c0-7.464843 0-263.273437 0-270.085937 0-1.382813 1.214844-2.597656 2.601563-2.597656h-20.605469c-1.386718 0-2.601562 1.214843-2.601562 2.597656v270.085937c0 1.386719 1.214844 2.601563 2.601562 2.601563h20.605469c-1.386719 0-2.601563-1.21875-2.601563-2.601563zm0 0" fill="#72bdf6"/><path d="m493.484375 453.605469c-6.671875 0-468.570313 0-474.96875 0-10.183594 0-18.515625 8.332031-18.515625 18.515625v15.046875c0 10.183593 8.332031 18.515625 18.515625 18.515625h474.96875c10.183594 0 18.515625-8.332032 18.515625-18.515625v-15.046875c0-10.183594-8.332031-18.515625-18.515625-18.515625zm0 0" fill="#e4e3e1"/><path d="m493.484375 484.746094h-474.96875c-9.179687 0-16.832031-6.773438-18.257813-15.570313-.15625.960938-.257812 1.941407-.257812 2.945313v15.046875c0 10.183593 8.332031 18.515625 18.515625 18.515625h474.96875c10.183594 0 18.515625-8.332032 18.515625-18.515625v-15.046875c0-1.003906-.101562-1.984375-.257812-2.945313-1.425782 8.796875-9.078126 15.570313-18.257813 15.570313zm0 0" fill="#d1d0cf"/><path d="m447.496094 145.117188h-382.992188c-1.386718 0-2.601562 1.214843-2.601562 2.601562v28.539062h388.195312c0-16.957031 0-27.808593 0-28.539062 0-1.386719-1.214844-2.601562-2.601562-2.601562zm0 0" fill="#4b98d4"/><path d="m93.042969 145.117188h-28.539063c-1.386718 0-2.601562 1.214843-2.601562 2.601562v28.539062h31.140625zm0 0" fill="#ed5454"/><path d="m85.109375 145.117188h-20.605469c-1.386718 0-2.601562 1.214843-2.601562 2.601562v28.539062h20.605468c0-16.484374 0-27.214843 0-28.539062 0-1.386719 1.214844-2.601562 2.601563-2.601562zm0 0" fill="#ea3f3f"/><path d="m181.605469 453.605469v16.261719c0 8.21875 6.660156 14.878906 14.878906 14.878906h119.03125c8.21875 0 14.878906-6.660156 14.878906-14.878906v-16.261719zm0 0" fill="#c1c1c1"/><path d="m202.210938 469.867188v-16.261719h-20.605469v16.261719c0 8.21875 6.660156 14.878906 14.878906 14.878906h20.605469c-8.21875 0-14.878906-6.660156-14.878906-14.878906zm0 0" fill="#afafaf"/><path d="m193.71875 239.042969c13.214844 9.640625 20.800781 25.207031 20.800781 41.566406v9.546875h83.046875v-6.328125c0-18.109375 8.371094-35.238281 22.75-46.242187 25.265625-19.34375 41.566406-49.8125 41.566406-84.09375 0-58.148438-46.898437-105.347657-104.933593-105.835938-58.550781-.488281-106.746094 47.285156-106.746094 105.839844 0 35.152344 17.136719 66.296875 43.515625 85.546875zm0 0" fill="#ffc964"/><path d="m214.324219 239.042969c-26.378907-19.25-43.515625-50.394531-43.515625-85.546875 0-54.777344 42.175781-100.113282 95.554687-105.335938-3.105469-.300781-6.242187-.476562-9.417969-.5-58.550781-.492187-106.742187 47.28125-106.742187 105.835938 0 35.152344 17.136719 66.296875 43.515625 85.546875 13.214844 9.640625 20.800781 25.207031 20.800781 41.566406v9.546875h20.605469v-9.546875c0-16.355469-7.585938-31.925781-20.800781-41.566406zm0 0" fill="#f3a334"/><g fill="#ffc964"><path d="m388.539062 76.996094c-2.132812-3.695313-6.859374-4.960938-10.554687-2.828125l-15.152344 8.75c-3.695312 2.132812-4.960937 6.859375-2.828125 10.554687 2.132813 3.695313 6.859375 4.960938 10.554688 2.828125l15.152344-8.75c3.695312-2.132812 4.960937-6.859375 2.828124-10.554687zm0 0"/><path d="m332.539062 20.996094c-3.695312-2.132813-8.421874-.867188-10.554687 2.828125l-8.746094 15.152343c-2.136719 3.695313-.867187 8.421876 2.828125 10.554688 3.695313 2.136719 8.421875.867188 10.554688-2.828125l8.746094-15.152344c2.132812-3.695312.867187-8.417969-2.828126-10.554687zm0 0"/><path d="m256.042969.5c-4.265625 0-7.726563 3.460938-7.726563 7.726562v17.496094c0 4.265625 3.457032 7.726563 7.726563 7.726563 4.265625 0 7.726562-3.460938 7.726562-7.726563v-17.496094c0-4.265624-3.460937-7.726562-7.726562-7.726562zm0 0"/><path d="m190.101562 23.824219c-2.136718-3.695313-6.859374-4.960938-10.554687-2.828125-3.695313 2.136718-4.964844 6.859375-2.828125 10.554687l8.746094 15.152344c2.132812 3.695313 6.859375 4.960937 10.554687 2.828125 3.695313-2.132812 4.960938-6.859375 2.828125-10.554688zm0 0"/><path d="m149.25 82.917969-15.148438-8.75c-3.699218-2.132813-8.421874-.867188-10.554687 2.828125-2.136719 3.695312-.867187 8.421875 2.828125 10.554687l15.148438 8.75c3.699218 2.132813 8.421874.867188 10.554687-2.828125 2.136719-3.695312.867187-8.421875-2.828125-10.554687zm0 0"/></g><path d="m234.910156 353.628906c3.039063 13.480469 11.347656 23.15625 21.132813 23.15625 9.78125 0 18.09375-9.679687 21.132812-23.15625zm0 0" fill="#4b98d4"/><path d="m255.515625 353.628906h-20.605469c3.039063 13.480469 11.347656 23.15625 21.132813 23.15625 3.714843 0 7.21875-1.402344 10.300781-3.875-5.03125-4.035156-8.945312-10.925781-10.828125-19.28125zm0 0" fill="#2472b2"/><path d="m256.042969 301.601562c-4.265625 0-7.726563-3.460937-7.726563-7.726562v-112.644531c0-4.265625 3.457032-7.726563 7.726563-7.726563 4.265625 0 7.726562 3.460938 7.726562 7.726563v112.644531c0 4.265625-3.460937 7.726562-7.726562 7.726562zm0 0" fill="#f3a334"/><path d="m299.800781 290.15625h-87.515625c-3.527344 0-6.390625 2.859375-6.390625 6.390625v27.550781c0 16.742188 13.574219 30.316406 30.320313 30.316406h39.65625c16.746094 0 30.320312-13.574218 30.320312-30.316406v-27.550781c-.003906-3.53125-2.863281-6.390625-6.390625-6.390625zm0 0" fill="#e4e3e1"/><path d="m226.5 324.097656v-27.550781c0-3.53125 2.859375-6.390625 6.386719-6.390625h-20.601563c-3.53125 0-6.390625 2.859375-6.390625 6.390625v27.550781c0 16.742188 13.574219 30.316406 30.316407 30.316406h20.605468c-16.742187 0-30.316406-13.574218-30.316406-30.316406zm0 0" fill="#d1d0cf"/><path d="m205.894531 322.285156v1.8125c0 16.742188 13.574219 30.316406 30.320313 30.316406h39.65625c16.746094 0 30.320312-13.574218 30.320312-30.316406v-1.8125zm0 0" fill="#d1d0cf"/><path d="m226.5 324.097656v-1.8125h-20.605469v1.8125c0 16.742188 13.574219 30.316406 30.320313 30.316406h20.605468c-16.746093 0-30.320312-13.574218-30.320312-30.316406zm0 0" fill="#c1c1c1"/><path d="m292.285156 173.746094c-1.015625-16.324219-20.722656-24.695313-33.140625-13.511719-1.761719 1.582031-4.441406 1.582031-6.203125 0-12.421875-11.1875-32.128906-2.808594-33.140625 13.511719-1.09375 17.613281 19.613281 27.789062 32.859375 16.300781 1.9375-1.679687 4.828125-1.679687 6.765625 0 13.21875 11.464844 33.953125 1.363281 32.859375-16.300781zm0 0" fill="#f3a334"/><path d="m289.679688 165.085938c-5.859376 10.03125-20.21875 13.765624-30.253907 5.0625-1.941406-1.679688-4.828125-1.679688-6.765625 0-10.054687 8.714843-24.394531 4.949218-30.25-5.066407-1.464844 2.519531-2.410156 5.433594-2.609375 8.664063-1.09375 17.613281 19.613281 27.789062 32.859375 16.300781 1.9375-1.679687 4.824219-1.679687 6.765625 0 13.222657 11.464844 33.953125 1.359375 32.859375-16.300781-.203125-3.230469-1.144531-6.140625-2.605468-8.660156zm0 0" fill="#ea7f2f"/></svg>