<svg height="511pt" viewBox="1 -14 511.999 511" width="511pt" xmlns="http://www.w3.org/2000/svg"><path d="M238.3 377.941h35.395v75.207h-35.394zm0 0" fill="#3e4151"/><path d="M238.3 377.941h20.606v75.207h-20.605zm0 0" fill="#353744"/><path d="M473.648.5H38.352C17.203.5 0 17.703 0 38.852V345.82c0 21.145 17.203 38.348 38.352 38.348h435.296c21.149 0 38.352-17.203 38.352-38.348V38.852C512 17.703 494.797.5 473.648.5zm0 0" fill="#525468"/><path d="M20.605 345.82V38.852C20.605 17.703 37.81.5 58.957.5H38.352C17.203.5 0 17.703 0 38.852V345.82c0 21.145 17.203 38.348 38.352 38.348h20.605c-21.148 0-38.352-17.203-38.352-38.348zm0 0" fill="#3e4151"/><path d="M473.648 35.895H38.352c-1.575 0-2.957 1.382-2.957 2.957V345.82c0 1.575 1.382 2.957 2.957 2.957h435.296c1.575 0 2.957-1.382 2.957-2.957V38.852c0-1.575-1.382-2.957-2.957-2.957zm0 0" fill="#b4e1f9"/><path d="M56 345.82V38.852c0-1.575 1.383-2.957 2.957-2.957H38.352c-1.575 0-2.957 1.382-2.957 2.957V345.82c0 1.575 1.382 2.957 2.957 2.957h20.605c-1.574-.004-2.957-1.382-2.957-2.957zm0 0" fill="#72bdf6"/><path d="M364.113 447.902H147.887c-9.489 0-17.176 7.688-17.176 17.176v1.043c0 9.484 7.687 17.176 17.176 17.176h216.226c9.489 0 17.176-7.692 17.176-17.176v-1.043c0-9.488-7.687-17.176-17.176-17.176zm0 0" fill="#525468"/><path d="M364.113 462.691H147.887c-5.852 0-11.008-2.93-14.11-7.394a17.08 17.08 0 0 0-3.066 9.781v1.043c0 9.484 7.687 17.176 17.176 17.176h216.226c9.489 0 17.176-7.692 17.176-17.176v-1.043a17.08 17.08 0 0 0-3.066-9.781c-3.102 4.465-8.258 7.394-14.11 7.394zm0 0" fill="#3e4151"/><path d="M473.648 33.836H38.352c-1.575 0-2.957 1.379-2.957 2.957V69.23h441.21V36.793c0-1.578-1.382-2.957-2.957-2.957zm0 0" fill="#4b98d4"/><path d="M70.79 33.836H38.351c-1.575 0-2.957 1.379-2.957 2.957V69.23h35.394zm0 0" fill="#ed5454"/><path d="M58.914 33.836H38.352c-1.575 0-2.957 1.379-2.957 2.957V69.23h20.562V36.793c0-1.578 1.383-2.957 2.957-2.957zm0 0" fill="#ea3f3f"/><path d="M401.617 113.094h-22.703a5.079 5.079 0 0 0-5.078 5.082v192.027h32.863V118.176a5.082 5.082 0 0 0-5.082-5.082zm0 0" fill="#ed5454"/><path d="M334.703 149.867h-22.707a5.078 5.078 0 0 0-5.078 5.078v155.258h32.863V154.945a5.078 5.078 0 0 0-5.078-5.078zm0 0" fill="#ffc964"/><path d="M133.95 260.18h-22.704a5.081 5.081 0 0 0-5.078 5.082v44.941h32.863v-44.941a5.082 5.082 0 0 0-5.082-5.082zm0 0" fill="#525468"/><path d="M200.867 223.41h-22.703a5.078 5.078 0 0 0-5.078 5.078v81.715h32.86v-81.715a5.073 5.073 0 0 0-5.079-5.078zm0 0" fill="#4b98d4"/><path d="M267.785 186.637h-22.703a5.085 5.085 0 0 0-5.082 5.082v118.484h32.863V191.72a5.081 5.081 0 0 0-5.078-5.082zm0 0" fill="#9ad14b"/><path d="M399.52 113.094h-20.606a5.079 5.079 0 0 0-5.078 5.082v192.027h20.605V118.176a5.081 5.081 0 0 1 5.079-5.082zm0 0" fill="#ea3f3f"/><path d="M332.605 149.867H312a5.079 5.079 0 0 0-5.082 5.078v155.258h20.605V154.945a5.079 5.079 0 0 1 5.082-5.078zm0 0" fill="#f3a334"/><path d="M131.852 260.18h-20.606a5.081 5.081 0 0 0-5.078 5.082v44.941h20.605v-44.941a5.081 5.081 0 0 1 5.079-5.082zm0 0" fill="#3e4151"/><path d="M198.77 223.41h-20.606a5.078 5.078 0 0 0-5.078 5.078v81.715h20.605v-81.715a5.078 5.078 0 0 1 5.079-5.078zm0 0" fill="#2472b2"/><path d="M265.688 186.637h-20.606a5.081 5.081 0 0 0-5.078 5.082v118.484h20.601V191.72a5.085 5.085 0 0 1 5.082-5.082zm0 0" fill="#76ab29"/><path d="M418.54 317.93H96.921a7.727 7.727 0 0 1 0-15.453h321.617a7.726 7.726 0 1 1 0 15.453zm0 0" fill="#72bdf6"/></svg>