<svg height="511pt" viewBox="1 -14 511.999 511" width="511pt" xmlns="http://www.w3.org/2000/svg"><path d="m238.300781 377.941406h35.394531v75.207032h-35.394531zm0 0" fill="#3e4151"/><path d="m238.300781 377.941406h20.605469v75.207032h-20.605469zm0 0" fill="#353744"/><path d="m473.648438.5h-435.296876c-21.148437 0-38.351562 17.203125-38.351562 38.351562v306.96875c0 21.144532 17.203125 38.347657 38.351562 38.347657h435.296876c21.148437 0 38.351562-17.203125 38.351562-38.347657 0-8.191406 0-298.636718 0-306.96875 0-21.148437-17.203125-38.351562-38.351562-38.351562zm0 0" fill="#525468"/><path d="m20.605469 345.820312c0-8.335937 0-298.78125 0-306.96875 0-21.148437 17.203125-38.351562 38.351562-38.351562h-20.605469c-21.148437 0-38.351562 17.203125-38.351562 38.351562v306.96875c0 21.144532 17.203125 38.347657 38.351562 38.347657h20.605469c-21.148437 0-38.351562-17.203125-38.351562-38.347657zm0 0" fill="#3e4151"/><path d="m473.648438 35.894531h-435.296876c-1.574218 0-2.957031 1.382813-2.957031 2.957031v306.96875c0 1.574219 1.382813 2.957032 2.957031 2.957032h435.296876c1.574218 0 2.957031-1.382813 2.957031-2.957032 0-8.832031 0-302.796874 0-306.96875 0-1.574218-1.382813-2.957031-2.957031-2.957031zm0 0" fill="#b4e1f9"/><path d="m56 345.820312c0-8.488281 0-299.226562 0-306.96875 0-1.574218 1.382812-2.957031 2.957031-2.957031h-20.605469c-1.574218 0-2.957031 1.382813-2.957031 2.957031v306.96875c0 1.574219 1.382813 2.957032 2.957031 2.957032h20.605469c-1.574219-.003906-2.957031-1.382813-2.957031-2.957032zm0 0" fill="#72bdf6"/><path d="m364.113281 447.902344h-216.226562c-9.488281 0-17.175781 7.6875-17.175781 17.175781v1.042969c0 9.484375 7.6875 17.175781 17.175781 17.175781h216.226562c9.488281 0 17.175781-7.691406 17.175781-17.175781v-1.042969c0-9.488281-7.6875-17.175781-17.175781-17.175781zm0 0" fill="#525468"/><path d="m364.113281 462.691406h-216.226562c-5.851563 0-11.007813-2.929687-14.109375-7.394531-1.929688 2.777344-3.066406 6.144531-3.066406 9.78125v1.042969c0 9.484375 7.6875 17.175781 17.175781 17.175781h216.226562c9.488281 0 17.175781-7.691406 17.175781-17.175781v-1.042969c0-3.636719-1.136718-7.003906-3.066406-9.78125-3.101562 4.464844-8.257812 7.394531-14.109375 7.394531zm0 0" fill="#3e4151"/><path d="m473.648438 33.835938h-435.296876c-1.574218 0-2.957031 1.378906-2.957031 2.957031v32.4375h441.210938c0-19.277344 0-31.609375 0-32.4375 0-1.578125-1.382813-2.957031-2.957031-2.957031zm0 0" fill="#4b98d4"/><path d="m70.789062 33.835938h-32.4375c-1.574218 0-2.957031 1.378906-2.957031 2.957031v32.4375h35.394531zm0 0" fill="#ed5454"/><path d="m58.914062 33.835938h-20.5625c-1.574218 0-2.957031 1.378906-2.957031 2.957031v32.4375h20.5625c0-18.734375 0-30.933594 0-32.4375 0-1.578125 1.382813-2.957031 2.957031-2.957031zm0 0" fill="#ea3f3f"/><path d="m401.617188 113.09375h-22.703126c-2.804687 0-5.078124 2.273438-5.078124 5.082031v192.027344h32.863281v-192.027344c0-2.804687-2.273438-5.082031-5.082031-5.082031zm0 0" fill="#ed5454"/><path d="m334.703125 149.867188h-22.707031c-2.804688 0-5.078125 2.273437-5.078125 5.078124v155.257813h32.863281v-155.257813c0-2.804687-2.273438-5.078124-5.078125-5.078124zm0 0" fill="#ffc964"/><path d="m133.949219 260.179688h-22.703125c-2.804688 0-5.078125 2.277343-5.078125 5.082031v44.941406h32.863281v-44.941406c0-2.804688-2.273438-5.082031-5.082031-5.082031zm0 0" fill="#525468"/><path d="m200.867188 223.410156h-22.703126c-2.804687 0-5.078124 2.273438-5.078124 5.078125v81.714844h32.859374v-81.714844c.003907-2.804687-2.269531-5.078125-5.078124-5.078125zm0 0" fill="#4b98d4"/><path d="m267.785156 186.636719h-22.703125c-2.804687 0-5.082031 2.277343-5.082031 5.082031v118.484375h32.863281v-118.484375c0-2.804688-2.273437-5.082031-5.078125-5.082031zm0 0" fill="#9ad14b"/><path d="m399.519531 113.09375h-20.605469c-2.804687 0-5.078124 2.273438-5.078124 5.082031v192.027344h20.605468v-192.027344c0-2.804687 2.273438-5.082031 5.078125-5.082031zm0 0" fill="#ea3f3f"/><path d="m332.605469 149.867188h-20.605469c-2.808594 0-5.082031 2.273437-5.082031 5.078124v155.257813h20.605469v-155.257813c0-2.804687 2.273437-5.078124 5.082031-5.078124zm0 0" fill="#f3a334"/><path d="m131.851562 260.179688h-20.605468c-2.804688 0-5.078125 2.277343-5.078125 5.082031v44.941406h20.605469v-44.941406c0-2.804688 2.273437-5.082031 5.078124-5.082031zm0 0" fill="#3e4151"/><path d="m198.769531 223.410156h-20.605469c-2.804687 0-5.078124 2.273438-5.078124 5.078125v81.714844h20.605468v-81.714844c0-2.804687 2.273438-5.078125 5.078125-5.078125zm0 0" fill="#2472b2"/><path d="m265.6875 186.636719h-20.605469c-2.804687 0-5.078125 2.277343-5.078125 5.082031v118.484375h20.601563v-118.484375c0-2.804688 2.277343-5.082031 5.082031-5.082031zm0 0" fill="#76ab29"/><path d="m418.539062 317.929688h-321.617187c-4.269531 0-7.730469-3.460938-7.730469-7.726563 0-4.269531 3.460938-7.726563 7.730469-7.726563h321.617187c4.265626 0 7.726563 3.457032 7.726563 7.726563 0 4.265625-3.460937 7.726563-7.726563 7.726563zm0 0" fill="#72bdf6"/></svg>