<svg height="511pt" viewBox="0 0 511 512" width="511pt" xmlns="http://www.w3.org/2000/svg"><path d="M504.89 255.957c0 137.215-111.23 248.445-248.445 248.445C119.23 504.402 8 393.172 8 255.957 8 118.747 119.23 7.512 256.445 7.512c137.215 0 248.446 111.234 248.446 248.445zm0 0" fill="#4b98d4"/><path d="M35.64 255.957c0-132.574 103.844-240.887 234.626-248.059C127.18.051 7.996 113.855 7.996 255.957c0 142.098 119.172 255.906 262.27 248.059C139.484 496.844 35.64 388.53 35.64 255.957zm0 0" fill="#2472b2"/><path d="M512.39 255.957c0-57.242-18.714-112.652-54.82-158.328-101.914-129.613-299.457-130.73-402.25 0C20.113 142.168.5 197.258.5 255.957c0 157.992 141.246 277.594 296.379 252.773C418.645 489.516 512.39 384.105 512.39 255.957zM50.47 131.078c16.054 6.774 35.367 12.621 57.086 17.387-9.16 31.047-14.278 64.93-14.914 99.996H15.625c1.25-40.957 12.898-81.34 34.844-117.383zm446.797 117.383H420.25c-.637-35.07-5.754-68.95-14.914-99.996 21.723-4.77 41.043-10.613 57.098-17.395 20.957 34.442 33.511 74.524 34.832 117.39zM462.43 380.84c-16.059-6.778-35.375-12.621-57.094-17.39 9.16-31.048 14.277-64.927 14.914-99.993h77.016C496 304.59 484.363 344.766 462.43 380.84zM329.11 485.695c16.25-12.511 31.199-29.312 44.261-50.066 10.961-17.414 20.133-36.899 27.383-57.871 20.2 4.37 38.234 9.691 53.336 15.844-30.41 43.562-74.438 76.085-124.98 92.093zM92.64 263.457c.637 35.066 5.755 68.945 14.915 99.992-21.72 4.766-41.032 10.613-57.086 17.39-21.617-35.53-33.57-75.75-34.844-117.382zm91.153-237.246c-34.066 26.223-57.668 67.48-71.656 107.95-20.2-4.376-38.235-9.696-53.336-15.849 30.027-42.984 73.715-75.851 124.992-92.101zM58.801 393.6c15.101-6.152 33.136-11.472 53.336-15.843 13.988 40.465 37.586 81.719 71.644 107.937-49.125-15.558-93.851-47.453-124.98-92.093zm190.144 102.997c-60.004-4.852-101.77-64.614-121.98-121.817 36.09-6.66 77.976-10.484 121.98-10.879zm14.996-132.696c44.008.395 85.891 4.22 121.98 10.88-6.765 19.148-15.218 36.929-25.245 52.859-26.309 41.8-60.418 66.023-96.735 68.957zm0-14.996v-85.449H405.25c-.645 34.11-5.668 66.988-14.652 96.98-37.52-7.074-81.043-11.128-126.657-11.53zm0-100.445v-85.453c45.61-.403 89.137-4.457 126.657-11.531 8.984 29.996 14.007 62.87 14.652 96.984zm0-100.45V15.317c60.008 4.852 101.77 64.614 121.98 121.817-36.089 6.664-77.972 10.488-121.98 10.879zM248.945 15.317v132.696c-44.004-.39-85.89-4.215-121.98-10.88 20.203-57.171 62.004-116.968 121.98-121.816zm0 147.692v85.449H107.641c.644-34.11 5.668-66.988 14.648-96.98 37.524 7.074 81.047 11.128 126.656 11.53zm0 100.449v85.45c-45.61.402-89.132 4.456-126.656 11.53-8.98-29.992-14.008-62.87-14.648-96.98zM400.754 134.16c-13.996-40.48-37.598-81.734-71.656-107.95C380.215 42.415 424 75.239 454.09 118.313c-15.102 6.153-33.137 11.473-53.336 15.848zm0 0" fill="#72bdf6"/><path d="M364.176 408.57l-33.242-33.246a7.497 7.497 0 0 1 0-10.605 7.493 7.493 0 0 1 10.601 0l33.246 33.246a7.497 7.497 0 0 1 0 10.605 7.504 7.504 0 0 1-10.605 0zm0 0" fill="#e4e3e1"/><path d="M371.75 390.93l-14.605 14.605c-6.934 6.934-6.934 18.172 0 25.102l68.628 68.629c6.93 6.93 18.168 6.93 25.098 0l14.606-14.61c6.933-6.93 6.933-18.168.003-25.097l-68.628-68.63c-6.934-6.929-18.172-6.929-25.102 0zm0 0" fill="#ed5454"/><path d="M445.77 499.266l-68.63-68.63c-6.933-6.929-6.933-18.167 0-25.1l14.606-14.606a17.903 17.903 0 0 1 2.55-2.102c-6.91-4.726-16.413-4.031-22.546 2.102l-14.61 14.605c-6.93 6.934-6.93 18.172 0 25.102l68.63 68.629c6.136 6.132 15.64 6.828 22.55 2.101a17.48 17.48 0 0 1-2.55-2.101zm0 0" fill="#ea3f3f"/><path d="M341.473 205.59c-46.856-46.856-122.82-46.856-169.676 0-46.856 46.851-46.856 122.82 0 169.676 46.855 46.851 122.82 46.851 169.676 0 46.855-46.856 46.855-122.825 0-169.676zm0 0" fill="#525468"/><path d="M322.617 224.238c-36.555-36.554-95.82-36.554-132.375 0-36.554 36.555-36.554 95.82 0 132.375 36.555 36.555 95.82 36.555 132.375 0 36.559-36.554 36.559-95.82 0-132.375zm0 0" fill="#ffc964"/><path d="M301.668 266.063c-5.195-5.008-13.563-4.622-18.664.48l-30.137 30.137a3.848 3.848 0 0 1-5.437 0l-15.367-15.367c-5.172-5.176-13.602-5.118-18.704.175-5.007 5.196-4.625 13.563.48 18.664l27.044 27.043c5.117 5.121 13.414 5.118 18.531 0l42.43-42.425c5.176-5.176 5.117-13.602-.176-18.707zm0 0" fill="#e4e3e1"/><path d="M191.797 375.266c-72.356-72.356-26.266-195.993 74.84-204.395-33.946-2.824-68.864 8.742-94.836 34.719-46.856 46.851-46.856 122.82 0 169.676 25.972 25.972 60.89 37.539 94.836 34.718-27.293-2.27-53.957-13.836-74.84-34.718zm0 0" fill="#3e4151"/><path d="M210.242 356.617c-55.715-55.715-21.52-150.945 56.192-159.246-27.168-2.902-55.364 6.04-76.188 26.863-36.559 36.559-36.559 95.825 0 132.383 20.824 20.824 49.02 29.766 76.188 26.863-20.524-2.19-40.461-11.132-56.192-26.863zm0 0" fill="#f3a334"/><path d="M233.836 300.152c-4.914-4.914-5.438-12.843-1-18.066l-.774-.773c-5.175-5.176-13.601-5.118-18.703.175-5.007 5.196-4.625 13.563.477 18.664l27.047 27.043c5.117 5.121 13.414 5.118 18.531 0l.734-.73zm0 0" fill="#d1d0cf"/><path d="M371.848 445.34l53.922 53.926c6.933 6.93 18.167 6.93 25.101 0l14.606-14.61c6.93-6.93 6.93-18.168 0-25.097l-53.922-53.922zm0 0" fill="#ea3f3f"/><path d="M381.848 435.344l-10 10c40.425 40.426 50.765 50.765 53.925 53.922a.205.205 0 0 0 .043.039c6.043 6.007 15.536 6.824 22.504 2.062a17.688 17.688 0 0 1-2.55-2.101zm0 0" fill="#d4352f"/></svg>