<svg height="512pt" viewBox="0 0 512 512" width="512pt" xmlns="http://www.w3.org/2000/svg"><path d="M420.648 457.238H91.352c-20.176 0-36.59-16.414-36.59-36.59V91.352c0-20.176 16.414-36.59 36.59-36.59h329.3c20.172 0 36.586 16.414 36.586 36.59v329.3c0 20.172-16.414 36.586-36.59 36.586zm0 0" fill="#e4e3e1"/><path d="M118.219 100.496c0 9.79-7.934 17.723-17.723 17.723-9.789 0-17.723-7.934-17.723-17.723 0-9.789 7.934-17.723 17.723-17.723 9.79 0 17.723 7.934 17.723 17.723zm0 0M429.227 100.496c0 9.79-7.934 17.723-17.723 17.723-9.79 0-17.723-7.934-17.723-17.723 0-9.789 7.934-17.723 17.723-17.723 9.789 0 17.723 7.934 17.723 17.723zm0 0M118.219 411.504c0 9.789-7.934 17.723-17.723 17.723-9.789 0-17.723-7.934-17.723-17.723 0-9.79 7.934-17.723 17.723-17.723 9.79 0 17.723 7.934 17.723 17.723zm0 0M429.227 411.504c0 9.789-7.934 17.723-17.723 17.723-9.79 0-17.723-7.934-17.723-17.723 0-9.79 7.934-17.723 17.723-17.723 9.789 0 17.723 7.934 17.723 17.723zm0 0" fill="#d1d0cf"/><path d="M396.898 138.375a40.854 40.854 0 0 1-23.27-23.273 22.867 22.867 0 0 0-21.323-14.602h-192.61a22.867 22.867 0 0 0-21.324 14.602 40.854 40.854 0 0 1-23.27 23.273 22.861 22.861 0 0 0-14.605 21.32v192.61c0 9.441 5.8 17.91 14.606 21.324a40.847 40.847 0 0 1 23.27 23.27 22.87 22.87 0 0 0 21.323 14.605h192.61c9.441 0 17.91-5.8 21.32-14.606a40.854 40.854 0 0 1 23.273-23.27 22.867 22.867 0 0 0 14.602-21.323v-192.61a22.852 22.852 0 0 0-14.602-21.32zm0 0" fill="#ffc964"/><path d="M74.762 420.652v-329.3c0-20.176 16.414-36.59 36.59-36.59h-20c-20.176 0-36.59 16.414-36.59 36.59v329.3c0 20.172 16.414 36.586 36.59 36.586h20c-20.176 0-36.59-16.414-36.59-36.586zm0 0" fill="#d1d0cf"/><path d="M102.777 100.496c0-6.074 3.059-11.433 7.723-14.625a17.616 17.616 0 0 0-10-3.098c-9.79 0-17.727 7.934-17.727 17.723 0 9.79 7.938 17.723 17.727 17.723 3.71 0 7.152-1.145 10-3.094-4.664-3.191-7.723-8.55-7.723-14.629zm0 0M413.781 100.496c0-6.074 3.063-11.433 7.723-14.625a17.616 17.616 0 0 0-10-3.098c-9.79 0-17.723 7.934-17.723 17.723 0 9.79 7.934 17.723 17.723 17.723 3.71 0 7.152-1.145 10-3.094-4.66-3.191-7.723-8.55-7.723-14.629zm0 0M102.777 411.504c0-6.078 3.059-11.438 7.723-14.629a17.642 17.642 0 0 0-10-3.094c-9.79 0-17.727 7.934-17.727 17.723 0 9.789 7.938 17.723 17.727 17.723 3.71 0 7.152-1.145 10-3.098-4.664-3.191-7.723-8.55-7.723-14.625zm0 0M413.781 411.504c0-6.078 3.063-11.438 7.723-14.629a17.642 17.642 0 0 0-10-3.094c-9.79 0-17.723 7.934-17.723 17.723 0 9.789 7.934 17.723 17.723 17.723 3.71 0 7.152-1.145 10-3.098-4.66-3.191-7.723-8.55-7.723-14.625zm0 0" fill="#c1c1c1"/><path d="M158.375 396.898a40.842 40.842 0 0 0-23.273-23.27 22.872 22.872 0 0 1-14.602-21.323v-192.61c0-9.441 5.8-17.91 14.602-21.32a40.86 40.86 0 0 0 23.273-23.273 22.861 22.861 0 0 1 21.32-14.602h-20a22.858 22.858 0 0 0-21.32 14.602 40.871 40.871 0 0 1-23.273 23.273 22.858 22.858 0 0 0-14.602 21.32v192.61c0 9.441 5.797 17.91 14.602 21.324a40.865 40.865 0 0 1 23.273 23.27 22.861 22.861 0 0 0 21.32 14.605h20c-9.437 0-17.91-5.8-21.32-14.606zm0 0" fill="#f3a334"/><g fill="#afafaf"><path d="M119.637 62.262a7.5 7.5 0 0 1-7.5-7.5V7.5a7.5 7.5 0 1 1 15 0v47.262c0 4.14-3.36 7.5-7.5 7.5zm0 0M187.82 62.262a7.503 7.503 0 0 1-7.504-7.5V7.5a7.503 7.503 0 0 1 15.004 0v47.262c0 4.14-3.36 7.5-7.5 7.5zm0 0M256 62.262a7.5 7.5 0 0 1-7.5-7.5V7.5a7.5 7.5 0 1 1 15 0v47.262c0 4.14-3.36 7.5-7.5 7.5zm0 0M324.18 62.262c-4.14 0-7.5-3.36-7.5-7.5V7.5a7.502 7.502 0 0 1 15.004 0v47.262c0 4.14-3.36 7.5-7.504 7.5zm0 0M392.363 62.262c-4.14 0-7.5-3.36-7.5-7.5V7.5a7.5 7.5 0 1 1 15 0v47.262a7.5 7.5 0 0 1-7.5 7.5zm0 0M119.637 512a7.497 7.497 0 0 1-7.5-7.5v-47.262c0-4.144 3.355-7.5 7.5-7.5a7.5 7.5 0 0 1 7.5 7.5V504.5c0 4.14-3.36 7.5-7.5 7.5zm0 0M187.82 512a7.5 7.5 0 0 1-7.504-7.5v-47.262a7.5 7.5 0 0 1 7.504-7.5 7.5 7.5 0 0 1 7.5 7.5V504.5c0 4.14-3.36 7.5-7.5 7.5zm0 0M256 512a7.497 7.497 0 0 1-7.5-7.5v-47.262c0-4.144 3.355-7.5 7.5-7.5a7.5 7.5 0 0 1 7.5 7.5V504.5c0 4.14-3.36 7.5-7.5 7.5zm0 0M324.18 512a7.5 7.5 0 0 1-7.5-7.5v-47.262a7.5 7.5 0 0 1 7.5-7.5 7.5 7.5 0 0 1 7.504 7.5V504.5c0 4.14-3.36 7.5-7.504 7.5zm0 0M392.363 512a7.5 7.5 0 0 1-7.5-7.5v-47.262a7.5 7.5 0 0 1 7.5-7.5c4.145 0 7.5 3.356 7.5 7.5V504.5a7.5 7.5 0 0 1-7.5 7.5zm0 0M54.762 399.863H7.5a7.5 7.5 0 1 1 0-15h47.262a7.5 7.5 0 1 1 0 15zm0 0M54.762 331.684H7.5a7.5 7.5 0 1 1 0-15h47.262a7.5 7.5 0 1 1 0 15zm0 0M54.762 263.5H7.5c-4.14 0-7.5-3.355-7.5-7.5s3.36-7.5 7.5-7.5h47.262c4.14 0 7.5 3.355 7.5 7.5s-3.36 7.5-7.5 7.5zm0 0M54.762 195.32H7.5a7.502 7.502 0 0 1 0-15.004h47.262a7.503 7.503 0 0 1 0 15.004zm0 0M54.762 127.137H7.5a7.5 7.5 0 1 1 0-15h47.262a7.5 7.5 0 1 1 0 15zm0 0M504.5 399.863h-47.262a7.5 7.5 0 1 1 0-15H504.5a7.5 7.5 0 1 1 0 15zm0 0M504.5 331.684h-47.262a7.5 7.5 0 1 1 0-15H504.5a7.5 7.5 0 1 1 0 15zm0 0M504.5 263.5h-47.262c-4.14 0-7.5-3.355-7.5-7.5s3.36-7.5 7.5-7.5H504.5c4.14 0 7.5 3.355 7.5 7.5s-3.36 7.5-7.5 7.5zm0 0M504.5 195.32h-47.262a7.502 7.502 0 0 1 0-15.004H504.5a7.503 7.503 0 0 1 0 15.004zm0 0M504.5 127.137h-47.262a7.5 7.5 0 1 1 0-15H504.5a7.5 7.5 0 1 1 0 15zm0 0"/></g></svg>