<svg height="512pt" viewBox="-2 0 511 512" width="512pt" xmlns="http://www.w3.org/2000/svg"><path d="m328.777344 477.242188h-278.132813c-6.957031 0-13.59375-1.441407-19.632812-4.03125v22.417968c0 9.003906 7.367187 16.371094 16.371093 16.371094h284.65625c9.003907 0 16.371094-7.367188 16.371094-16.371094v-22.417968c-6.039062 2.589843-12.675781 4.03125-19.632812 4.03125zm0 0" fill="#d1d0cf"/><path d="m51.421875 495.628906v-18.386718h-.777344c-6.957031 0-13.59375-1.441407-19.632812-4.03125v22.417968c0 9.003906 7.367187 16.371094 16.371093 16.371094h20.410157c-9.003907 0-16.371094-7.367188-16.371094-16.371094zm0 0" fill="#c1c1c1"/><path d="m440.871094 126.207031h-65.011719v36.113281h65.011719c16.933594 0 30.710937 13.777344 30.710937 30.710938v97.53125c0 46.253906-38.976562 89.230469-95.722656 89.230469v36.109375c77.125 0 131.832031-59.597656 131.832031-125.339844v-97.53125c0-36.847656-29.976562-66.824219-66.820312-66.824219zm0 0" fill="#d1d0cf"/><path d="m375.859375 126.207031h20.410156v36.113281h-20.410156zm0 0" fill="#c1c1c1"/><path d="m461.28125 162.320312h-20.410156c16.933594 0 30.710937 13.777344 30.710937 30.710938v97.53125c0 46.253906-38.976562 89.230469-95.722656 89.230469v36.109375c6.996094 0 13.804687-.496094 20.410156-1.4375v-23.554688c0-5.964844 4.488281-11.042968 10.425781-11.613281 51.042969-4.890625 85.296876-45.371094 85.296876-88.734375v-97.53125c0-16.960938-13.75-30.710938-30.710938-30.710938zm0 0" fill="#c1c1c1"/><path d="m369.910156 66.625h-360.398437c-4.976563 0-9.011719 4.035156-9.011719 9.011719v354.523437c0 27.578125 22.5625 50.140625 50.140625 50.140625h278.136719c27.578125 0 50.144531-22.5625 50.144531-50.140625v-354.523437c0-4.976563-4.035156-9.011719-9.011719-9.011719zm0 0" fill="#e4e3e1"/><path d="m20.914062 430.160156v-354.523437c0-4.976563 4.03125-9.011719 9.007813-9.011719h-20.410156c-4.976563 0-9.011719 4.035156-9.011719 9.011719v354.523437c0 27.578125 22.5625 50.140625 50.140625 50.140625h20.414063c-27.578126 0-50.140626-22.5625-50.140626-50.140625zm0 0" fill="#d1d0cf"/><g fill="#e4e3e1"><path d="m66.210938 40.65625c-4.226563 0-7.652344-3.425781-7.652344-7.652344v-25.351562c0-4.226563 3.425781-7.652344 7.652344-7.652344 4.226562 0 7.65625 3.425781 7.65625 7.652344v25.351562c0 4.226563-3.425782 7.652344-7.65625 7.652344zm0 0"/><path d="m127.960938 40.65625c-4.226563 0-7.652344-3.425781-7.652344-7.652344v-25.351562c0-4.226563 3.425781-7.652344 7.652344-7.652344 4.226562 0 7.652343 3.425781 7.652343 7.652344v25.351562c0 4.226563-3.425781 7.652344-7.652343 7.652344zm0 0"/><path d="m189.710938 40.65625c-4.226563 0-7.65625-3.425781-7.65625-7.652344v-25.351562c0-4.226563 3.429687-7.652344 7.65625-7.652344 4.226562 0 7.652343 3.425781 7.652343 7.652344v25.351562c0 4.226563-3.425781 7.652344-7.652343 7.652344zm0 0"/><path d="m251.460938 40.65625c-4.230469 0-7.65625-3.425781-7.65625-7.652344v-25.351562c0-4.226563 3.429687-7.652344 7.65625-7.652344 4.226562 0 7.652343 3.425781 7.652343 7.652344v25.351562c0 4.226563-3.425781 7.652344-7.652343 7.652344zm0 0"/><path d="m313.207031 40.65625c-4.226562 0-7.652343-3.425781-7.652343-7.652344v-25.351562c0-4.226563 3.425781-7.652344 7.652343-7.652344 4.230469 0 7.65625 3.425781 7.65625 7.652344v25.351562c0 4.226563-3.425781 7.652344-7.65625 7.652344zm0 0"/></g><path d="m89.542969 284.789062c-2.035157-2.035156-2.035157-5.335937 0-7.371093l43.300781-43.300781c5.058594-5.058594 5.003906-13.300782-.171875-18.289063-5.078125-4.898437-13.261719-4.519531-18.25.46875l-55.746094 55.746094c-5.003906 5.003906-5.003906 13.117187 0 18.121093l55.746094 55.746094c4.988281 4.988282 13.171875 5.363282 18.25.46875 5.175781-4.988281 5.234375-13.230468.171875-18.289062zm0 0" fill="#ed5454"/><path d="m322.335938 272.042969-55.921876-55.921875c-5.0625-5.0625-13.300781-5.003906-18.289062.167968-4.898438 5.082032-4.519531 13.261719.46875 18.25l42.550781 42.550782c2.214844 2.214844 2.214844 5.808594 0 8.023437l-42.550781 42.550781c-4.988281 4.988282-5.363281 13.171876-.46875 18.25 4.988281 5.171876 13.230469 5.230469 18.289062.171876l55.921876-55.925782c5.003906-5 5.003906-13.113281 0-18.117187zm0 0" fill="#ed5454"/><path d="m154.804688 363.894531c-6.488282-2.828125-9.453126-10.378906-6.628907-16.867187l61.914063-142.085938c2.828125-6.488281 10.378906-9.453125 16.863281-6.628906 6.488281 2.828125 9.457031 10.378906 6.628906 16.867188l-61.914062 142.085937c-2.828125 6.488281-10.378907 9.453125-16.863281 6.628906zm0 0" fill="#ed5454"/><path d="m79.085938 290.164062c-5.003907-5.003906-5.003907-13.117187 0-18.121093l54.820312-54.820313c-.375-.484375-.777344-.957031-1.234375-1.394531-5.078125-4.898437-13.261719-4.519531-18.25.46875l-55.746094 55.746094c-5.003906 5.003906-5.003906 13.117187 0 18.121093l55.746094 55.746094c4.988281 4.988282 13.171875 5.363282 18.25.46875.457031-.441406.859375-.914062 1.234375-1.398437zm0 0" fill="#ea3f3f"/><path d="m269.003906 327.664062 42.550782-42.550781c2.214843-2.214843 2.214843-5.804687 0-8.019531l-42.550782-42.550781c-4.65625-4.660157-5.289062-12.097657-1.367187-17.199219l-1.222657-1.222656c-5.0625-5.058594-13.300781-5.003906-18.289062.171875-4.898438 5.078125-4.523438 13.261719.46875 18.25l42.550781 42.550781c2.214844 2.214844 2.214844 5.804688 0 8.019531l-42.550781 42.550781c-4.988281 4.988282-5.367188 13.171876-.46875 18.25 4.988281 5.175782 13.226562 5.230469 18.289062.171876l1.222657-1.222657c-3.921875-5.101562-3.289063-12.542969 1.367187-17.199219zm0 0" fill="#ea3f3f"/><path d="m168.589844 347.027344 61.910156-142.085938c.417969-.953125.945312-1.820312 1.546875-2.613281-1.285156-1.699219-3.003906-3.105469-5.09375-4.015625-6.484375-2.824219-14.035156.140625-16.863281 6.628906l-61.914063 142.085938c-2.824219 6.488281.140625 14.039062 6.628907 16.863281 5.53125 2.414063 11.828124.597656 15.320312-4.011719-2.699219-3.570312-3.453125-8.453125-1.535156-12.851562zm0 0" fill="#ea3f3f"/></svg>