<svg height="512pt" viewBox="0 0 512 512" width="512pt" xmlns="http://www.w3.org/2000/svg"><path d="m420.648438 457.238281h-329.296876c-20.175781 0-36.589843-16.414062-36.589843-36.589843v-329.296876c0-20.175781 16.414062-36.589843 36.589843-36.589843h329.300782c20.171875 0 36.585937 16.414062 36.585937 36.589843v329.300782c0 20.171875-16.414062 36.585937-36.589843 36.585937zm0 0" fill="#e4e3e1"/><path d="m118.21875 100.496094c0 9.789062-7.933594 17.722656-17.722656 17.722656-9.789063 0-17.722656-7.933594-17.722656-17.722656 0-9.789063 7.933593-17.722656 17.722656-17.722656 9.789062 0 17.722656 7.933593 17.722656 17.722656zm0 0" fill="#d1d0cf"/><path d="m429.226562 100.496094c0 9.789062-7.933593 17.722656-17.722656 17.722656-9.789062 0-17.722656-7.933594-17.722656-17.722656 0-9.789063 7.933594-17.722656 17.722656-17.722656 9.789063 0 17.722656 7.933593 17.722656 17.722656zm0 0" fill="#d1d0cf"/><path d="m118.21875 411.503906c0 9.789063-7.933594 17.722656-17.722656 17.722656-9.789063 0-17.722656-7.933593-17.722656-17.722656 0-9.789062 7.933593-17.722656 17.722656-17.722656 9.789062 0 17.722656 7.933594 17.722656 17.722656zm0 0" fill="#d1d0cf"/><path d="m429.226562 411.503906c0 9.789063-7.933593 17.722656-17.722656 17.722656-9.789062 0-17.722656-7.933593-17.722656-17.722656 0-9.789062 7.933594-17.722656 17.722656-17.722656 9.789063 0 17.722656 7.933594 17.722656 17.722656zm0 0" fill="#d1d0cf"/><path d="m396.898438 138.375c-10.65625-4.132812-19.140626-12.617188-23.269532-23.273438-3.414062-8.804687-11.882812-14.601562-21.324218-14.601562h-192.609376c-9.441406 0-17.910156 5.796875-21.324218 14.601562-4.128906 10.65625-12.613282 19.140626-23.269532 23.273438-8.804687 3.410156-14.605468 11.878906-14.605468 21.320312v192.609376c0 9.441406 5.800781 17.910156 14.605468 21.324218 10.65625 4.132813 19.140626 12.613282 23.269532 23.269532 3.414062 8.804687 11.882812 14.605468 21.324218 14.605468h192.609376c9.441406 0 17.910156-5.800781 21.320312-14.605468 4.132812-10.65625 12.617188-19.140626 23.273438-23.269532 8.804687-3.414062 14.601562-11.882812 14.601562-21.324218v-192.609376c.003906-9.441406-5.796875-17.910156-14.601562-21.320312zm0 0" fill="#ffc964"/><path d="m74.761719 420.652344v-329.300782c0-20.175781 16.414062-36.589843 36.589843-36.589843h-20c-20.175781 0-36.589843 16.414062-36.589843 36.589843v329.300782c0 20.171875 16.414062 36.585937 36.589843 36.585937h20c-20.175781 0-36.589843-16.414062-36.589843-36.585937zm0 0" fill="#d1d0cf"/><path d="m102.777344 100.496094c0-6.074219 3.058594-11.433594 7.722656-14.625-2.847656-1.953125-6.289062-3.097656-10-3.097656-9.789062 0-17.726562 7.933593-17.726562 17.722656 0 9.789062 7.9375 17.722656 17.726562 17.722656 3.710938 0 7.152344-1.144531 10-3.09375-4.664062-3.191406-7.722656-8.550781-7.722656-14.628906zm0 0" fill="#c1c1c1"/><path d="m413.78125 100.496094c0-6.074219 3.0625-11.433594 7.722656-14.625-2.847656-1.953125-6.289062-3.097656-10-3.097656-9.789062 0-17.722656 7.933593-17.722656 17.722656 0 9.789062 7.933594 17.722656 17.722656 17.722656 3.710938 0 7.152344-1.144531 10-3.09375-4.660156-3.191406-7.722656-8.550781-7.722656-14.628906zm0 0" fill="#c1c1c1"/><path d="m102.777344 411.503906c0-6.078125 3.058594-11.4375 7.722656-14.628906-2.847656-1.949219-6.289062-3.09375-10-3.09375-9.789062 0-17.726562 7.933594-17.726562 17.722656 0 9.789063 7.9375 17.722656 17.726562 17.722656 3.710938 0 7.152344-1.144531 10-3.097656-4.664062-3.191406-7.722656-8.550781-7.722656-14.625zm0 0" fill="#c1c1c1"/><path d="m413.78125 411.503906c0-6.078125 3.0625-11.4375 7.722656-14.628906-2.847656-1.949219-6.289062-3.09375-10-3.09375-9.789062 0-17.722656 7.933594-17.722656 17.722656 0 9.789063 7.933594 17.722656 17.722656 17.722656 3.710938 0 7.152344-1.144531 10-3.097656-4.660156-3.191406-7.722656-8.550781-7.722656-14.625zm0 0" fill="#c1c1c1"/><path d="m158.375 396.898438c-4.132812-10.65625-12.613281-19.140626-23.273438-23.269532-8.800781-3.414062-14.601562-11.882812-14.601562-21.324218v-192.609376c0-9.441406 5.800781-17.910156 14.601562-21.320312 10.660157-4.132812 19.140626-12.617188 23.273438-23.273438 3.410156-8.804687 11.882812-14.601562 21.320312-14.601562h-20c-9.441406 0-17.910156 5.796875-21.320312 14.601562-4.132812 10.65625-12.617188 19.140626-23.273438 23.273438-8.804687 3.410156-14.601562 11.878906-14.601562 21.320312v192.609376c0 9.441406 5.796875 17.910156 14.601562 21.324218 10.65625 4.132813 19.140626 12.613282 23.273438 23.269532 3.410156 8.804687 11.878906 14.605468 21.320312 14.605468h20c-9.4375 0-17.910156-5.800781-21.320312-14.605468zm0 0" fill="#f3a334"/><g fill="#afafaf"><path d="m119.636719 62.261719c-4.144531 0-7.5-3.359375-7.5-7.5v-47.261719c0-4.140625 3.355469-7.5 7.5-7.5 4.140625 0 7.5 3.359375 7.5 7.5v47.261719c0 4.140625-3.359375 7.5-7.5 7.5zm0 0"/><path d="m187.820312 62.261719c-4.144531 0-7.503906-3.359375-7.503906-7.5v-47.261719c0-4.140625 3.359375-7.5 7.503906-7.5 4.140626 0 7.5 3.359375 7.5 7.5v47.261719c0 4.140625-3.359374 7.5-7.5 7.5zm0 0"/><path d="m256 62.261719c-4.144531 0-7.5-3.359375-7.5-7.5v-47.261719c0-4.140625 3.355469-7.5 7.5-7.5 4.140625 0 7.5 3.359375 7.5 7.5v47.261719c0 4.140625-3.359375 7.5-7.5 7.5zm0 0"/><path d="m324.179688 62.261719c-4.140626 0-7.5-3.359375-7.5-7.5v-47.261719c0-4.140625 3.359374-7.5 7.5-7.5 4.144531 0 7.503906 3.359375 7.503906 7.5v47.261719c0 4.140625-3.359375 7.5-7.503906 7.5zm0 0"/><path d="m392.363281 62.261719c-4.140625 0-7.5-3.359375-7.5-7.5v-47.261719c0-4.140625 3.359375-7.5 7.5-7.5 4.144531 0 7.5 3.359375 7.5 7.5v47.261719c0 4.140625-3.355469 7.5-7.5 7.5zm0 0"/><path d="m119.636719 512c-4.144531 0-7.5-3.355469-7.5-7.5v-47.261719c0-4.144531 3.355469-7.5 7.5-7.5 4.140625 0 7.5 3.355469 7.5 7.5v47.261719c0 4.140625-3.359375 7.5-7.5 7.5zm0 0"/><path d="m187.820312 512c-4.144531 0-7.503906-3.355469-7.503906-7.5v-47.261719c0-4.144531 3.359375-7.5 7.503906-7.5 4.140626 0 7.5 3.355469 7.5 7.5v47.261719c0 4.140625-3.359374 7.5-7.5 7.5zm0 0"/><path d="m256 512c-4.144531 0-7.5-3.355469-7.5-7.5v-47.261719c0-4.144531 3.355469-7.5 7.5-7.5 4.140625 0 7.5 3.355469 7.5 7.5v47.261719c0 4.140625-3.359375 7.5-7.5 7.5zm0 0"/><path d="m324.179688 512c-4.140626 0-7.5-3.355469-7.5-7.5v-47.261719c0-4.144531 3.359374-7.5 7.5-7.5 4.144531 0 7.503906 3.355469 7.503906 7.5v47.261719c0 4.140625-3.359375 7.5-7.503906 7.5zm0 0"/><path d="m392.363281 512c-4.140625 0-7.5-3.355469-7.5-7.5v-47.261719c0-4.144531 3.359375-7.5 7.5-7.5 4.144531 0 7.5 3.355469 7.5 7.5v47.261719c0 4.140625-3.355469 7.5-7.5 7.5zm0 0"/><path d="m54.761719 399.863281h-47.261719c-4.140625 0-7.5-3.355469-7.5-7.5 0-4.140625 3.359375-7.5 7.5-7.5h47.261719c4.140625 0 7.5 3.359375 7.5 7.5 0 4.144531-3.359375 7.5-7.5 7.5zm0 0"/><path d="m54.761719 331.683594h-47.261719c-4.140625 0-7.5-3.359375-7.5-7.5 0-4.144532 3.359375-7.5 7.5-7.5h47.261719c4.140625 0 7.5 3.355468 7.5 7.5 0 4.140625-3.359375 7.5-7.5 7.5zm0 0"/><path d="m54.761719 263.5h-47.261719c-4.140625 0-7.5-3.355469-7.5-7.5s3.359375-7.5 7.5-7.5h47.261719c4.140625 0 7.5 3.355469 7.5 7.5s-3.359375 7.5-7.5 7.5zm0 0"/><path d="m54.761719 195.320312h-47.261719c-4.140625 0-7.5-3.359374-7.5-7.5 0-4.144531 3.359375-7.503906 7.5-7.503906h47.261719c4.140625 0 7.5 3.359375 7.5 7.503906 0 4.140626-3.359375 7.5-7.5 7.5zm0 0"/><path d="m54.761719 127.136719h-47.261719c-4.140625 0-7.5-3.359375-7.5-7.5 0-4.144531 3.359375-7.5 7.5-7.5h47.261719c4.140625 0 7.5 3.355469 7.5 7.5 0 4.140625-3.359375 7.5-7.5 7.5zm0 0"/><path d="m504.5 399.863281h-47.261719c-4.140625 0-7.5-3.355469-7.5-7.5 0-4.140625 3.359375-7.5 7.5-7.5h47.261719c4.140625 0 7.5 3.359375 7.5 7.5 0 4.144531-3.359375 7.5-7.5 7.5zm0 0"/><path d="m504.5 331.683594h-47.261719c-4.140625 0-7.5-3.359375-7.5-7.5 0-4.144532 3.359375-7.5 7.5-7.5h47.261719c4.140625 0 7.5 3.355468 7.5 7.5 0 4.140625-3.359375 7.5-7.5 7.5zm0 0"/><path d="m504.5 263.5h-47.261719c-4.140625 0-7.5-3.355469-7.5-7.5s3.359375-7.5 7.5-7.5h47.261719c4.140625 0 7.5 3.355469 7.5 7.5s-3.359375 7.5-7.5 7.5zm0 0"/><path d="m504.5 195.320312h-47.261719c-4.140625 0-7.5-3.359374-7.5-7.5 0-4.144531 3.359375-7.503906 7.5-7.503906h47.261719c4.140625 0 7.5 3.359375 7.5 7.503906 0 4.140626-3.359375 7.5-7.5 7.5zm0 0"/><path d="m504.5 127.136719h-47.261719c-4.140625 0-7.5-3.359375-7.5-7.5 0-4.144531 3.359375-7.5 7.5-7.5h47.261719c4.140625 0 7.5 3.355469 7.5 7.5 0 4.140625-3.359375 7.5-7.5 7.5zm0 0"/></g></svg>