<svg height="512pt" viewBox="0 -3 512 511" width="512pt" xmlns="http://www.w3.org/2000/svg"><path d="M447.496 116.035H64.504c-18.606 0-33.742 15.137-33.742 33.742v270.086c0 18.606 15.136 33.742 33.742 33.742h382.992c18.606 0 33.742-15.136 33.742-33.742V149.777c.004-18.605-15.136-33.742-33.742-33.742zm0 0" fill="#525468"/><path d="M51.363 419.863V149.777c0-18.605 15.137-33.742 33.742-33.742H64.504c-18.606 0-33.742 15.137-33.742 33.742v270.086c0 18.606 15.136 33.742 33.742 33.742h20.605c-18.605 0-33.746-15.136-33.746-33.742zm0 0" fill="#3e4151"/><path d="M447.496 147.176H64.504c-1.387 0-2.602 1.215-2.602 2.601v270.086c0 1.383 1.215 2.598 2.602 2.598h382.992c1.387 0 2.602-1.215 2.602-2.598V149.777c0-1.382-1.215-2.601-2.602-2.601zm0 0" fill="#b4e1f9"/><path d="M82.508 419.863V149.777c0-1.382 1.215-2.597 2.601-2.597H64.504c-1.387 0-2.602 1.215-2.602 2.597v270.086c0 1.387 1.215 2.602 2.602 2.602h20.605c-1.386 0-2.601-1.219-2.601-2.602zm0 0" fill="#72bdf6"/><path d="M493.484 453.605H18.516C8.332 453.605 0 461.938 0 472.121v15.047c0 10.184 8.332 18.516 18.516 18.516h474.968c10.184 0 18.516-8.332 18.516-18.516v-15.047c0-10.183-8.332-18.516-18.516-18.516zm0 0" fill="#e4e3e1"/><path d="M493.484 484.746H18.516c-9.18 0-16.832-6.773-18.258-15.57-.156.96-.258 1.941-.258 2.945v15.047c0 10.184 8.332 18.516 18.516 18.516h474.968c10.184 0 18.516-8.332 18.516-18.516v-15.047c0-1.004-.102-1.984-.258-2.945-1.426 8.797-9.078 15.57-18.258 15.57zm0 0" fill="#d1d0cf"/><path d="M447.496 145.117H64.504c-1.387 0-2.602 1.215-2.602 2.602v28.539h388.196v-28.54c0-1.386-1.215-2.6-2.602-2.6zm0 0" fill="#4b98d4"/><path d="M93.043 145.117h-28.54c-1.386 0-2.6 1.215-2.6 2.602v28.539h31.14zm0 0" fill="#ed5454"/><path d="M85.11 145.117H64.503c-1.387 0-2.602 1.215-2.602 2.602v28.539h20.606v-28.54c0-1.386 1.215-2.6 2.601-2.6zm0 0" fill="#ea3f3f"/><path d="M181.605 453.605v16.262c0 8.219 6.66 14.88 14.88 14.88h119.03c8.22 0 14.88-6.661 14.88-14.88v-16.262zm0 0" fill="#c1c1c1"/><path d="M202.21 469.867v-16.262h-20.605v16.262c0 8.219 6.66 14.88 14.88 14.88h20.605c-8.219 0-14.88-6.661-14.88-14.88zm0 0" fill="#afafaf"/><path d="M193.719 239.043c13.215 9.64 20.8 25.207 20.8 41.566v9.547h83.047v-6.328c0-18.11 8.372-35.238 22.75-46.242 25.266-19.344 41.567-49.813 41.567-84.094 0-58.148-46.899-105.347-104.934-105.836-58.55-.488-106.746 47.285-106.746 105.84 0 35.152 17.137 66.297 43.516 85.547zm0 0" fill="#ffc964"/><path d="M214.324 239.043c-26.379-19.25-43.515-50.395-43.515-85.547 0-54.777 42.175-100.113 95.554-105.336-3.105-.3-6.242-.476-9.418-.5-58.55-.492-106.742 47.281-106.742 105.836 0 35.152 17.137 66.297 43.516 85.547 13.215 9.64 20.8 25.207 20.8 41.566v9.547h20.606v-9.547c0-16.355-7.586-31.925-20.8-41.566zm0 0" fill="#f3a334"/><g fill="#ffc964"><path d="M388.54 76.996a7.727 7.727 0 0 0-10.556-2.828l-15.152 8.75a7.727 7.727 0 0 0 7.727 13.383l15.152-8.75a7.727 7.727 0 0 0 2.828-10.555zm0 0M332.54 20.996a7.727 7.727 0 0 0-10.556 2.828l-8.746 15.153a7.724 7.724 0 0 0 2.828 10.554 7.724 7.724 0 0 0 10.555-2.828l8.746-15.152a7.728 7.728 0 0 0-2.828-10.555zm0 0M256.043.5a7.729 7.729 0 0 0-7.727 7.727v17.496a7.726 7.726 0 1 0 15.454 0V8.227A7.729 7.729 0 0 0 256.043.5zm0 0M190.102 23.824a7.728 7.728 0 0 0-10.555-2.828c-3.695 2.137-4.965 6.86-2.828 10.555l8.746 15.152a7.727 7.727 0 0 0 13.383-7.726zm0 0M149.25 82.918l-15.148-8.75a7.726 7.726 0 0 0-10.555 2.828 7.724 7.724 0 0 0 2.828 10.555l15.148 8.75a7.726 7.726 0 0 0 10.555-2.828 7.724 7.724 0 0 0-2.828-10.555zm0 0"/></g><path d="M234.91 353.629c3.04 13.48 11.348 23.156 21.133 23.156 9.781 0 18.094-9.68 21.133-23.156zm0 0" fill="#4b98d4"/><path d="M255.516 353.629H234.91c3.04 13.48 11.348 23.156 21.133 23.156 3.715 0 7.219-1.402 10.3-3.875-5.03-4.035-8.945-10.926-10.827-19.281zm0 0" fill="#2472b2"/><path d="M256.043 301.602a7.729 7.729 0 0 1-7.727-7.727V181.23a7.726 7.726 0 1 1 15.454 0v112.645a7.729 7.729 0 0 1-7.727 7.727zm0 0" fill="#f3a334"/><path d="M299.8 290.156h-87.515a6.39 6.39 0 0 0-6.39 6.39v27.552c0 16.742 13.574 30.316 30.32 30.316h39.656c16.746 0 30.32-13.574 30.32-30.316v-27.551a6.393 6.393 0 0 0-6.39-6.39zm0 0" fill="#e4e3e1"/><path d="M226.5 324.098v-27.551c0-3.531 2.86-6.39 6.387-6.39h-20.602a6.388 6.388 0 0 0-6.39 6.39v27.55c0 16.743 13.574 30.317 30.316 30.317h20.605c-16.742 0-30.316-13.574-30.316-30.316zm0 0" fill="#d1d0cf"/><path d="M205.895 322.285v1.813c0 16.742 13.574 30.316 30.32 30.316h39.656c16.746 0 30.32-13.574 30.32-30.316v-1.813zm0 0" fill="#d1d0cf"/><path d="M226.5 324.098v-1.813h-20.605v1.813c0 16.742 13.574 30.316 30.32 30.316h20.605c-16.746 0-30.32-13.574-30.32-30.316zm0 0" fill="#c1c1c1"/><path d="M292.285 173.746c-1.015-16.324-20.723-24.695-33.14-13.512a4.647 4.647 0 0 1-6.204 0c-12.421-11.187-32.129-2.808-33.14 13.512-1.094 17.613 19.613 27.79 32.86 16.3a5.172 5.172 0 0 1 6.765 0c13.219 11.466 33.953 1.364 32.86-16.3zm0 0" fill="#f3a334"/><path d="M289.68 165.086c-5.86 10.031-20.22 13.766-30.254 5.062a5.172 5.172 0 0 0-6.766 0c-10.055 8.715-24.394 4.95-30.25-5.066a19.515 19.515 0 0 0-2.61 8.664c-1.093 17.613 19.614 27.79 32.86 16.3a5.172 5.172 0 0 1 6.766 0c13.222 11.466 33.953 1.36 32.86-16.3a19.596 19.596 0 0 0-2.606-8.66zm0 0" fill="#ea7f2f"/></svg>