<svg xmlns="http://www.w3.org/2000/svg" viewBox="0 0 252 252" width="48" height="48"><g fill="none" stroke-miterlimit="10" font-family="none" font-weight="none" font-size="none" text-anchor="none" style="mix-blend-mode:normal"><path d="M0 252V0h252v252z"/><path d="M120.24 17.252c3.566-2 7.955-2 11.514 0 17.614 9.885 70.618 39.642 88.237 49.528 3.565 1.995 5.759 5.691 5.759 9.691v99.052c0 4-2.194 7.697-5.76 9.697-17.613 9.886-70.617 39.643-88.236 49.529-3.565 2-7.954 2-11.513 0-17.614-9.886-70.618-39.643-88.237-49.529-3.56-2-5.754-5.691-5.754-9.691V76.477c0-4 2.195-7.697 5.76-9.697 17.608-9.886 70.622-39.643 88.23-49.528z" fill="#8e44ad"/><path d="M27.846 180.621c-1.397-1.869-1.596-3.643-1.596-6.032V76.104c0-3.98 2.19-7.654 5.744-9.639 17.55-9.828 70.376-39.412 87.927-49.245 3.554-1.99 8.368-1.948 11.922.042 17.551 9.828 70.198 39.16 87.749 48.988 1.417.798 2.499 1.759 3.465 3.024z" fill="#9b59b6"/><path d="M126 52.5c-40.583 0-73.5 32.917-73.5 73.5s32.917 73.5 73.5 73.5 73.5-32.917 73.5-73.5-32.917-73.5-73.5-73.5zm0 110.25c-20.265 0-36.75-16.485-36.75-36.75S105.735 89.25 126 89.25s36.75 16.485 36.75 36.75-16.485 36.75-36.75 36.75z" fill="#fff"/><path d="M223.046 69.326c2.71 2.536 2.657 6.358 2.657 9.366 0 19.924-.168 76.593.047 96.516.021 2.08-.667 4.269-1.696 5.917L123.864 126z" fill="#8e44ad"/><path fill="#fff" d="M178.5 105h5.25v42h-5.25zm15.75 0h5.25v42h-5.25z"/><path fill="#fff" d="M168 131.25h42v5.25h-42zm0-15.75h42v5.25h-42z"/></g></svg>