<svg xmlns="http://www.w3.org/2000/svg" id="svg50" width="39.88" height="40.32"><defs id="defs35"><style id="style33">.cls-1{fill:none;stroke:#000;stroke-linecap:round;stroke-linejoin:round;stroke-width:2px}</style></defs><g data-name="Layer 6" id="Layer_6" transform="translate(-11.6 -11.68)"><path class="cls-1" d="M50.43 17.31v29.08A4.64 4.64 0 0 1 45.81 51H17.22a4.64 4.64 0 0 1-4.62-4.62V17.31a4.64 4.64 0 0 1 4.63-4.63h28.58" id="path39" fill="none" stroke="#000" stroke-width="2" stroke-linecap="round" stroke-linejoin="round"/><circle cx="50.48" cy="13.98" r="1" id="circle41"/><path class="cls-1" d="M28.92 28.08h5v1.64h.1c.64-1 1.7-2 4.31-2 3.23 0 5.64 2.13 5.64 6.77v9.35h-4.9v-8.73c0-2-.71-3.42-2.48-3.42a2.62 2.62 0 0 0-2.48 1.84 3.5 3.5 0 0 0-.11 1.22v9.1h-4.9V32" id="path43" fill="none" stroke="#000" stroke-width="2" stroke-linecap="round" stroke-linejoin="round"/><path class="cls-1" id="polyline45" fill="none" stroke="#000" stroke-width="2" stroke-linecap="round" stroke-linejoin="round" d="M25.2 32.08v11.9h-4.89v-15.9h4.89"/><path class="cls-1" d="M25.52 22.75A2.77 2.77 0 1 1 22.75 20" id="path47" fill="none" stroke="#000" stroke-width="2" stroke-linecap="round" stroke-linejoin="round"/></g></svg>