<svg height="154.86" overflow="visible" width="154.86" xmlns="http://www.w3.org/2000/svg"><circle cx="77.431" cy="77.43" fill="#0173B2" r="77.43"/><path d="M49.975 34.46c-5.85 0-9.686 3.836-9.686 8.881 0 4.932 3.706 8.799 9.438 8.799h.083c5.96 0 9.679-3.867 9.679-8.799-.11-5.045-3.671-8.881-9.514-8.881zm50.394 23.603c-9.095 0-13.095 4.973-15.363 8.479v.158h-.151c.027-.045.123-.113.151-.158v-7.28H67.889c.227 4.822 0 51.356 0 51.356h17.117v-28.72c0-1.533.109-3.059.563-4.155 1.237-3.069 4.001-6.242 8.723-6.242 6.181 0 8.724 4.692 8.724 11.601v27.517h17.034V81.184c0-15.787-8.442-23.121-19.681-23.121zm-59.042 1.199v51.356h17.124V59.262H41.327z" fill="#FFF"/></svg>