<svg xmlns="http://www.w3.org/2000/svg" id="svg3749" width="39.89" height="40.364"><defs id="defs3736"><style id="style3734">.cls-1{fill:none;stroke:#000;stroke-linecap:round;stroke-linejoin:round;stroke-width:2px}</style></defs><g data-name="Layer 6" id="Layer_6" transform="translate(-11.59 -11.65)"><path class="cls-1" d="M30.54 51H17.22a4.64 4.64 0 0 1-4.63-4.62v-29.1a4.64 4.64 0 0 1 4.63-4.63H45.8" id="path3740" fill="none" stroke="#000" stroke-width="2" stroke-linecap="round" stroke-linejoin="round"/><path class="cls-1" d="M50.43 17.28v29.08A4.64 4.64 0 0 1 45.8 51h-9" id="path3742" fill="none" stroke="#000" stroke-width="2" stroke-linecap="round" stroke-linejoin="round"/><circle cx="50.48" cy="13.95" r="1" id="circle3744"/><path class="cls-1" d="M30.54 51V38.51h-4.4v-5.94h4.4v-5.73a6 6 0 0 1 6-6h6.23v5.65h-4.56A1.47 1.47 0 0 0 36.74 28v4.54h6v6h-6V51" id="path3746" fill="none" stroke="#000" stroke-width="2" stroke-linecap="round" stroke-linejoin="round"/></g></svg>