<svg xmlns="http://www.w3.org/2000/svg" id="svg150" width="39.88" height="40.34"><defs id="defs137"><style id="style135">.cls-1{fill:none;stroke:#000;stroke-linecap:round;stroke-linejoin:round;stroke-width:2px}</style></defs><g data-name="Layer 6" id="Layer_6" transform="translate(-11.56 -11.83)"><path class="cls-1" d="M50.39 17.46v29.08a4.64 4.64 0 0 1-4.62 4.63H17.18a4.64 4.64 0 0 1-4.62-4.62V17.46a4.64 4.64 0 0 1 4.62-4.63h28.59" id="path141" fill="none" stroke="#000" stroke-width="2" stroke-linecap="round" stroke-linejoin="round"/><circle cx="50.44" cy="14.13" r="1" id="circle143"/><path class="cls-1" d="M30.3 28.31l-1.95-1.95-.87.87a3.07 3.07 0 0 0 0 4.34l4.78 4.78a3.07 3.07 0 0 0 4.34 0l.87-.87L36 34" id="path145" fill="none" stroke="#000" stroke-width="2" stroke-linecap="round" stroke-linejoin="round"/><path class="cls-1" d="M43.4 32a11.4 11.4 0 0 1-17.09 9.88l-2.59.69-3.12.83.83-3.12.69-2.59A11.4 11.4 0 1 1 43.4 32z" id="path147" fill="none" stroke="#000" stroke-width="2" stroke-linecap="round" stroke-linejoin="round"/></g></svg>