<?xml version="1.0" encoding="UTF-8" standalone="no"?>
<svg
   xmlns:dc="http://purl.org/dc/elements/1.1/"
   xmlns:cc="http://creativecommons.org/ns#"
   xmlns:rdf="http://www.w3.org/1999/02/22-rdf-syntax-ns#"
   xmlns:svg="http://www.w3.org/2000/svg"
   xmlns="http://www.w3.org/2000/svg"
   xmlns:sodipodi="http://sodipodi.sourceforge.net/DTD/sodipodi-0.dtd"
   xmlns:inkscape="http://www.inkscape.org/namespaces/inkscape"
   viewBox="0 0 39.879997 40.340099"
   version="1.1"
   id="svg54"
   sodipodi:docname="social-instagram.svg"
   width="39.879997"
   height="40.340099"
   inkscape:version="0.92.3 (2405546, 2018-03-11)">
  <metadata
     id="metadata58">
    <rdf:RDF>
      <cc:Work
         rdf:about="">
        <dc:format>image/svg+xml</dc:format>
        <dc:type
           rdf:resource="http://purl.org/dc/dcmitype/StillImage" />
        <dc:title></dc:title>
      </cc:Work>
    </rdf:RDF>
  </metadata>
  <sodipodi:namedview
     pagecolor="#ffffff"
     bordercolor="#666666"
     borderopacity="1"
     objecttolerance="10"
     gridtolerance="10"
     guidetolerance="10"
     inkscape:pageopacity="0"
     inkscape:pageshadow="2"
     inkscape:window-width="640"
     inkscape:window-height="480"
     id="namedview56"
     showgrid="false"
     fit-margin-top="0"
     fit-margin-left="0"
     fit-margin-right="0"
     fit-margin-bottom="0"
     inkscape:zoom="8.375"
     inkscape:cx="20.44"
     inkscape:cy="20.17"
     inkscape:window-x="0"
     inkscape:window-y="0"
     inkscape:window-maximized="1"
     inkscape:current-layer="svg54" />
  <defs
     id="defs37">
    <style
       id="style35">.cls-1{fill:none;stroke:#000;stroke-linecap:round;stroke-linejoin:round;stroke-width:2px;}</style>
  </defs>
  <g
     data-name="Layer 6"
     id="Layer_6"
     transform="translate(-11.56,-11.8299)">
    <path
       class="cls-1"
       d="m 50.39,17.46 v 29.08 a 4.64,4.64 0 0 1 -4.62,4.63 H 17.18 A 4.64,4.64 0 0 1 12.56,46.55 V 17.46 a 4.64,4.64 0 0 1 4.62,-4.63 h 28.59"
       id="path41"
       inkscape:connector-curvature="0"
       style="fill:none;stroke:#000000;stroke-width:2px;stroke-linecap:round;stroke-linejoin:round" />
    <circle
       cx="50.439999"
       cy="14.13"
       r="1"
       id="circle43" />
    <circle
       cx="39.029999"
       cy="25"
       r="1"
       id="circle45" />
    <path
       class="cls-1"
       d="m 23.77,20.32 a 3.75,3.75 0 0 0 -3.47,3.74 v 15.88 a 3.77,3.77 0 0 0 3.76,3.76 h 8.59"
       id="path47"
       inkscape:connector-curvature="0"
       style="fill:none;stroke:#000000;stroke-width:2px;stroke-linecap:round;stroke-linejoin:round" />
    <path
       class="cls-1"
       d="m 32.65,43.7 h 7.29 A 3.77,3.77 0 0 0 43.7,39.94 V 24.06 A 3.77,3.77 0 0 0 39.94,20.3 H 24.06 a 1.37,1.37 0 0 0 -0.29,0"
       id="path49"
       inkscape:connector-curvature="0"
       style="fill:none;stroke:#000000;stroke-width:2px;stroke-linecap:round;stroke-linejoin:round" />
    <path
       class="cls-1"
       d="M 34,26.74 A 5.64,5.64 0 1 0 37.64,32"
       id="path51"
       inkscape:connector-curvature="0"
       style="fill:none;stroke:#000000;stroke-width:2px;stroke-linecap:round;stroke-linejoin:round" />
  </g>
</svg>
