<svg xmlns="http://www.w3.org/2000/svg" id="svg208" width="39.88" height="40.33"><defs id="defs191"><style id="style189">.cls-1{fill:none;stroke:#000;stroke-linecap:round;stroke-linejoin:round;stroke-width:2px}</style></defs><g data-name="Layer 6" id="Layer_6" transform="translate(-11.64 -11.53)"><path class="cls-1" d="M50.47 17.15v29.08a4.64 4.64 0 0 1-4.62 4.63H17.26a4.64 4.64 0 0 1-4.62-4.62V17.15a4.64 4.64 0 0 1 4.62-4.62h28.59" id="path195" fill="none" stroke="#000" stroke-width="2" stroke-linecap="round" stroke-linejoin="round"/><circle cx="50.52" cy="13.82" r="1" id="circle197"/><path class="cls-1" d="M25.22 24a5.12 5.12 0 0 0-4.37 5v6A5.14 5.14 0 0 0 26 40.1h4.74" id="path199" fill="none" stroke="#000" stroke-width="2" stroke-linecap="round" stroke-linejoin="round"/><path class="cls-1" d="M38.43 23.9H26a3.67 3.67 0 0 0-.75.07" id="path201" fill="none" stroke="#000" stroke-width="2" stroke-linecap="round" stroke-linejoin="round"/><path class="cls-1" d="M30.71 40.1h7.72a5.14 5.14 0 0 0 5.12-5.1v-6a5.12 5.12 0 0 0-1.32-3.43" id="path203" fill="none" stroke="#000" stroke-width="2" stroke-linecap="round" stroke-linejoin="round"/><path class="cls-1" id="polyline205" fill="none" stroke="#000" stroke-width="2" stroke-linecap="round" stroke-linejoin="round" d="M32.77 30.26L35.79 32l-3.02 1.74-3.02 1.75V28.52"/></g></svg>