<?xml version="1.0" encoding="UTF-8" standalone="no"?>
<svg
   xmlns:dc="http://purl.org/dc/elements/1.1/"
   xmlns:cc="http://creativecommons.org/ns#"
   xmlns:rdf="http://www.w3.org/1999/02/22-rdf-syntax-ns#"
   xmlns:svg="http://www.w3.org/2000/svg"
   xmlns="http://www.w3.org/2000/svg"
   xmlns:sodipodi="http://sodipodi.sourceforge.net/DTD/sodipodi-0.dtd"
   xmlns:inkscape="http://www.inkscape.org/namespaces/inkscape"
   viewBox="0 0 39.880001 40.320099"
   version="1.1"
   id="svg50"
   sodipodi:docname="social-linkedin.svg"
   width="39.880001"
   height="40.320099"
   inkscape:version="0.92.3 (2405546, 2018-03-11)">
  <metadata
     id="metadata54">
    <rdf:RDF>
      <cc:Work
         rdf:about="">
        <dc:format>image/svg+xml</dc:format>
        <dc:type
           rdf:resource="http://purl.org/dc/dcmitype/StillImage" />
        <dc:title></dc:title>
      </cc:Work>
    </rdf:RDF>
  </metadata>
  <sodipodi:namedview
     pagecolor="#ffffff"
     bordercolor="#666666"
     borderopacity="1"
     objecttolerance="10"
     gridtolerance="10"
     guidetolerance="10"
     inkscape:pageopacity="0"
     inkscape:pageshadow="2"
     inkscape:window-width="1360"
     inkscape:window-height="705"
     id="namedview52"
     showgrid="false"
     fit-margin-top="0"
     fit-margin-left="0"
     fit-margin-right="0"
     fit-margin-bottom="0"
     inkscape:zoom="8.375"
     inkscape:cx="20.4"
     inkscape:cy="20.000001"
     inkscape:window-x="-8"
     inkscape:window-y="-8"
     inkscape:window-maximized="1"
     inkscape:current-layer="svg50" />
  <defs
     id="defs35">
    <style
       id="style33">.cls-1{fill:none;stroke:#000;stroke-linecap:round;stroke-linejoin:round;stroke-width:2px;}</style>
  </defs>
  <g
     data-name="Layer 6"
     id="Layer_6"
     transform="translate(-11.6,-11.6799)">
    <path
       class="cls-1"
       d="M 50.43,17.31 V 46.39 A 4.64,4.64 0 0 1 45.81,51 H 17.22 A 4.64,4.64 0 0 1 12.6,46.38 V 17.31 a 4.64,4.64 0 0 1 4.63,-4.63 h 28.58"
       id="path39"
       inkscape:connector-curvature="0"
       style="fill:none;stroke:#000000;stroke-width:2px;stroke-linecap:round;stroke-linejoin:round" />
    <circle
       cx="50.48"
       cy="13.98"
       r="1"
       id="circle41" />
    <path
       class="cls-1"
       d="m 28.92,28.08 h 5 v 1.64 h 0.1 c 0.64,-1 1.7,-2 4.31,-2 3.23,0 5.64,2.13 5.64,6.77 v 9.35 h -4.9 v -8.73 c 0,-2 -0.71,-3.42 -2.48,-3.42 A 2.62,2.62 0 0 0 34.11,33.53 3.5,3.5 0 0 0 34,34.75 v 9.1 H 29.1 V 32"
       id="path43"
       inkscape:connector-curvature="0"
       style="fill:none;stroke:#000000;stroke-width:2px;stroke-linecap:round;stroke-linejoin:round" />
    <polyline
       class="cls-1"
       points="25.2 32.08 25.2 43.98 20.31 43.98 20.31 28.08 25.2 28.08"
       id="polyline45"
       style="fill:none;stroke:#000000;stroke-width:2px;stroke-linecap:round;stroke-linejoin:round" />
    <path
       class="cls-1"
       d="M 25.52,22.75 A 2.77,2.77 0 1 1 22.75,20"
       id="path47"
       inkscape:connector-curvature="0"
       style="fill:none;stroke:#000000;stroke-width:2px;stroke-linecap:round;stroke-linejoin:round" />
  </g>
</svg>
