<?xml version="1.0" encoding="UTF-8" standalone="no"?>
<svg
   xmlns:dc="http://purl.org/dc/elements/1.1/"
   xmlns:cc="http://creativecommons.org/ns#"
   xmlns:rdf="http://www.w3.org/1999/02/22-rdf-syntax-ns#"
   xmlns:svg="http://www.w3.org/2000/svg"
   xmlns="http://www.w3.org/2000/svg"
   xmlns:sodipodi="http://sodipodi.sourceforge.net/DTD/sodipodi-0.dtd"
   xmlns:inkscape="http://www.inkscape.org/namespaces/inkscape"
   viewBox="0 0 39.879997 40.340099"
   version="1.1"
   id="svg150"
   sodipodi:docname="social-whatsapp.svg"
   width="39.879997"
   height="40.340099"
   inkscape:version="0.92.3 (2405546, 2018-03-11)">
  <metadata
     id="metadata154">
    <rdf:RDF>
      <cc:Work
         rdf:about="">
        <dc:format>image/svg+xml</dc:format>
        <dc:type
           rdf:resource="http://purl.org/dc/dcmitype/StillImage" />
        <dc:title></dc:title>
      </cc:Work>
    </rdf:RDF>
  </metadata>
  <sodipodi:namedview
     pagecolor="#ffffff"
     bordercolor="#666666"
     borderopacity="1"
     objecttolerance="10"
     gridtolerance="10"
     guidetolerance="10"
     inkscape:pageopacity="0"
     inkscape:pageshadow="2"
     inkscape:window-width="640"
     inkscape:window-height="480"
     id="namedview152"
     showgrid="false"
     fit-margin-top="0"
     fit-margin-left="0"
     fit-margin-right="0"
     fit-margin-bottom="0"
     inkscape:zoom="4.859375"
     inkscape:cx="20.44"
     inkscape:cy="20.17"
     inkscape:window-x="0"
     inkscape:window-y="0"
     inkscape:window-maximized="1"
     inkscape:current-layer="svg150" />
  <defs
     id="defs137">
    <style
       id="style135">.cls-1{fill:none;stroke:#000;stroke-linecap:round;stroke-linejoin:round;stroke-width:2px;}</style>
  </defs>
  <g
     data-name="Layer 6"
     id="Layer_6"
     transform="translate(-11.56,-11.8299)">
    <path
       class="cls-1"
       d="m 50.39,17.46 v 29.08 a 4.64,4.64 0 0 1 -4.62,4.63 H 17.18 A 4.64,4.64 0 0 1 12.56,46.55 V 17.46 a 4.64,4.64 0 0 1 4.62,-4.63 h 28.59"
       id="path141"
       inkscape:connector-curvature="0"
       style="fill:none;stroke:#000000;stroke-width:2px;stroke-linecap:round;stroke-linejoin:round" />
    <circle
       cx="50.439999"
       cy="14.13"
       r="1"
       id="circle143" />
    <path
       class="cls-1"
       d="m 30.3,28.31 -1.95,-1.95 -0.87,0.87 a 3.07,3.07 0 0 0 0,4.34 l 4.78,4.78 a 3.07,3.07 0 0 0 4.34,0 L 37.47,35.48 36,34"
       id="path145"
       inkscape:connector-curvature="0"
       style="fill:none;stroke:#000000;stroke-width:2px;stroke-linecap:round;stroke-linejoin:round" />
    <path
       class="cls-1"
       d="m 43.4,32 a 11.4,11.4 0 0 1 -17.09,9.88 l -2.59,0.69 -3.12,0.83 0.83,-3.12 0.69,-2.59 A 11.4,11.4 0 1 1 43.4,32 Z"
       id="path147"
       inkscape:connector-curvature="0"
       style="fill:none;stroke:#000000;stroke-width:2px;stroke-linecap:round;stroke-linejoin:round" />
  </g>
</svg>
