<svg height="157.936" overflow="visible" width="157.936" xmlns="http://www.w3.org/2000/svg"><circle cx="78.967" cy="78.967" fill="#3BA6D4" r="78.967"/><path d="M25.813 91.783c7.011 6.491 25.027 12.633 39.68-1.739-2.636.407-4.837-.084-6.506-1.737-1.584-1.57-1.668-3.197-.828-4.677.694-1.202 2.146-2.051 3.576-2.935-2.594.484-4.81.231-6.779-.778-2.657-1.356-5.236-2.782-5.959-5.728 1.62-1.707 3.428-3.231 7.333-2.657-3.673-1.227-6.961-2.829-9.345-5.223-2.327-2.334-2.566-3.853-2.938-5.687 2.026-.75 4.145-1.139 6.415-.915-5.132-2.625-7.318-6.239-8.524-10.172a7.966 7.966 0 0 1-.273-3.483c20.8 7.852 30.545 13.494 35.929 18.787 2.42-6.438 8.063-21.021 16.496-26.026.035.792-.272 1.647-.919 2.565 2.496-1.392 4.445-3.621 7.88-3.574-.393 1.623-1.527 2.927-3.757 3.758 2.243-.862 4.521-1.588 6.877-2.017 2.182-.396 2.152 1.325.918 2.198-2.51 1.771-5.174 1.991-7.795 2.843 8.021.2 14.582 3.996 19.713 12.279 1.697 2.751 2.841 5.506 3.113 8.524 3.421.96 6.828 1.156 10.264.551.939-.168 1.822-.344 2.657-.733-1.34 2.005-2.882 3.653-5.041 4.399-2.062.711-4.137 1.405-6.415 1.465 3.709 1.406 7.804 1.483 12.01 1.192-5.146 4.945-9.071 4.826-13.019 4.767-1.732 7.306-5.266 14.589-12.738 21.256-9.801 8.757-20.353 12.928-31.254 13.84-10.221.862-20.099.742-30.889-4.305-7.992-3.742-14.694-8.887-19.882-16.038z" fill="#FFF"/></svg>