<?xml version="1.0" encoding="UTF-8" standalone="no"?>
<svg
   xmlns:dc="http://purl.org/dc/elements/1.1/"
   xmlns:cc="http://creativecommons.org/ns#"
   xmlns:rdf="http://www.w3.org/1999/02/22-rdf-syntax-ns#"
   xmlns:svg="http://www.w3.org/2000/svg"
   xmlns="http://www.w3.org/2000/svg"
   xmlns:sodipodi="http://sodipodi.sourceforge.net/DTD/sodipodi-0.dtd"
   xmlns:inkscape="http://www.inkscape.org/namespaces/inkscape"
   viewBox="0 0 39.880001 40.330101"
   version="1.1"
   id="svg208"
   sodipodi:docname="social-youtube.svg"
   width="39.880001"
   height="40.330101"
   inkscape:version="0.92.3 (2405546, 2018-03-11)">
  <metadata
     id="metadata212">
    <rdf:RDF>
      <cc:Work
         rdf:about="">
        <dc:format>image/svg+xml</dc:format>
        <dc:type
           rdf:resource="http://purl.org/dc/dcmitype/StillImage" />
        <dc:title></dc:title>
      </cc:Work>
    </rdf:RDF>
  </metadata>
  <sodipodi:namedview
     pagecolor="#ffffff"
     bordercolor="#666666"
     borderopacity="1"
     objecttolerance="10"
     gridtolerance="10"
     guidetolerance="10"
     inkscape:pageopacity="0"
     inkscape:pageshadow="2"
     inkscape:window-width="640"
     inkscape:window-height="480"
     id="namedview210"
     showgrid="false"
     fit-margin-top="0"
     fit-margin-left="0"
     fit-margin-right="0"
     fit-margin-bottom="0"
     inkscape:zoom="4.859375"
     inkscape:cx="20.36"
     inkscape:cy="19.86"
     inkscape:window-x="0"
     inkscape:window-y="0"
     inkscape:window-maximized="1"
     inkscape:current-layer="svg208" />
  <defs
     id="defs191">
    <style
       id="style189">.cls-1{fill:none;stroke:#000;stroke-linecap:round;stroke-linejoin:round;stroke-width:2px;}</style>
  </defs>
  <g
     data-name="Layer 6"
     id="Layer_6"
     transform="translate(-11.64,-11.5299)">
    <path
       class="cls-1"
       d="m 50.47,17.15 v 29.08 a 4.64,4.64 0 0 1 -4.62,4.63 H 17.26 A 4.64,4.64 0 0 1 12.64,46.24 V 17.15 a 4.64,4.64 0 0 1 4.62,-4.62 h 28.59"
       id="path195"
       inkscape:connector-curvature="0"
       style="fill:none;stroke:#000000;stroke-width:2px;stroke-linecap:round;stroke-linejoin:round" />
    <circle
       cx="50.52"
       cy="13.82"
       r="1"
       id="circle197" />
    <path
       class="cls-1"
       d="m 25.22,24 a 5.12,5.12 0 0 0 -4.37,5 v 6 A 5.14,5.14 0 0 0 26,40.1 h 4.74"
       id="path199"
       inkscape:connector-curvature="0"
       style="fill:none;stroke:#000000;stroke-width:2px;stroke-linecap:round;stroke-linejoin:round" />
    <path
       class="cls-1"
       d="M 38.43,23.9 H 26 a 3.67,3.67 0 0 0 -0.75,0.07"
       id="path201"
       inkscape:connector-curvature="0"
       style="fill:none;stroke:#000000;stroke-width:2px;stroke-linecap:round;stroke-linejoin:round" />
    <path
       class="cls-1"
       d="m 30.71,40.1 h 7.72 A 5.14,5.14 0 0 0 43.55,35 v -6 a 5.12,5.12 0 0 0 -1.32,-3.43"
       id="path203"
       inkscape:connector-curvature="0"
       style="fill:none;stroke:#000000;stroke-width:2px;stroke-linecap:round;stroke-linejoin:round" />
    <polyline
       class="cls-1"
       points="32.77 30.26 35.79 32 32.77 33.74 29.75 35.49 29.75 32 29.75 28.52"
       id="polyline205"
       style="fill:none;stroke:#000000;stroke-width:2px;stroke-linecap:round;stroke-linejoin:round" />
  </g>
</svg>
