<svg height="154.631" overflow="visible" width="154.631" xmlns="http://www.w3.org/2000/svg"><circle cx="77.315" cy="77.315" fill="#5189AF" r="77.315"/><path d="M77.412 44.492c10.721 0 11.998.041 16.226.233 3.913.178 6.041.834 7.454 1.383 1.881.728 3.213 1.6 4.627 3.003 1.4 1.407 2.271 2.742 2.999 4.62.55 1.414 1.201 3.542 1.38 7.458.192 4.232.233 5.501.233 16.227 0 10.718-.041 11.995-.233 16.223-.179 3.913-.83 6.041-1.38 7.454-.728 1.881-1.599 3.213-2.999 4.627-1.414 1.4-2.746 2.265-4.627 2.999-1.413.55-3.541 1.201-7.454 1.38-4.228.192-5.505.233-16.226.233-10.722 0-11.992-.041-16.227-.233-3.912-.179-6.04-.83-7.454-1.38-1.874-.728-3.212-1.599-4.62-2.999-1.407-1.414-2.272-2.746-3-4.627-.549-1.413-1.208-3.541-1.386-7.454-.192-4.228-.233-5.505-.233-16.223 0-10.725.041-11.995.233-16.227.178-3.916.837-6.043 1.386-7.458.728-1.877 1.593-3.212 3-4.62 1.407-1.403 2.746-2.275 4.62-3.003 1.414-.549 3.542-1.205 7.454-1.383 4.235-.192 5.505-.233 16.227-.233m0-7.235c-10.9 0-12.273.045-16.556.24-4.27.196-7.194.875-9.747 1.867-2.636 1.026-4.88 2.399-7.111 4.633-2.238 2.23-3.61 4.472-4.633 7.111-.995 2.557-1.668 5.474-1.867 9.75-.199 4.283-.24 5.649-.24 16.556 0 10.91.042 12.27.24 16.553.199 4.276.872 7.193 1.867 9.746 1.023 2.649 2.396 4.888 4.633 7.118 2.23 2.23 4.475 3.604 7.111 4.634 2.553.988 5.478 1.668 9.747 1.866 4.283.192 5.656.24 16.556.24 10.906 0 12.272-.048 16.556-.24 4.276-.198 7.193-.878 9.746-1.866 2.643-1.03 4.888-2.403 7.111-4.634 2.237-2.23 3.61-4.469 4.641-7.118.988-2.553 1.667-5.463 1.866-9.746.192-4.283.233-5.643.233-16.553 0-10.907-.041-12.273-.233-16.556-.199-4.276-.878-7.193-1.866-9.75-1.03-2.639-2.403-4.88-4.641-7.111-2.224-2.234-4.469-3.607-7.111-4.633-2.553-.992-5.47-1.671-9.746-1.867-4.283-.195-5.65-.24-16.556-.24m0 19.535c-11.388 0-20.62 9.232-20.62 20.623s9.232 20.616 20.62 20.616c11.394 0 20.619-9.226 20.619-20.616s-9.225-20.623-20.619-20.623m0 34.004c-7.393 0-13.385-5.985-13.385-13.381s5.992-13.388 13.385-13.388c7.398 0 13.384 5.992 13.384 13.388s-5.985 13.381-13.384 13.381m26.254-34.817a4.815 4.815 0 0 0-4.818-4.818 4.82 4.82 0 0 0-4.818 4.818 4.817 4.817 0 1 0 9.636 0" fill="#FFF"/></svg>